<?xml version="1.0" encoding="utf-8"?>
<!-- Generator: Adobe Illustrator 22.0.1, SVG Export Plug-In . SVG Version: 6.00 Build 0)  -->
<svg version="1.1" id="Layer_1" xmlns="http://www.w3.org/2000/svg" xmlns:xlink="http://www.w3.org/1999/xlink" x="0px" y="0px"
	 viewBox="0 0 500 250" style="enable-background:new 0 0 500 250;" xml:space="preserve">
<style type="text/css">
	.st0{fill:#7D7773;}
	.st1{fill:#FFFFFF;}
	.st2{fill:#483F94;}
</style>
<path class="st0" d="M473.7,79.6c-13.2-13.2-31.6-20.2-50.3-19c-4,0.3-8.1,0.9-12.1,2c-18.3-18.5-43.5-28.1-69.7-26.5
	c-4.7,0.3-9.5,1-14.2,2.1c-19.5-17.3-44.2-27.6-69.9-29.3c-31.5-2-61.7,8.4-85.2,29.2c-4.7-1.1-9.4-1.8-14.1-2
	c-26.2-1.6-51.4,8-69.7,26.5c-4.1-1.1-8.1-1.7-12.1-2c-18.8-1.2-37.1,5.7-50.3,19C12.9,92.8,6,111.2,7.2,129.9
	c2.1,32.6,28.2,58.8,60.9,60.9c7,0.4,14-0.2,20.7-2c15.6,15.7,36,25.1,57.9,26.5c8.7,0.6,17.4-0.1,25.9-2.1
	c19.5,17.3,44.2,27.6,69.9,29.3c2.6,0.2,5.1,0.2,7.7,0.2c28.8,0,56-10.3,77.5-29.5c8.4,1.9,17.1,2.6,25.7,2
	c21.9-1.4,42.3-10.8,57.9-26.5c6.7,1.8,13.7,2.4,20.7,2c32.6-2.1,58.8-28.2,60.9-60.9C493.9,111.2,487,92.8,473.7,79.6z"/>
<path class="st1" d="M467.6,85.7c-11.5-11.5-27.4-17.5-43.6-16.4l0,0c-4.4,0.3-8.8,1.1-13.3,2.6l-2,0.6l-1.4-1.6
	c-16.7-18.2-40.3-27.7-65-26.1c-5.2,0.3-10.3,1.2-15.4,2.5l-1.8,0.5l-1.3-1.2c-18.3-17.1-42-27.4-66.7-28.9
	c-30.1-1.9-58.9,8.3-80.9,28.9l-1.3,1.2l-1.8-0.5c-5-1.3-10.2-2.2-15.3-2.5c-24.6-1.6-48.4,8-65,26.1l-1.4,1.6l-2-0.6
	c-4.5-1.4-8.9-2.3-13.3-2.6c-16.2-1-32.2,5-43.6,16.4C21,97.2,15,113.1,16.1,129.3c1.8,28.3,24.4,50.9,52.7,52.7
	c7.1,0.4,14.1-0.4,20.8-2.5l2-0.6l1.4,1.5c14.3,15.5,33.6,24.8,54.3,26.1c8.8,0.6,17.5-0.3,26-2.5l1.8-0.5l1.3,1.2
	c18.3,17.1,42,27.4,66.7,28.9c2.4,0.2,4.8,0.2,7.1,0.2c27.5,0,53.5-10.2,73.7-29.1l1.3-1.2l1.8,0.5c8.4,2.2,17.1,3,25.9,2.5
	c20.8-1.3,40.1-10.6,54.3-26.1l1.4-1.5l2,0.6c6.7,2.1,13.7,3,20.8,2.5c28.3-1.8,50.9-24.4,52.7-52.7C485,113.1,479,97.2,467.6,85.7z
	 M479.8,129.1c-1.7,26.1-22.6,47.1-48.7,48.7c-6.6,0.4-13-0.4-19.2-2.3l-4.6-1.5l-3.3,3.5c-13.5,14.7-31.8,23.5-51.5,24.8
	c-8.3,0.5-16.5-0.3-24.5-2.4l-4-1.1l-3,2.8c-21.2,19.7-48.7,29.6-77.7,27.8c-23.7-1.5-46.4-11.4-64-27.8l-3-2.8l-4,1.1
	c-8,2.1-16.3,2.9-24.6,2.4c-19.7-1.2-37.9-10-51.5-24.8l-3.3-3.5l-4.6,1.5c-6.2,2-12.7,2.8-19.2,2.3C43,176.2,22,155.2,20.4,129.1
	c-0.9-15,4.6-29.7,15.2-40.4C46.2,78.1,60.9,72.5,76,73.5c4,0.3,8.2,1.1,12.3,2.4l4.6,1.5l3.3-3.6C112,56.6,134.5,47.6,157.8,49
	c4.8,0.3,9.7,1.1,14.5,2.4l4,1.1l3-2.8C200.5,30,228.1,20.1,257,21.9c23.7,1.5,46.4,11.4,64,27.8l3.1,2.8l4-1.1
	c4.8-1.3,9.7-2.1,14.6-2.4c23.4-1.5,45.8,7.5,61.6,24.8l3.3,3.6l4.6-1.5c4.1-1.3,8.3-2.1,12.3-2.4c15-0.9,29.7,4.6,40.3,15.2
	C475.2,99.3,480.7,114.1,479.8,129.1z"/>
<path class="st2" d="M479.8,129.1c-1.7,26.1-22.6,47.1-48.7,48.7c-6.6,0.4-13-0.4-19.2-2.3l-4.6-1.5l-3.3,3.5
	c-13.5,14.7-31.8,23.5-51.5,24.8c-8.3,0.5-16.5-0.3-24.5-2.4l-4-1.1l-3,2.8c-21.2,19.7-48.7,29.6-77.7,27.8
	c-23.7-1.5-46.4-11.4-64-27.8l-3-2.8l-4,1.1c-8,2.1-16.3,2.9-24.6,2.4c-19.7-1.2-37.9-10-51.5-24.8l-3.3-3.5l-4.6,1.5
	c-6.2,2-12.7,2.8-19.2,2.3C43,176.2,22,155.2,20.4,129.1c-0.9-15,4.6-29.7,15.2-40.4C46.2,78.1,60.9,72.5,76,73.5
	c4,0.3,8.2,1.1,12.3,2.4l4.6,1.5l3.3-3.6C112,56.6,134.5,47.6,157.8,49c4.8,0.3,9.7,1.1,14.5,2.4l4,1.1l3-2.8
	C200.5,30,228.1,20.1,257,21.9c23.7,1.5,46.4,11.4,64,27.8l3.1,2.8l4-1.1c4.8-1.3,9.7-2.1,14.6-2.4c23.4-1.5,45.8,7.5,61.6,24.8
	l3.3,3.6l4.6-1.5c4.1-1.3,8.3-2.1,12.3-2.4c15-0.9,29.7,4.6,40.3,15.2C475.2,99.3,480.7,114.1,479.8,129.1z"/>
<g>
	<path class="st1" d="M140.6,168.5c-0.3-0.4-0.6-0.7-1.1-1.1c-0.5-0.4-1-0.7-1.8-1.1c-0.6-0.3-1.1-0.6-1.5-0.9
		c-0.3-0.2-0.5-0.5-0.5-0.9c0-0.3,0.1-0.5,0.4-0.8c0.3-0.2,0.7-0.3,1.2-0.3c0.4,0,0.9,0.1,1.3,0.2c0.4,0.1,0.8,0.3,1.2,0.5l0.2,0.1
		l0.8-2.4l-0.1-0.1c-0.2-0.1-0.4-0.2-0.6-0.2c-0.2-0.1-0.5-0.2-0.8-0.3s-0.6-0.1-1-0.2c-0.4,0-0.7-0.1-1.1-0.1
		c-0.7,0-1.3,0.1-1.8,0.3s-1,0.5-1.3,0.8c-0.4,0.3-0.6,0.7-0.8,1.1c-0.2,0.4-0.3,0.8-0.3,1.2c0,0.5,0.1,0.9,0.2,1.3
		c0.1,0.4,0.3,0.7,0.6,1.1c0.3,0.3,0.6,0.6,1,0.9c0.4,0.3,0.8,0.6,1.3,0.9c0.3,0.2,0.7,0.4,1,0.6c0.3,0.2,0.5,0.3,0.8,0.5
		c0.2,0.2,0.4,0.3,0.5,0.5s0.2,0.4,0.2,0.6c0,0.3-0.1,0.6-0.4,0.8c-0.3,0.2-0.8,0.4-1.4,0.4c-0.3,0-0.5,0-0.8-0.1s-0.5-0.1-0.8-0.2
		c-0.2-0.1-0.5-0.2-0.7-0.3s-0.4-0.2-0.5-0.3l-0.2-0.1l-1.1,2.2l0.1,0.1c0.4,0.3,0.9,0.6,1.6,0.8c0.7,0.2,1.6,0.4,2.5,0.4
		c0.6,0,1.2-0.1,1.7-0.2c0.5-0.1,1-0.4,1.4-0.7s0.7-0.7,0.9-1.1c0.2-0.5,0.4-1,0.4-1.6c0-0.4,0-0.8-0.1-1.2
		C141,169.2,140.8,168.8,140.6,168.5z"/>
	<polygon class="st1" points="155.1,165.7 151,165.7 151,161.1 148.3,161.1 148.3,174.1 151,174.1 151,168.1 155.1,168.1 
		155.1,174.1 157.9,174.1 157.9,161.1 155.1,161.1 	"/>
	<path class="st1" d="M170.2,161l-6.1,13.1h3.1l0.9-2.1h4.9l0.9,2.1h3.1l-6.1-13.1H170.2z M171.9,169.7H169l1.4-3.3L171.9,169.7z"/>
	<path class="st1" d="M191.3,167.7c0.4-0.7,0.5-1.4,0.5-2.1c0-0.8-0.2-1.6-0.6-2.2c-0.4-0.7-0.9-1.2-1.6-1.6
		c-0.7-0.4-1.6-0.6-2.7-0.7c-1-0.1-2.3,0-3.6,0.3h-0.1v12.8h2.8v-3.8c0.2,0,0.5,0,0.7,0s0.5,0,0.7-0.1l2.6,3.8l0.1,0.1h3.4l-3.5-4.9
		C190.5,168.8,190.9,168.3,191.3,167.7z M186,163.6c0.5-0.1,0.9-0.1,1.3,0c0.4,0.1,0.7,0.2,1,0.4s0.4,0.4,0.6,0.7
		c0.1,0.3,0.2,0.6,0.2,0.9c0,0.3-0.1,0.7-0.2,0.9c-0.1,0.3-0.3,0.5-0.6,0.7s-0.6,0.4-1,0.4c-0.4,0.1-0.8,0.1-1.2,0v-4H186z"/>
	<polygon class="st1" points="202.4,168.1 206.3,168.1 206.3,165.7 202.4,165.7 202.4,163.5 207.3,163.5 207.3,161.1 199.6,161.1 
		199.6,174.1 207.5,174.1 207.5,171.7 202.4,171.7 	"/>
	<polygon class="st1" points="223.7,163.5 226.9,163.5 226.9,174.1 229.6,174.1 229.6,163.5 232.8,163.5 232.8,161.1 223.7,161.1 	
		"/>
	<polygon class="st1" points="246.5,165.7 242.4,165.7 242.4,161.1 239.6,161.1 239.6,174.1 242.4,174.1 242.4,168.1 246.5,168.1 
		246.5,174.1 249.3,174.1 249.3,161.1 246.5,161.1 	"/>
	<polygon class="st1" points="259.8,168.1 263.7,168.1 263.7,165.7 259.8,165.7 259.8,163.5 264.6,163.5 264.6,161.1 257,161.1 
		257,174.1 264.8,174.1 264.8,171.7 259.8,171.7 	"/>
	<path class="st1" d="M290.2,167.8c-0.2-0.3-0.5-0.5-0.8-0.7c-0.2-0.1-0.3-0.2-0.5-0.3c0,0,0.1-0.1,0.1-0.2c0.1-0.2,0.3-0.3,0.4-0.6
		c0.1-0.2,0.2-0.4,0.3-0.7c0.1-0.3,0.1-0.6,0.1-0.9c0-0.7-0.1-1.3-0.4-1.8s-0.7-0.8-1.1-1.1c-0.5-0.3-1-0.5-1.6-0.6
		c-1.1-0.2-2.2-0.2-3.3-0.1c-0.5,0.1-0.9,0.1-1.3,0.2H282v13h0.1c0.5,0.1,1,0.1,1.5,0.1c0.4,0,0.9,0.1,1.4,0.1c1.7,0,3-0.2,3.9-0.7
		c1-0.5,1.6-1.2,1.8-2.2c0.1-0.2,0.2-0.4,0.2-0.6c0-0.2,0-0.4,0-0.6c0-0.5-0.1-0.9-0.2-1.3C290.6,168.5,290.4,168.1,290.2,167.8z
		 M284.7,166.1v-2.6c0.1,0,0.2,0,0.2,0c0.3,0,0.7,0,1.1,0.1c0.2,0,0.4,0.1,0.5,0.2c0.2,0.1,0.3,0.2,0.4,0.4s0.1,0.4,0.1,0.7
		s-0.1,0.6-0.3,0.8c-0.2,0.2-0.4,0.4-0.6,0.4L284.7,166.1L284.7,166.1z M288.1,170c0,0.3-0.1,0.6-0.2,0.8s-0.3,0.4-0.5,0.5
		s-0.5,0.2-0.8,0.3c-0.5,0.1-1,0.1-1.5,0.1h-0.3v-3.4h2c0.2,0,0.4,0.1,0.6,0.2c0.2,0.1,0.3,0.2,0.4,0.4s0.2,0.3,0.3,0.5
		C288.1,169.6,288.1,169.8,288.1,170z"/>
	<path class="st1" d="M308.8,162.9c-0.6-0.6-1.3-1.1-2.2-1.4c-0.8-0.4-1.8-0.5-2.8-0.5s-1.9,0.2-2.8,0.5c-0.8,0.4-1.6,0.8-2.2,1.4
		c-0.6,0.6-1.1,1.3-1.4,2.1s-0.5,1.7-0.5,2.6c0,0.9,0.2,1.8,0.5,2.6s0.8,1.5,1.4,2.1s1.3,1.1,2.2,1.4c0.8,0.4,1.8,0.5,2.8,0.5
		s1.9-0.2,2.8-0.5c0.8-0.4,1.6-0.8,2.2-1.4c0.6-0.6,1.1-1.3,1.4-2.1s0.5-1.7,0.5-2.6c0-0.9-0.2-1.8-0.5-2.6S309.4,163.5,308.8,162.9
		z M307.8,167.6c0,0.6-0.1,1.2-0.3,1.7c-0.2,0.5-0.5,1-0.9,1.3c-0.4,0.4-0.8,0.6-1.2,0.8c-0.5,0.2-1,0.3-1.5,0.3s-1-0.1-1.5-0.3
		s-0.9-0.5-1.2-0.8c-0.4-0.4-0.6-0.8-0.9-1.3s-0.3-1.1-0.3-1.7c0-0.6,0.1-1.2,0.3-1.8c0.2-0.5,0.5-1,0.9-1.3
		c0.4-0.4,0.8-0.6,1.2-0.8c0.5-0.2,1-0.3,1.5-0.3s1,0.1,1.5,0.3s0.9,0.5,1.2,0.8c0.4,0.4,0.7,0.8,0.9,1.3
		C307.6,166.4,307.8,167,307.8,167.6z"/>
	<path class="st1" d="M324.7,169.4c0,0.4-0.1,0.7-0.2,1s-0.3,0.6-0.5,0.8s-0.4,0.4-0.7,0.5c-0.6,0.3-1.2,0.2-1.8,0
		c-0.3-0.1-0.5-0.3-0.7-0.5s-0.4-0.5-0.5-0.8s-0.2-0.6-0.2-1v-8.2h-2.8v8.3c0,0.6,0.1,1.3,0.3,1.8c0.2,0.6,0.5,1.1,0.9,1.6
		c0.4,0.4,0.9,0.8,1.6,1.1c0.6,0.3,1.4,0.4,2.2,0.4c0.8,0,1.6-0.1,2.2-0.4c0.6-0.3,1.2-0.6,1.6-1.1c0.4-0.4,0.8-1,1-1.6
		s0.3-1.2,0.3-1.8v-8.3h-2.8v8.2H324.7z"/>
	<polygon class="st1" points="342.2,165.6 335.5,161 335,161.2 335,174.1 337.7,174.1 337.7,165.9 342.2,168.9 342.2,174.1 
		345,174.1 345,161.1 342.2,161.1 	"/>
	<polygon class="st1" points="351.8,163.5 355,163.5 355,174.1 357.7,174.1 357.7,163.5 360.9,163.5 360.9,161.1 351.8,161.1 	"/>
	<polygon class="st1" points="375.2,161.1 372.6,165.3 369.9,161.1 366.6,161.1 371.1,168.3 371.1,174.1 373.9,174.1 373.9,168.3 
		378.4,161.1 	"/>
</g>
<g>
	<path class="st1" d="M105.9,119.5c1.2-2.4,1.9-5,1.9-7.5c0-2.9-0.6-5.5-1.9-7.8s-3.2-4.1-5.6-5.5s-5.4-2.2-8.9-2.6
		c-3.5-0.3-7.5-0.1-12,0.8L79,97v46.2h7.9v-14.8c1.2,0.1,2.3,0.1,3.3,0c1.1-0.1,2.1-0.2,3.1-0.4l10.3,15.1h10l-12.9-18
		C102.9,123.8,104.7,121.8,105.9,119.5z M99.7,112.1c0,1.5-0.3,2.9-0.9,4.1s-1.5,2.3-2.6,3.1c-1.1,0.8-2.5,1.4-4.2,1.8
		c-1.5,0.3-3.3,0.4-5.2,0.2v-17.7c2-0.3,3.9-0.3,5.4,0c1.7,0.3,3.1,0.9,4.2,1.7c1.1,0.8,1.9,1.8,2.5,2.9
		C99.4,109.4,99.7,110.7,99.7,112.1z"/>
	<path class="st1" d="M137.2,103.2l-18.5,40.2h8.9l3.3-7.6h14.6l3.3,7.6h8.9l-18.3-40.2H137.2z M142.5,128.7H134l4.3-9.9
		L142.5,128.7z"/>
	<rect x="166.1" y="103.6" class="st1" width="8" height="39.7"/>
	<polygon class="st1" points="211,120.9 191.6,103 189.4,103.9 189.4,143.3 197.3,143.3 197.3,119.1 211,130.7 211,143.3 
		218.9,143.3 218.9,103.6 211,103.6 	"/>
	<path class="st1" d="M268.9,108.2c-1.1-2-2.6-3.9-4.5-5.6s-4.2-3.1-7-4.2c-2.8-1.1-6.1-1.8-9.9-2.1c-3.8-0.3-8.3-0.1-13.3,0.6
		l-0.5,0.1v46.3l0.5,0.1c3.2,0.4,6.1,0.7,8.8,0.7c1.5,0,3-0.1,4.3-0.2c3.8-0.4,7.1-1.2,9.9-2.3c2.8-1.1,5.1-2.6,7-4.3
		s3.4-3.6,4.5-5.5s1.9-4,2.4-6s0.7-3.9,0.7-5.6c0-1.8-0.2-3.7-0.7-5.8C270.8,112.2,270,110.2,268.9,108.2z M263.5,120
		c0,3-0.6,5.7-1.9,7.9c-1.2,2.2-2.9,4-5,5.3c-2.1,1.4-4.5,2.3-7.1,2.8c-2.5,0.5-5.1,0.6-7.8,0.4v-32.7c3.4-0.4,6.5-0.2,9.2,0.4
		c2.7,0.7,5.1,1.8,6.9,3.3s3.3,3.3,4.2,5.5C263,115.1,263.5,117.4,263.5,120z"/>
	<path class="st1" d="M296.7,103.2h-2.3l-18.5,40.2h8.9l3.3-7.6h14.6l3.3,7.6h8.9L297,103.9L296.7,103.2z M299.7,128.7h-8.5l4.3-9.9
		L299.7,128.7z"/>
	<polygon class="st1" points="345.9,121 326.5,103.1 324.3,104 324.3,143.4 332.2,143.4 332.2,119.1 345.9,130.8 345.9,143.4 
		353.8,143.4 353.8,103.7 345.9,103.7 	"/>
	<path class="st1" d="M395.8,132.7c-1.1,1-2.6,1.9-4.4,2.8c-3.4,1.5-7.6,1.6-10.7,0.1c-1.5-0.7-2.9-1.7-4-2.9s-2-2.6-2.6-4.2
		c-0.6-1.6-0.9-3.3-0.9-5.1c0-1.9,0.3-3.6,1-5.2c0.6-1.6,1.5-3,2.6-4.2s2.4-2.1,4-2.8c2.4-1.1,5.4-1.3,8-0.6c1,0.3,1.9,0.6,2.7,1
		c0.8,0.4,1.6,0.9,2.3,1.3c0.7,0.5,1.3,1,1.8,1.4l0.9,0.9l4.9-5.9l-0.9-0.8c-0.7-0.6-1.5-1.2-2.4-1.9c-0.9-0.7-2-1.3-3.3-1.9
		c-1.2-0.6-2.6-1.1-4.2-1.4c-1.6-0.4-3.3-0.6-5.1-0.6c-2.8,0-5.4,0.5-7.9,1.5s-4.7,2.4-6.7,4.1c-1.9,1.8-3.5,4-4.6,6.5
		s-1.7,5.4-1.7,8.4c0,2.9,0.5,5.7,1.6,8.1c1,2.5,2.5,4.7,4.3,6.5c1.8,1.9,4,3.3,6.5,4.4c2.5,1,5.3,1.6,8.2,1.6c2.1,0,4-0.2,5.6-0.5
		s3.1-0.8,4.3-1.4c1.3-0.6,2.4-1.2,3.3-1.9s1.7-1.4,2.4-2.1l0.9-0.8l-4.9-5.5L395.8,132.7z"/>
	<polygon class="st1" points="419.6,136.2 419.6,124.7 431.7,124.7 431.7,117.5 419.6,117.5 419.6,110.8 434.6,110.8 434.6,103.6 
		411.6,103.6 411.6,143.3 435.3,143.3 435.3,136.2 	"/>
</g>
</svg>
