<?xml version="1.0" standalone="no"?>
<!DOCTYPE svg PUBLIC "-//W3C//DTD SVG 1.1//EN" "http://www.w3.org/Graphics/SVG/1.1/DTD/svg11.dtd" >
<svg xmlns="http://www.w3.org/2000/svg" xmlns:xlink="http://www.w3.org/1999/xlink" version="1.1">
<metadata>
Created by FontForge 20170910 at Fri Sep 12 17:39:27 2014
 By Jimmy Wärting
Copyright (c) 2014 by . All rights reserved.
</metadata>
<defs>
<font id="Selfie" horiz-adv-x="307" >
  <font-face 
    font-family="Selfie"
    font-weight="400"
    font-stretch="normal"
    units-per-em="1000"
    panose-1="0 0 0 0 0 0 0 0 0 0"
    ascent="750"
    descent="-250"
    x-height="360"
    cap-height="670"
    bbox="-1430 -475 1646 891.564"
    underline-thickness="50"
    underline-position="-100"
    unicode-range="U+0020-FB02"
  />
<missing-glyph horiz-adv-x="500" 
 />
    <glyph glyph-name="f_f" unicode="ff" 
d="M-150 -245c-43 -48 -96 -79 -157 -79c-75 1 -98 29 -98 58c0 25 23 54 102 54c22 0 75 -11 138 -5c21 25 40 56 56 92l213 467h-18c-20 0 -12 28 9 28h22l39 84c53 115 130 205 232 205c33 0 57 -8 75 -20c24 13 50 20 79 20c85 0 119 -47 119 -97c0 -41 -35 -96 -96 -98
c-21 0 -21 28 0 28c44 3 66 42 66 70c0 35 -24 69 -89 69c-73 0 -146 -62 -196 -170l-42 -91h64c19 0 10 -28 -9 -28h-68l-165 -360c-68 -167 -181 -216 -276 -227zM-76 -125c-14 -31 -29 -59 -47 -85c81 18 168 71 223 208l158 344h-121zM192 461l-42 -91h121l39 84
c32 71 74 132 125 169c-12 5 -28 8 -47 8c-73 0 -146 -62 -196 -170zM-375 -266c0 -14 14 -28 68 -28c38 0 77 16 111 46c-49 -1 -89 6 -107 6c-58 0 -72 -14 -72 -24z" />
    <glyph glyph-name="T_h" unicode="Th" horiz-adv-x="895" 
d="M552 30l213 469c15 32 33 63 55 91c-47 14 -92 30 -140 43c-43 -46 -79 -124 -111 -206c-78 -198 -187 -491 -417 -491c-72 0 -131 32 -142 79c-4 20 25 28 30 6c7 -33 54 -55 112 -55c210 0 322 299 389 471c30 78 66 156 109 204c-48 12 -97 20 -148 20
c-279 0 -406 -195 -406 -345c0 -93 49 -181 144 -219c10 -4 14 -10 14 -16c0 -7 -7 -14 -16 -14c-3 0 -7 0 -10 2c-107 44 -162 142 -162 247c0 164 142 375 438 375c116 0 223 -45 336 -76c52 59 117 100 182 100c70 0 102 -33 102 -69c0 -42 -46 -89 -124 -89
c-52 1 -102 11 -152 25c-18 -22 -34 -48 -47 -76l-66 -148c14 10 30 17 47 17c45 0 76 -21 76 -64c0 -16 -4 -32 -13 -51l-73 -157c-7 -16 -11 -31 -11 -40c0 -24 15 -35 41 -35c56 0 85 70 93 87c8 15 32 7 25 -11c-14 -37 -58 -104 -118 -104c-44 0 -71 20 -71 63
c0 16 4 33 13 52l73 157c7 15 11 30 11 39c0 24 -19 36 -46 36c-38 0 -65 -35 -81 -63l-118 -260c-12 -26 -40 -14 -31 6zM1022 687c-47 0 -104 -30 -152 -80c42 -10 85 -18 130 -20c60 0 94 31 94 59c0 20 -22 41 -72 41z" />
    <glyph glyph-name="fi" unicode="fi" 
d="M69 367c-13 6 -3 33 15 24c8 -5 21 -10 37 -14l46 100c53 115 130 205 232 205c85 0 119 -47 119 -97c0 -41 -35 -96 -96 -98c-21 0 -21 28 0 28c44 3 66 42 66 70c0 35 -24 69 -89 69c-73 0 -146 -62 -196 -170l-52 -113c19 -3 40 -4 60 -4c32 0 60 5 72 15
c14 8 31 -7 18 -22l-117 -257c-7 -16 -11 -31 -11 -40c0 -24 15 -35 41 -35c56 0 85 70 93 87c8 15 32 7 25 -11c-14 -37 -58 -104 -118 -104c-44 0 -71 20 -71 63c0 16 4 33 13 52l104 227c-15 -2 -31 -3 -48 -3c-24 0 -50 2 -73 6l-171 -373c-52 -115 -127 -198 -229 -198
c-85 0 -119 47 -119 97c0 41 35 96 96 98c21 0 21 -28 0 -28c-44 -3 -66 -42 -66 -70c0 -35 24 -69 89 -69c73 0 147 62 196 170l174 380c-17 4 -31 9 -40 15zM355 459c-3 -15 -17 -27 -32 -27c-16 0 -25 12 -22 27c2 15 17 28 31 28c15 0 26 -13 23 -28z" />
    <glyph glyph-name="fl" unicode="fl" 
d="M203 342h-65l-170 -370c-52 -115 -127 -198 -229 -198c-85 0 -119 47 -119 97c0 41 35 96 96 98c21 0 21 -28 0 -28c-44 -3 -66 -42 -66 -70c0 -35 24 -69 89 -69c73 0 147 62 196 170l170 370h-19c-20 0 -12 28 9 28h23l39 84c53 115 130 205 232 205c23 0 41 -4 56 -10
c34 25 71 41 113 41c85 0 119 -47 119 -97c0 -41 -35 -96 -96 -98c-21 0 -21 28 0 28c44 3 66 42 66 70c0 35 -24 69 -89 69c-73 0 -146 -62 -196 -170l-178 -389c-7 -16 -11 -31 -11 -40c0 -24 15 -35 41 -35c56 0 85 70 93 87c8 15 32 7 25 -11
c-14 -37 -58 -104 -118 -104c-44 0 -71 20 -71 63c0 16 4 33 13 52l170 370c26 56 57 106 94 142c-9 2 -19 4 -31 4c-73 0 -146 -62 -196 -170l-42 -91h61c19 0 10 -28 -9 -28z" />
    <glyph glyph-name="A_g" unicode="Ag" horiz-adv-x="1374" 
d="M911 106l60 129h-213c-95 -162 -240 -315 -424 -315c-151 0 -278 108 -278 264c0 136 106 264 266 264c136 0 203 -78 203 -170c0 -34 -16 -71 -44 -98c-19 -15 -41 2 -21 21c23 21 35 50 35 77c0 77 -57 140 -175 140c-142 0 -234 -112 -234 -234
c0 -139 122 -234 248 -234c181 0 317 161 408 318c109 207 294 408 550 408c37 0 64 -8 83 -22c20 -13 1 -40 -16 -26c-13 11 -34 19 -62 20c-88 0 -154 -115 -189 -190l-169 -364c-27 -58 -43 -162 33 -162c6 0 13 1 21 3c23 9 22 -24 0 -30c-9 -2 -17 -3 -24 -3
c-4 0 -7 0 -10 1c-40 -7 -60 -42 -60 -68c0 -31 19 -61 77 -61c65 0 134 58 180 162l36 79c-13 -9 -28 -15 -46 -15c-45 0 -76 21 -76 64c0 16 4 32 13 51l74 158c13 29 51 102 119 102c30 0 55 -13 65 -36l10 21c8 19 37 9 28 -12l-190 -412c-52 -111 -119 -190 -213 -190
c-79 0 -107 43 -107 89c0 28 17 63 49 82c-47 36 -35 129 -7 189zM1199 638c-170 -36 -314 -166 -426 -376h210l89 189c35 74 77 145 127 187zM1146 28c39 0 67 38 83 66l85 185c5 13 8 23 8 32c0 24 -19 36 -46 36c-52 0 -82 -65 -93 -90l-72 -154c-7 -15 -11 -30 -11 -39
c0 -24 19 -36 46 -36zM1281 0c-15 0 -15 28 0 28c56 0 85 70 93 87c8 15 32 7 25 -11c-14 -37 -58 -104 -118 -104z" />
    <glyph glyph-name="A_f" unicode="Af" horiz-adv-x="1239" 
d="M769 -100c19 0 21 -28 0 -28c-44 0 -66 -34 -66 -63c0 -34 24 -67 89 -67c77 0 151 69 196 168l196 431h-12c-20 0 -17 29 4 29h21l51 104v-1c26 58 61 112 99 148c-21 20 -50 27 -80 27c-64 0 -136 -85 -184 -190l-193 -419c-9 -19 -15 -42 -15 -62c0 -14 2 -28 9 -40
c12 -21 -13 -32 -25 -16c-11 13 -15 32 -15 53c0 26 6 55 16 77l86 184h-213c-91 -160 -245 -315 -424 -315c-151 0 -278 108 -278 264c0 136 106 264 266 264c136 0 203 -78 203 -170c0 -34 -16 -71 -44 -97c-16 -15 -36 4 -21 20c22 21 35 51 35 77c0 77 -57 140 -175 140
c-142 0 -234 -112 -234 -234c0 -139 115 -234 248 -234c177 0 322 158 409 318c141 258 322 408 541 408c56 0 90 -16 110 -37c32 23 71 39 111 39c85 0 119 -47 119 -97c0 -41 -35 -96 -96 -98c-23 -1 -22 29 0 28c44 3 66 42 66 70c0 34 -24 67 -89 67
c-73 0 -147 -62 -196 -169l-52 -109h61c25 0 19 -29 -5 -29h-70l-197 -431c-52 -113 -133 -198 -229 -198c-85 0 -119 47 -119 97c0 40 35 91 96 91zM1047 451c34 71 79 143 129 186c-181 -37 -316 -173 -427 -375h208z" />
    <glyph glyph-name="e_r" unicode="er" horiz-adv-x="516" 
d="M186 375c57 0 79 -41 57 -95c-31 -77 -70 -111 -129 -111c-19 0 -39 6 -51 17l-18 -39c-34 -72 -9 -117 57 -119c124 1 237 236 273 374l-9 5c-36 18 -92 50 -92 106c0 39 31 61 58 61c55 0 84 -54 84 -103c0 -15 -3 -34 -7 -55c42 -26 73 -56 73 -99
c0 -14 -4 -30 -12 -47l-58 -126l-19 -41c-7 -16 -11 -31 -11 -40c0 -24 15 -35 41 -35c56 0 85 70 93 87c8 15 32 7 25 -11c-14 -37 -58 -104 -118 -104c-44 0 -71 20 -71 63c0 16 4 33 13 52l14 29l60 131c8 17 11 31 11 45c0 29 -18 48 -48 67
c-40 -147 -161 -384 -300 -387c-84 0 -135 54 -85 159l54 114c13 29 49 102 115 102zM211 285c10 24 19 62 -25 62c-50 0 -78 -65 -89 -90l-21 -45c6 -5 24 -12 37 -12c47 0 75 29 98 85zM302 513c0 -41 42 -62 78 -81c0 -1 1 -1 2 -1c3 17 5 29 5 40c0 37 -19 75 -55 75
c-15 0 -30 -13 -30 -33z" />
    <glyph glyph-name=".notdef" horiz-adv-x="500" 
 />
    <glyph glyph-name="l" unicode="l" horiz-adv-x="151" 
d="M0 115l215 469c8 19 37 9 28 -12l-215 -469c-7 -16 -11 -31 -11 -40c0 -24 15 -35 41 -35c56 0 85 70 93 87c8 15 32 7 25 -11c-14 -37 -58 -104 -118 -104c-44 0 -71 20 -71 63c0 16 4 33 13 52z" />
    <glyph glyph-name="d" unicode="d" 
d="M214 0c-38 0 -63 15 -70 46c-19 -24 -46 -46 -81 -46c-45 0 -76 21 -76 64c0 16 4 32 13 51l74 158c13 29 51 102 119 102c30 0 55 -13 65 -36l113 245c8 19 37 9 28 -12l-215 -469c-7 -16 -11 -31 -11 -40c0 -24 15 -35 41 -35c56 0 85 70 93 87c8 15 32 7 25 -11
c-14 -37 -58 -104 -118 -104zM156 115l72 157c7 16 11 29 11 39c0 24 -19 36 -46 36c-52 0 -82 -65 -93 -90l-72 -154c-7 -15 -11 -30 -11 -39c0 -24 19 -36 46 -36c45 0 75 50 88 77z" />
    <glyph glyph-name="L" unicode="L" horiz-adv-x="865" 
d="M1180 -87c-18 14 2 29 15 21c39 -24 55 -66 51 -112c-10 -83 -92 -174 -239 -174c-226 1 -378 159 -520 287l-25 22c-76 -46 -158 -64 -236 -64c-111 -1 -206 46 -206 123c0 79 92 112 166 111c100 0 189 -58 278 -133c56 37 105 89 146 154c-104 -35 -218 -39 -327 12
c-138 63 -196 208 -133 346c86 187 316 241 503 155c51 -24 107 -64 146 -113c41 78 87 138 142 138c41 0 61 -34 61 -91c-2 -149 -153 -344 -349 -430c-48 -86 -104 -148 -165 -191c150 -130 304 -296 520 -296c126 0 200 76 209 148c4 43 -14 66 -37 87zM298 188
c112 -52 231 -42 336 3c7 12 13 25 19 38l70 157c20 44 40 90 61 133c-37 51 -96 91 -147 116c-174 80 -383 26 -460 -141c-57 -123 -2 -249 121 -306zM226 -77c75 0 147 18 212 55c-82 68 -162 119 -251 119c-84 0 -136 -31 -135 -80c0 -58 88 -94 174 -94zM680 219l-4 -8
c168 88 295 258 296 386c1 38 -10 58 -35 59c-41 -1 -81 -60 -119 -135c9 -14 16 -30 21 -45c2 -2 2 -7 1 -11c1 -7 -8 -15 -15 -14c-5 0 -9 2 -12 11s-7 18 -11 27c-18 -37 -35 -77 -52 -114z" />
    <glyph glyph-name="e" unicode="e" horiz-adv-x="232" 
d="M186 375c57 0 79 -41 57 -95c-31 -77 -70 -111 -129 -111c-19 0 -39 6 -51 17l-18 -39c-34 -72 -9 -119 57 -119s114 57 130 87c8 15 33 7 25 -11c-23 -53 -85 -104 -155 -104c-84 0 -135 54 -85 159l54 114c13 29 49 102 115 102zM211 285c10 24 19 62 -25 62
c-50 0 -78 -65 -89 -90l-21 -45c6 -5 24 -12 37 -12c47 0 75 29 98 85z" />
    <glyph glyph-name="h" unicode="h" horiz-adv-x="306" 
d="M155 115l73 157c7 15 11 30 11 39c0 24 -19 36 -46 36c-43 0 -73 -46 -87 -74l-77 -169c-15 -32 -58 -104 -122 -104c-21 0 -20 28 0 28c50 0 78 55 93 87l215 469c8 19 37 9 28 -12l-98 -215c14 11 30 18 48 18c45 0 76 -21 76 -64c0 -16 -4 -32 -13 -51l-73 -157
c-7 -16 -11 -31 -11 -40c0 -24 15 -35 41 -35c56 0 85 70 93 87c8 15 32 7 25 -11c-14 -37 -58 -104 -118 -104c-44 0 -71 20 -71 63c0 16 4 33 13 52z" />
    <glyph glyph-name="n" unicode="n" horiz-adv-x="306" 
d="M155 115l73 157c7 15 11 30 11 39c0 24 -19 38 -46 36c-44 -4 -74 -50 -88 -76l-76 -167c-15 -32 -58 -104 -122 -104c-21 0 -20 28 0 28c50 0 78 55 93 87l113 246c7 17 33 10 29 -8c15 12 32 20 51 22c46 3 76 -21 76 -64c0 -16 -4 -32 -13 -51l-73 -157
c-7 -16 -11 -31 -11 -40c0 -24 15 -35 41 -35c56 0 85 70 93 87c8 15 32 7 25 -11c-14 -37 -58 -104 -118 -104c-44 0 -71 20 -71 63c0 16 4 33 13 52z" />
    <glyph glyph-name="i" unicode="i" horiz-adv-x="151" 
d="M58 0c-44 0 -71 20 -71 63c0 16 4 33 13 52l112 245c8 19 37 9 28 -12l-112 -245c-7 -16 -11 -31 -11 -40c0 -24 15 -35 41 -35c56 0 85 70 93 87c8 15 32 7 25 -11c-14 -37 -58 -104 -118 -104zM199 459c-3 -15 -17 -27 -32 -27c-16 0 -25 12 -22 27c2 15 17 28 31 28
c15 0 26 -13 23 -28z" />
    <glyph glyph-name="r.55" horiz-adv-x="262" 
d="M109 60l98 216c7 15 11 30 11 39c0 24 -13 38 -34 36c-16 0 -28 5 -36 15l-123 -262c-9 -19 -36 -13 -25 11l143 310l3 8c9 17 38 7 28 -13c-14 -31 -6 -41 10 -41c40 3 64 -21 64 -64c0 -16 -4 -32 -13 -51l-98 -216c-27 -58 -34 -142 42 -142c6 0 13 1 21 3
c23 9 26 -21 5 -29c-10 -4 -22 -4 -29 -4c-103 0 -102 109 -67 184z" />
    <glyph glyph-name="q" unicode="q" horiz-adv-x="291" 
d="M-3 -231l113 247c-13 -10 -29 -16 -47 -16c-45 0 -76 21 -76 64c0 16 4 32 13 51l74 158c13 29 51 102 119 102c30 0 55 -13 65 -36l10 21c8 19 37 9 28 -12l-271 -591c-8 -19 -37 -9 -28 12zM63 28c44 0 73 48 87 75l80 174c5 14 9 25 9 34c0 24 -19 36 -46 36
c-52 0 -82 -65 -93 -90l-72 -154c-7 -15 -11 -30 -11 -39c0 -24 19 -36 46 -36zM198 0c-15 0 -15 28 0 28c56 0 85 70 93 87c8 15 32 7 25 -11c-14 -37 -58 -104 -118 -104z" />
    <glyph glyph-name="u" unicode="u" 
d="M141 348l-113 -245c-7 -15 -11 -30 -11 -39c0 -24 19 -36 46 -36c45 0 75 50 88 77l5 10l112 245c8 19 37 9 28 -12l-112 -245c-7 -16 -11 -31 -11 -40c0 -24 15 -35 41 -35c56 0 85 70 93 87c8 15 32 7 25 -11c-14 -37 -58 -104 -118 -104c-38 0 -63 15 -70 46
c-19 -24 -46 -46 -81 -46c-45 0 -76 21 -76 64c0 16 4 32 13 51l113 245c8 19 37 9 28 -12z" />
    <glyph glyph-name="t.5" horiz-adv-x="153" 
d="M-25 62l129 280h-29c-20 0 -12 28 9 28h32l49 106c8 19 37 9 28 -12l-43 -94h51c19 0 10 -28 -9 -28h-55l-134 -292c-27 -58 -34 -144 42 -144c6 0 13 1 21 3c23 9 22 -24 0 -30c-9 -2 -17 -3 -24 -3c-103 0 -102 111 -67 186z" />
    <glyph glyph-name="s.999" horiz-adv-x="254" 
d="M-17 6c-14 6 -26 15 -35 25c-11 12 7 34 23 20c7 -8 17 -15 30 -19c9 -3 19 -4 29 -4c66 0 119 56 124 126c4 51 -26 96 -35 149l-94 -199c-10 -22 -34 -8 -25 11l136 295c8 19 38 9 28 -12l-5 -11c-6 -14 -10 -28 -11 -41c-5 -66 40 -127 36 -191
c-7 -80 -73 -157 -157 -157c-16 0 -31 3 -44 8z" />
    <glyph glyph-name="a" unicode="a" 
d="M214 0c-38 0 -63 15 -70 46c-19 -24 -46 -46 -81 -46c-45 0 -76 21 -76 64c0 16 4 32 13 51l74 158c13 29 51 102 119 102c30 0 55 -13 65 -36l10 21c8 19 37 9 28 -12l-112 -245c-7 -16 -11 -31 -11 -40c0 -24 15 -35 41 -35c56 0 85 70 93 87c8 15 32 7 25 -11
c-14 -37 -58 -104 -118 -104zM63 28c45 0 75 50 88 77l77 167c7 16 11 29 11 39c0 24 -19 36 -46 36c-52 0 -82 -65 -93 -90l-72 -154c-7 -15 -11 -30 -11 -39c0 -24 19 -36 46 -36z" />
    <glyph glyph-name="space" unicode=" " horiz-adv-x="149" 
 />
    <glyph glyph-name="P" unicode="P" horiz-adv-x="812" 
d="M793 684c21 0 21 -27 0 -28c-23 0 -46 -9 -68 -24c78 -52 127 -131 127 -220c0 -153 -137 -259 -265 -260c-38 0 -75 15 -94 26c-13 6 -2 32 18 23c15 -6 44 -19 76 -20c113 0 235 97 235 232c0 81 -47 153 -121 200c-49 -46 -95 -125 -137 -218l-80 -174
c-83 -179 -149 -313 -347 -313c-72 0 -130 31 -141 78c-4 22 25 28 30 6c7 -33 54 -54 111 -54c179 1 244 132 317 291l81 177c41 91 88 171 140 222c-51 26 -111 42 -177 42c-273 0 -396 -192 -395 -334c-1 -85 43 -165 129 -200c25 -9 11 -37 -11 -27
c-98 40 -147 130 -148 227c0 154 133 363 425 362c75 0 144 -18 201 -50c30 23 61 36 94 36z" />
    <glyph glyph-name="c" unicode="c" horiz-adv-x="232" 
d="M186 375c57 0 80 -41 57 -95l-9 -22c-11 -27 -43 -19 -33 5c4 7 6 13 10 22c10 24 19 62 -25 62c-50 0 -78 -65 -89 -90l-52 -110c-34 -72 -9 -119 57 -119s114 57 130 87c8 15 33 7 25 -11c-23 -53 -85 -104 -155 -104c-84 0 -135 54 -85 159l54 114
c13 29 49 102 115 102z" />
    <glyph glyph-name="B" unicode="B" horiz-adv-x="807" 
d="M834 447c-1 -85 -53 -149 -117 -185c30 -30 45 -69 45 -109c0 -121 -129 -251 -291 -251c-78 0 -144 30 -207 60c-39 -20 -85 -31 -141 -32c-36 1 -124 11 -124 68c0 30 37 57 86 56c61 -3 118 -31 176 -59c82 49 129 146 179 256l67 148c45 98 90 206 149 234
c-40 17 -87 27 -140 28c-308 0 -449 -209 -449 -356c0 -80 38 -152 116 -182c9 -3 14 -9 12 -14c-1 -7 -7 -14 -17 -14c-2 0 -5 1 -9 2c-88 33 -133 116 -133 209c0 158 155 381 477 382c193 -1 320 -118 321 -241zM588 227c-37 0 -64 20 -65 40c0 28 32 42 65 43
c41 -1 75 -11 102 -27c61 30 112 87 112 164c0 66 -43 131 -116 172c-61 -26 -103 -127 -150 -231l-67 -144c-53 -114 -98 -210 -176 -264c53 -25 110 -47 175 -47c147 0 261 112 261 220c0 38 -14 71 -41 94c-33 -14 -68 -21 -100 -20zM123 -40c40 0 75 7 106 19
c-49 23 -96 43 -146 47c-36 -1 -55 -15 -55 -28c0 -34 70 -38 95 -38zM588 258c21 0 44 3 66 10c-19 7 -40 12 -65 12c-21 -1 -30 -7 -31 -12c-2 -6 14 -10 30 -10z" />
    <glyph glyph-name="y" unicode="y" horiz-adv-x="291" 
d="M-128 -31c21 0 21 -28 0 -28c-44 -3 -66 -42 -66 -70c0 -35 24 -69 89 -69c73 0 147 62 196 170l19 42c-14 -9 -29 -14 -47 -14c-45 0 -76 21 -76 64c0 16 4 32 13 51l113 245c8 19 37 9 28 -12l-113 -245c-7 -15 -11 -30 -11 -39c0 -24 19 -36 46 -36c51 0 83 65 93 87
l112 245c8 19 37 9 28 -12l-172 -376c-52 -115 -127 -198 -229 -198c-85 0 -119 47 -119 97c0 41 35 96 96 98zM198 0c-15 0 -15 28 0 28c56 0 85 70 93 87c8 15 32 7 25 -11c-14 -37 -58 -104 -118 -104z" />
    <glyph glyph-name="e.99" horiz-adv-x="729" 
d="M39 205l32 68c13 29 48 102 115 102c57 0 79 -41 57 -95c-31 -77 -70 -111 -129 -111c-19 0 -39 6 -51 17l-18 -38c-16 -33 -22 -67 -23 -105c1 -131 103 -269 298 -269c213 1 336 156 336 299c0 104 -82 200 -199 200c-109 0 -181 -70 -180 -154c0 -33 12 -48 25 -63
c4 -6 5 -10 6 -13c-1 -8 -9 -15 -17 -14c-24 0 -45 48 -45 92c1 86 78 181 210 182c132 0 231 -104 231 -227c0 -162 -140 -332 -363 -332c-191 0 -332 126 -332 300c0 44 8 82 25 116zM97 257l-22 -45c7 -5 25 -12 38 -12c47 0 75 29 98 85c10 24 19 62 -25 62
c-51 0 -77 -65 -89 -90z" />
    <glyph glyph-name="m" unicode="m" horiz-adv-x="462" 
d="M256 260l-110 -239c-10 -22 -41 -20 -33 0l115 251c7 15 11 30 11 39c0 24 -19 38 -46 36c-44 -4 -74 -50 -88 -76l-76 -167c-15 -32 -58 -104 -122 -104c-21 0 -20 28 0 28c50 0 78 55 93 87l113 246c7 17 33 10 29 -8c15 12 32 20 51 22c41 2 70 -17 75 -52
c20 25 48 49 81 52c46 3 76 -21 76 -64c0 -16 -4 -32 -13 -51l-73 -157c-7 -16 -11 -31 -11 -40c0 -24 15 -35 41 -35c56 0 85 70 93 87c8 15 32 7 25 -11c-14 -37 -58 -104 -118 -104c-44 0 -71 20 -71 63c0 16 4 33 13 52l73 157c7 15 11 30 11 39c0 24 -19 38 -46 36
c-45 -4 -74 -49 -89 -78z" />
    <glyph glyph-name="T" unicode="T" horiz-adv-x="585" 
d="M120 -46c180 -1 246 131 318 291l67 149c38 83 81 173 134 213c-59 16 -117 30 -159 33c-307 18 -441 -188 -441 -343c0 -94 49 -181 144 -219c26 -9 12 -39 -12 -29c-107 45 -162 143 -162 247c0 171 149 389 471 375c123 -5 286 -83 382 -83c87 0 126 44 129 79
c0 21 32 19 29 -3c-4 -46 -60 -105 -158 -105c-47 -1 -119 19 -191 39c-53 -38 -95 -125 -137 -215l-67 -144c-82 -179 -148 -312 -346 -315c-72 0 -131 32 -142 79c-4 21 25 28 30 6c7 -33 54 -55 111 -55z" />
    <glyph glyph-name="o" unicode="o" horiz-adv-x="269" 
d="M63 0c-45 0 -76 21 -76 64c0 16 4 32 13 51l74 158c13 29 51 102 119 102c45 0 76 -21 76 -64c0 -16 -4 -32 -13 -51l-74 -158c-13 -29 -51 -102 -119 -102zM17 64c0 -24 19 -36 46 -36c52 0 82 65 93 90l72 154c7 15 11 30 11 39c0 24 -19 36 -46 36
c-52 0 -82 -65 -93 -90l-72 -154c-7 -15 -11 -30 -11 -39z" />
    <glyph glyph-name="p.3" horiz-adv-x="276" 
d="M-284 -31c21 0 21 -28 0 -28c-44 -3 -66 -42 -66 -70c0 -35 24 -69 89 -69c73 0 147 62 196 170l177 388c7 17 31 10 29 -6c16 12 34 21 55 21c45 0 72 -21 72 -64c0 -16 -4 -32 -13 -51l-74 -158c-13 -29 -51 -102 -119 -102c-33 0 -55 12 -65 35l-29 -63
c-52 -115 -127 -198 -229 -198c-85 0 -119 47 -119 97c0 41 35 96 96 98zM101 262l-72 -155l-6 -14c-5 -11 -7 -22 -7 -29c0 -24 19 -36 46 -36c52 0 82 65 93 90l72 154c7 15 11 30 11 39c0 24 -15 36 -42 36c-49 0 -83 -57 -95 -85zM183 0c-15 0 -15 28 0 28
c56 0 85 70 93 87c8 15 32 7 25 -11c-14 -37 -58 -104 -118 -104z" />
    <glyph glyph-name="a.99" horiz-adv-x="886" 
d="M296 348l-92 -200c-15 -33 -22 -67 -23 -105c1 -131 103 -269 298 -269c213 1 336 156 336 299c0 104 -82 200 -199 200c-109 0 -179 -70 -180 -154c1 -33 12 -48 25 -63c4 -6 5 -10 6 -13c-1 -8 -9 -15 -17 -14c-24 0 -45 48 -45 92c1 86 78 181 210 182
c132 0 231 -104 231 -227c0 -162 -140 -332 -363 -332c-191 0 -332 126 -332 300v12c-19 -28 -48 -56 -88 -56c-45 0 -76 21 -76 64c0 16 4 32 13 51l74 158c13 29 51 102 119 102c30 0 55 -13 65 -36l10 21c8 19 37 9 28 -12zM171 148l60 131c5 13 8 23 8 32
c0 24 -19 36 -46 36c-52 0 -82 -65 -93 -90l-72 -154c-7 -15 -11 -30 -11 -39c0 -24 19 -36 46 -36c47 0 84 71 108 120z" />
    <glyph glyph-name="k" unicode="k" horiz-adv-x="288" 
d="M241 299c4 32 -12 48 -40 48c-45 0 -82 -51 -97 -78l-75 -165c-15 -32 -58 -104 -122 -104c-21 0 -20 28 0 28c50 0 78 55 93 87l215 469c8 19 37 9 28 -12l-102 -222c18 14 39 25 60 25c46 0 75 -27 70 -76c-7 -61 -86 -137 -158 -152c-8 -45 -5 -118 63 -118
c56 0 104 69 112 86c8 15 32 7 25 -11c-14 -37 -77 -104 -137 -104c-118 0 -101 130 -86 175c65 0 144 68 151 124z" />
    <glyph glyph-name="z" unicode="z" horiz-adv-x="299" 
d="M0 115l146 305c9 17 38 7 28 -13c-14 -31 5 -41 21 -41h90c1 2 3 4 3 4c13 15 37 -1 24 -18c0 0 -84 -96 -164 -187c57 -21 59 -101 -3 -216c-61 -112 -137 -175 -233 -175c-85 0 -119 47 -119 97c0 41 35 96 96 98c21 0 21 -28 0 -28c-44 -3 -66 -42 -66 -70
c0 -35 24 -69 89 -69c73 0 149 50 204 155c58 111 58 185 0 185c-5 0 -11 -1 -16 -2c-15 -4 -14 27 5 29c4 0 7 1 11 1h1c53 60 111 128 144 168h-66c-20 0 -35 8 -45 21l-125 -255c-9 -19 -36 -13 -25 11zM206 0c-15 0 -15 28 0 28c56 0 85 70 93 87c8 15 32 7 25 -11
c-14 -37 -58 -104 -118 -104z" />
    <glyph glyph-name="z.1" horiz-adv-x="141" 
 />
    <glyph glyph-name="i.1" horiz-adv-x="151" 
 />
    <glyph glyph-name="i.2" horiz-adv-x="151" 
 />
    <glyph glyph-name="ntilde" unicode="&#xf1;" horiz-adv-x="306" 
d="M163 441c-22 -16 -38 6 -16 23c66 47 90 -26 133 0c22 13 31 -12 15 -23c-57 -40 -86 35 -132 0zM155 115l73 157c7 15 11 30 11 39c0 24 -19 38 -46 36c-44 -4 -74 -50 -88 -76l-76 -167c-15 -32 -58 -104 -122 -104c-21 0 -20 28 0 28c50 0 78 55 93 87l113 246
c7 17 33 10 29 -8c15 12 32 20 51 22c46 3 76 -21 76 -64c0 -16 -4 -32 -13 -51l-73 -157c-7 -16 -11 -31 -11 -40c0 -24 15 -35 41 -35c56 0 85 70 93 87c8 15 32 7 25 -11c-14 -37 -58 -104 -118 -104c-44 0 -71 20 -71 63c0 16 4 33 13 52z" />
    <glyph glyph-name="tilde" unicode="&#x2dc;" horiz-adv-x="251" 
d="M163 441c-22 -16 -38 6 -16 23c66 47 90 -26 133 0c22 13 31 -12 15 -23c-57 -40 -86 35 -132 0z" />
    <glyph glyph-name="atilde" unicode="&#xe3;" 
d="M214 0c-38 0 -63 15 -70 46c-19 -24 -46 -46 -81 -46c-45 0 -76 21 -76 64c0 16 4 32 13 51l74 158c13 29 51 102 119 102c30 0 55 -13 65 -36l10 21c8 19 37 9 28 -12l-112 -245c-7 -16 -11 -31 -11 -40c0 -24 15 -35 41 -35c56 0 85 70 93 87c8 15 32 7 25 -11
c-14 -37 -58 -104 -118 -104zM63 28c45 0 75 50 88 77l77 167c7 16 11 29 11 39c0 24 -19 36 -46 36c-52 0 -82 -65 -93 -90l-72 -154c-7 -15 -11 -30 -11 -39c0 -24 19 -36 46 -36zM192 441c-22 -16 -38 6 -16 23c66 47 90 -26 133 0c22 13 31 -12 15 -23
c-57 -40 -86 35 -132 0z" />
    <glyph glyph-name="j" unicode="j" horiz-adv-x="135" 
d="M42 0c-15 0 -15 28 0 28c56 0 85 70 93 87c8 15 32 7 25 -11c-14 -37 -58 -104 -118 -104zM-284 -31c21 0 21 -28 0 -28c-44 -3 -66 -42 -66 -70c0 -35 24 -69 89 -69c73 0 147 62 196 170l177 388c8 19 37 9 28 -12l-172 -376c-52 -115 -127 -198 -229 -198
c-85 0 -119 47 -119 97c0 41 35 96 96 98zM196 459c-3 -15 -17 -27 -32 -27c-16 0 -25 12 -22 27c2 15 17 28 31 28c15 0 26 -13 23 -28z" />
    <glyph glyph-name="period" unicode="." horiz-adv-x="166" 
d="M95 27c-3 -15 -17 -27 -32 -27c-16 0 -25 12 -22 27c2 15 17 28 31 28c15 0 26 -13 23 -28z" />
    <glyph glyph-name="b.3" horiz-adv-x="276" 
d="M0 115l155 339c53 115 130 205 232 205c85 0 119 -47 119 -97c0 -41 -35 -96 -96 -98c-21 0 -21 28 0 28c44 3 66 42 66 70c0 35 -24 69 -89 69c-73 0 -146 -62 -196 -170l-49 -107c16 13 34 21 54 21c45 0 72 -21 72 -64c0 -16 -4 -32 -13 -51l-74 -158
c-13 -29 -51 -102 -119 -102c-63 0 -93 49 -62 115zM101 262h-1l-73 -159c1 0 -11 -21 -11 -39c0 -24 19 -36 46 -36c52 0 82 65 93 90l72 154c7 15 11 30 11 39c0 24 -15 36 -42 36c-49 0 -83 -57 -95 -85zM183 0c-15 0 -15 28 0 28c56 0 85 70 93 87c8 15 32 7 25 -11
c-14 -37 -58 -104 -118 -104z" />
    <glyph glyph-name="C" unicode="C" horiz-adv-x="718" 
d="M379 -118c-177 0 -289 149 -289 319c0 195 193 464 470 464c140 0 214 -83 214 -162c0 -75 -65 -151 -151 -151s-113 51 -113 99c0 17 4 35 15 49c13 16 35 2 25 -15c-5 -9 -10 -23 -10 -35c0 -34 22 -69 86 -69c66 0 119 58 119 116c0 67 -58 139 -187 139
c-254 0 -438 -249 -438 -434c0 -147 92 -291 259 -291c135 0 230 105 230 200c0 60 -41 115 -105 115c-71 0 -100 -43 -112 -74c-9 -23 -37 -12 -28 12c16 44 62 90 140 90c83 0 135 -65 135 -139c0 -108 -106 -233 -260 -233z" />
    <glyph glyph-name="k.3" horiz-adv-x="288" 
d="M241 299c4 32 -12 48 -40 48c-51 0 -91 -65 -101 -87h-1l-70 -156c-15 -32 -58 -104 -122 -104c-21 0 -20 28 0 28c50 0 78 55 93 87l155 339c53 115 130 205 232 205c85 0 119 -47 119 -97c0 -41 -35 -96 -96 -98c-21 0 -21 28 0 28c44 3 66 42 66 70
c0 35 -24 69 -89 69c-73 0 -146 -62 -196 -170l-52 -113c19 16 40 27 62 27c46 0 75 -27 70 -76c-7 -61 -86 -137 -158 -152c-8 -45 -5 -118 63 -118c56 0 104 69 112 86c8 15 32 7 25 -11c-14 -37 -77 -104 -137 -104c-118 0 -101 130 -86 175c65 0 144 68 151 124z" />
    <glyph glyph-name="r.1" horiz-adv-x="283" 
d="M132 115l75 161c7 15 11 30 11 39c0 24 -13 38 -34 36c-16 0 -28 5 -36 15l-123 -262c-17 -35 -25 -64 -25 -105c0 -37 15 -73 41 -73c23 0 23 -30 0 -30c-48 0 -71 50 -71 103c0 48 21 97 30 116l143 310l3 8c9 17 38 7 28 -13c-14 -31 -6 -41 10 -41
c40 3 64 -21 64 -64c0 -16 -4 -32 -13 -51l-75 -161c-7 -16 -11 -31 -11 -40c0 -24 15 -35 41 -35c56 0 85 70 93 87c8 15 32 7 25 -11c-14 -37 -58 -104 -118 -104c-44 0 -71 20 -71 63c0 16 4 33 13 52z" />
    <glyph glyph-name="F" unicode="F" horiz-adv-x="616" 
d="M120 -46c180 -1 245 132 318 291l22 50h-36c-21 -1 -12 27 9 28h40l32 71c38 83 85 175 139 212c-61 17 -121 32 -164 34c-300 11 -441 -188 -441 -343c0 -94 49 -181 144 -219c26 -9 12 -39 -12 -29c-107 45 -162 143 -162 247c0 171 149 389 471 375
c123 -5 286 -83 382 -83c87 0 126 44 129 79c0 21 32 19 29 -3c-4 -46 -60 -105 -158 -105c-46 -1 -115 18 -185 38c-57 -34 -102 -122 -143 -214l-28 -60h77c19 0 10 -29 -9 -29h-81l-26 -55c-82 -179 -148 -315 -346 -315c-72 0 -131 32 -142 79c-4 21 25 28 30 6
c7 -33 54 -55 111 -55z" />
    <glyph glyph-name="H" unicode="H" horiz-adv-x="918" 
d="M146 -40c179 -1 244 132 317 291l21 48h-32c-20 0 -12 28 9 28h36l33 72c37 82 79 163 124 221c-59 16 -117 34 -175 34c-252 0 -383 -202 -383 -347c0 -93 49 -181 144 -219c10 -4 14 -10 14 -16c0 -7 -7 -14 -16 -14c-3 0 -7 0 -10 2c-107 44 -162 142 -162 247
c0 157 141 378 412 378c67 0 134 -21 199 -38c34 35 70 58 108 58c49 0 75 -22 75 -47c0 -39 -36 -63 -78 -63c-34 0 -66 9 -98 17c-45 -55 -86 -138 -125 -224l-29 -61h333l84 182c53 115 130 205 232 205c85 0 119 -47 119 -97c0 -41 -35 -96 -96 -98c-21 0 -21 28 0 28
c44 3 66 42 66 70c0 35 -24 69 -89 69c-73 0 -147 -62 -196 -170l-106 -233l-89 -194c-7 -16 -11 -31 -11 -40c0 -13 5 -22 13 -28c16 -15 -7 -34 -21 -22c-14 10 -22 27 -22 50c0 16 4 33 13 52l83 182l7 16h-333l-25 -55c-82 -179 -148 -314 -345 -314
c-72 0 -131 32 -142 79c-4 21 25 28 30 6c7 -33 54 -55 111 -55zM782 626c24 0 48 9 48 28c0 12 -11 23 -44 23c-27 0 -52 -15 -77 -38c25 -6 49 -13 73 -13z" />
    <glyph glyph-name="R" unicode="R" horiz-adv-x="932" 
d="M255 -50c170 0 249 149 322 312c21 48 46 101 67 149c4 8 8 20 12 28c30 67 65 140 102 177c-57 32 -126 52 -199 52c-289 0 -392 -192 -392 -330c0 -90 56 -179 144 -219c22 -10 11 -38 -12 -28c-104 45 -162 143 -162 247c0 153 118 360 421 360
c204 0 374 -136 374 -310c1 -155 -129 -271 -255 -287c17 -31 35 -70 52 -108c5 -12 10 -24 16 -36c69 -154 135 -308 312 -308c104 0 159 64 167 124c-1 35 -18 67 -39 86c-12 14 4 30 18 22c37 -24 52 -71 50 -112c-9 -69 -75 -150 -197 -150c-196 0 -269 165 -338 325
l-8 18h1c-20 46 -40 93 -66 135c-3 5 -11 25 10 32c118 3 246 112 247 260c0 84 -44 158 -117 209c-40 -36 -75 -110 -102 -173c-3 -6 -10 -19 -12 -25l-64 -144c-78 -175 -160 -332 -352 -336c-69 1 -123 34 -137 79c-7 23 22 29 30 7c11 -31 54 -56 107 -56z" />
    <glyph glyph-name="g.9" horiz-adv-x="524" 
d="M-170 -311c-59 0 -83 39 -83 69c0 105 145 135 323 171l40 87c-13 -10 -29 -16 -47 -16c-45 0 -76 21 -76 64c0 16 4 32 13 51l74 158c13 29 51 102 119 102c30 0 55 -13 65 -36l10 21c8 19 37 9 28 -12l-189 -411l26 5c153 32 299 113 299 228c0 25 -3 51 -30 72
c-19 15 1 35 20 21c27 -20 40 -57 40 -93c0 -129 -163 -226 -326 -257l-44 -8c-52 -105 -129 -216 -262 -216zM63 28c40 0 70 39 86 73l82 178c5 13 8 23 8 32c0 24 -19 36 -46 36c-52 0 -82 -65 -93 -90l-72 -154c-7 -15 -11 -30 -11 -39c0 -24 19 -36 46 -36zM-170 -283
c104 0 176 89 225 181c-154 -31 -278 -64 -278 -140c0 -16 13 -40 53 -41z" />
    <glyph glyph-name="b.6" horiz-adv-x="276" 
d="M0 115l142 313c28 62 61 113 99 153c-65 34 -128 65 -189 65c-83 0 -131 -60 -131 -109c0 -9 3 -29 10 -41c10 -22 -20 -30 -28 -8c-8 14 -12 30 -12 49c0 63 60 139 161 139c74 0 144 -35 212 -73c58 52 130 79 220 79c97 0 141 -46 141 -94c0 -56 -46 -103 -128 -103
c-77 0 -154 41 -230 82c-35 -35 -66 -81 -92 -139l-33 -74c16 12 33 21 54 21c45 0 72 -21 72 -64c0 -16 -4 -32 -13 -51l-74 -158c-13 -29 -51 -102 -119 -102c-63 0 -93 49 -62 115zM100 262l-73 -159c1 0 -11 -21 -11 -39c0 -24 19 -36 46 -36c52 0 82 65 93 90l72 154
c7 15 11 30 11 39c0 24 -15 36 -42 36c-49 0 -83 -57 -95 -85h-1zM483 654c-75 0 -138 -22 -192 -66c68 -38 136 -73 206 -73c62 0 98 33 98 73c0 34 -35 66 -112 66zM183 0c-15 0 -15 28 0 28c56 0 85 70 93 87c8 15 32 7 25 -11c-14 -37 -58 -104 -118 -104z" />
    <glyph glyph-name="r" unicode="r" horiz-adv-x="283" 
d="M132 115l75 161c7 15 11 30 11 39c0 24 -13 38 -34 36c-16 0 -28 5 -36 15l-123 -262c-9 -19 -36 -13 -25 11l143 310l3 8c9 17 38 7 28 -13c-14 -31 -6 -41 10 -41c40 3 64 -21 64 -64c0 -16 -4 -32 -13 -51l-75 -161c-7 -16 -11 -31 -11 -40c0 -24 15 -35 41 -35
c56 0 85 70 93 87c8 15 32 7 25 -11c-14 -37 -58 -104 -118 -104c-44 0 -71 20 -71 63c0 16 4 33 13 52z" />
    <glyph glyph-name="t" unicode="t" horiz-adv-x="159" 
d="M192 342h-55l-109 -239c-7 -16 -11 -31 -11 -40c0 -24 19 -35 49 -35c56 0 85 70 93 87c8 15 32 7 25 -11c-14 -37 -58 -104 -118 -104c-48 0 -79 20 -79 63c0 16 4 33 13 52l104 227h-29c-20 0 -12 28 9 28h32l49 106c8 19 37 9 28 -12l-43 -94h51c19 0 10 -28 -9 -28z
" />
    <glyph glyph-name="comma" unicode="," horiz-adv-x="155" 
d="M78 72c28 0 38 -29 23 -57c-20 -36 -46 -64 -86 -88c-21 -11 -27 13 -12 18c22 9 48 33 63 55c-16 4 -31 18 -28 36c2 20 22 36 40 36z" />
    <glyph glyph-name="semicolon" unicode=";" horiz-adv-x="211" 
d="M78 72c28 0 38 -29 23 -57c-20 -36 -46 -64 -86 -88c-21 -11 -27 13 -12 18c22 9 48 33 63 55c-16 4 -31 18 -28 36c2 20 22 36 40 36zM220 338c-4 -19 -22 -35 -42 -35s-32 16 -28 35c2 20 22 36 40 36c20 0 34 -16 30 -36z" />
    <glyph glyph-name="colon" unicode=":" horiz-adv-x="211" 
d="M220 338c-4 -19 -22 -35 -42 -35s-32 16 -28 35c2 20 22 36 40 36c20 0 34 -16 30 -36zM107 36c-4 -19 -22 -35 -42 -35s-32 16 -28 35c2 20 22 36 40 36c20 0 34 -16 30 -36z" />
    <glyph glyph-name="quoteright" unicode="&#x2019;" horiz-adv-x="193" 
d="M241 595c28 0 38 -29 23 -57c-20 -36 -46 -64 -86 -88c-21 -11 -27 13 -12 18c22 9 48 33 63 55c-16 4 -31 18 -28 36c2 20 22 36 40 36z" />
    <glyph glyph-name="I" unicode="I" horiz-adv-x="580" 
d="M578 670c36 0 81 -5 124 -20c21 -7 27 -16 27 -25c0 -7 -4 -15 -8 -19c-82 -80 -130 -155 -199 -302c-76 -160 -173 -364 -370 -364c-66 0 -125 28 -139 71c-7 22 20 35 28 12c10 -30 54 -53 111 -53c165 0 257 164 321 301v-1l40 87c46 100 129 220 183 264
c-1 -1 -7 2 -13 4c-33 10 -68 14 -105 14c-136 0 -237 -106 -237 -244c0 -21 3 -44 9 -64c5 -16 0 -28 -12 -28c-7 0 -13 7 -17 16c-8 25 -12 52 -12 77c0 151 117 274 269 274z" />
    <glyph glyph-name="J" unicode="J" horiz-adv-x="580" 
d="M578 670c36 0 81 -5 124 -20c21 -7 27 -16 27 -25c0 -7 -4 -15 -8 -19c-82 -80 -130 -155 -199 -302v1c-11 -24 -24 -48 -35 -72l-34 -73c-73 -154 -170 -332 -355 -332c-66 0 -124 28 -139 71c-7 20 20 34 28 12c10 -30 54 -53 111 -53c165 0 257 164 321 301l94 199
c45 98 130 219 183 263c-21 7 -77 18 -118 18c-136 0 -237 -106 -237 -244c0 -21 3 -43 9 -64c7 -15 -2 -28 -14 -28c-7 0 -11 6 -15 15c-8 25 -12 52 -12 77c0 151 117 275 269 275z" />
    <glyph glyph-name="r.5" horiz-adv-x="283" 
d="M132 115l75 161c7 15 11 30 11 39c0 24 -13 38 -34 36c-16 0 -28 5 -36 15l-123 -262c-9 -19 -36 -13 -25 11l143 310l3 8c9 17 38 7 28 -13c-14 -31 -6 -41 10 -41c40 3 64 -21 64 -64c0 -16 -4 -32 -13 -51l-75 -161c-7 -16 -11 -31 -11 -40c0 -24 15 -35 41 -35
c56 0 85 70 93 87c8 15 32 7 25 -11c-14 -37 -58 -104 -118 -104c-44 0 -71 20 -71 63c0 16 4 33 13 52z" />
    <glyph glyph-name="g" unicode="g" horiz-adv-x="291" 
d="M-128 -31c21 0 21 -28 0 -28c-44 -3 -66 -42 -66 -70c0 -35 24 -69 89 -69c73 0 147 62 196 170l20 45c-13 -11 -29 -17 -48 -17c-45 0 -76 21 -76 64c0 16 4 32 13 51l74 158c13 29 51 102 119 102c30 0 55 -13 65 -36l10 21c8 19 37 9 28 -12l-172 -376
c-52 -115 -127 -198 -229 -198c-85 0 -119 47 -119 97c0 41 35 96 96 98zM63 28c45 0 75 50 88 77l77 167c7 16 11 29 11 39c0 24 -19 36 -46 36c-52 0 -82 -65 -93 -90l-72 -154c-7 -15 -11 -30 -11 -39c0 -24 19 -36 46 -36zM198 0c-15 0 -15 28 0 28c56 0 85 70 93 87
c8 15 32 7 25 -11c-14 -37 -58 -104 -118 -104z" />
    <glyph glyph-name="g.6" horiz-adv-x="291" 
d="M-212 -272c-97 0 -141 46 -141 94c0 56 46 103 128 103c75 0 155 -38 233 -76c30 29 54 63 71 98l32 69c-14 -10 -30 -16 -48 -16c-45 0 -76 21 -76 64c0 16 4 32 13 51l74 158c13 29 51 102 119 102c30 0 55 -13 65 -36l10 21c8 19 37 9 28 -12l-184 -401
c-19 -39 -44 -78 -77 -112c71 -34 139 -65 203 -65c83 0 131 60 131 109c0 24 30 24 30 0c0 -63 -60 -139 -161 -139c-76 0 -152 36 -226 73c-57 -50 -131 -85 -224 -85zM63 28c45 0 75 50 88 77l5 10l72 157c7 16 11 29 11 39c0 24 -19 36 -46 36c-52 0 -82 -65 -93 -90
l-72 -154c-7 -15 -11 -30 -11 -39c0 -24 19 -36 46 -36zM-212 -244c77 0 144 29 196 71c-71 36 -141 68 -209 68c-62 0 -98 -33 -98 -73c0 -34 35 -65 111 -66zM198 0c-15 0 -15 28 0 28c56 0 85 70 93 87c8 15 32 7 25 -11c-14 -37 -58 -104 -118 -104z" />
    <glyph glyph-name="z.6" horiz-adv-x="299" 
d="M0 115l143 298l3 7c9 17 38 7 28 -13c-14 -31 5 -41 21 -41h90c1 2 3 4 3 4c13 15 37 -1 24 -18c0 0 -84 -96 -164 -187c82 -30 11 -183 -23 -238c-16 -26 -33 -49 -53 -70c68 -33 134 -62 196 -62c83 0 131 60 131 109c0 24 30 24 30 0c0 -63 -60 -139 -161 -139
c-74 0 -148 34 -220 70c-60 -52 -138 -82 -231 -82c-96 1 -140 46 -140 94c0 56 46 103 128 103c77 0 159 -40 239 -79c21 20 39 43 55 69c51 83 88 202 17 202c-5 0 -11 -1 -16 -2c-15 -4 -14 27 5 29c4 0 7 1 11 1h1c53 60 111 128 144 168h-66c-20 0 -35 8 -45 21
l-125 -255c-9 -19 -36 -13 -25 11zM-183 -219c78 0 147 25 202 68c-72 37 -144 71 -214 71c-62 0 -98 -33 -98 -73c0 -33 35 -65 110 -66zM206 0c-15 0 -15 28 0 28c56 0 85 70 93 87c8 15 32 7 25 -11c-14 -37 -58 -104 -118 -104z" />
    <glyph glyph-name="h.6" horiz-adv-x="281" 
d="M256 260l-132 -288c-19 -39 -44 -78 -77 -112c71 -34 139 -65 203 -65c83 0 131 60 131 109c0 24 30 24 30 0c0 -63 -60 -139 -161 -139c-76 0 -152 36 -226 73c-57 -50 -131 -85 -224 -85c-97 0 -141 46 -141 94c0 56 46 103 128 103c75 0 155 -38 233 -76
c30 29 54 63 71 98l137 300c7 15 11 30 11 39c0 24 -19 36 -46 36c-43 0 -73 -46 -87 -74l-77 -169c-15 -32 -58 -104 -122 -104c-21 0 -20 28 0 28c50 0 78 55 93 87l215 469c8 19 37 9 28 -12l-98 -215c14 11 30 18 48 18c45 0 76 -21 76 -64c0 -16 -4 -32 -13 -51z
M-199 -219c77 0 143 29 195 71c-71 36 -141 68 -209 68c-62 0 -98 -33 -98 -73c0 -34 35 -66 112 -66z" />
    <glyph glyph-name="h.3" horiz-adv-x="306" 
d="M155 115l73 157c7 15 11 30 11 39c0 24 -19 36 -46 36c-51 0 -83 -65 -94 -87l-70 -156c-15 -32 -58 -104 -122 -104c-21 0 -20 28 0 28c50 0 78 55 93 87l155 339c53 115 130 205 232 205c85 0 119 -47 119 -97c0 -41 -35 -96 -96 -98c-21 0 -21 28 0 28
c44 3 66 42 66 70c0 35 -24 69 -89 69c-73 0 -146 -62 -196 -170l-48 -105c15 11 32 19 50 19c45 0 76 -21 76 -64c0 -16 -4 -32 -13 -51l-73 -157c-7 -16 -11 -31 -11 -40c0 -24 15 -35 41 -35c56 0 85 70 93 87c8 15 32 7 25 -11c-14 -37 -58 -104 -118 -104
c-44 0 -71 20 -71 63c0 16 4 33 13 52z" />
    <glyph glyph-name="l.6" horiz-adv-x="151" 
d="M0 115l142 313c27 63 59 114 97 154c-63 34 -126 64 -187 64c-83 0 -131 -60 -131 -109c0 -9 3 -29 10 -41c10 -22 -20 -30 -28 -8c-8 14 -12 30 -12 49c0 63 60 139 161 139c73 0 143 -35 210 -72c59 52 132 78 222 78c97 0 141 -46 141 -94c0 -56 -46 -103 -128 -103
c-77 0 -153 41 -228 82c-37 -36 -68 -84 -95 -143l-146 -321c-7 -16 -11 -31 -11 -40c0 -24 15 -35 41 -35c56 0 85 70 93 87c8 15 32 7 25 -11c-14 -37 -58 -104 -118 -104c-44 0 -71 20 -71 63c0 16 4 33 13 52zM483 654c-74 0 -137 -22 -191 -66c68 -38 135 -73 205 -73
c62 0 98 33 98 73c0 34 -35 66 -112 66z" />
    <glyph glyph-name="h.66" horiz-adv-x="306" 
d="M155 115l73 157c7 15 11 30 11 39c0 24 -19 36 -46 36c-51 0 -83 -65 -93 -87h-1l-70 -156c-15 -32 -58 -104 -122 -104c-21 0 -20 28 0 28c50 0 78 55 93 87l142 313c27 63 59 114 97 154c-63 34 -126 64 -187 64c-83 0 -131 -60 -131 -109c0 -9 3 -29 10 -41
c10 -22 -20 -30 -28 -8c-8 14 -12 30 -12 49c0 63 60 139 161 139c73 0 143 -35 210 -72c59 52 132 78 222 78c97 0 141 -46 141 -94c0 -56 -46 -103 -128 -103c-77 0 -153 41 -228 82c-37 -36 -68 -84 -95 -143l-31 -68c15 11 32 19 50 19c45 0 76 -21 76 -64
c0 -16 -4 -32 -13 -51l-73 -157c-7 -16 -11 -31 -11 -40c0 -24 15 -35 41 -35c56 0 85 70 93 87c8 15 32 7 25 -11c-14 -37 -58 -104 -118 -104c-44 0 -71 20 -71 63c0 16 4 33 13 52zM484 654c-74 0 -138 -22 -192 -66c68 -38 135 -73 205 -73c62 0 98 33 98 73
c0 34 -35 65 -111 66z" />
    <glyph glyph-name="K" unicode="K" horiz-adv-x="861" 
d="M143 -61c19 0 39 3 56 7c-90 74 -142 183 -142 296c0 239 214 425 453 425c69 0 123 -15 167 -37c16 -10 20 -22 7 -36c-32 -34 -81 -107 -121 -197l-31 -67c-17 -36 -34 -73 -49 -108c-58 -123 -116 -235 -219 -286c33 -20 71 -36 113 -47c21 -5 14 -34 -12 -27
c-47 13 -94 34 -134 60c-25 -8 -57 -13 -88 -14c-66 2 -121 37 -135 78c-5 16 24 26 29 11c10 -32 51 -57 106 -58zM87 242c0 -111 54 -217 148 -286c111 43 172 167 219 273c25 58 55 120 80 178c35 77 78 149 118 197c-35 21 -84 33 -142 33c-222 0 -423 -166 -423 -395z
M560 166c-9 16 -14 35 13 38c99 13 192 142 278 262c85 120 171 239 263 239c15 0 33 -4 50 -11c21 -8 9 -37 -14 -27c-11 5 -24 8 -36 8c-75 0 -159 -114 -239 -227c-82 -114 -185 -246 -286 -272c30 -50 47 -103 69 -160c66 -165 145 -349 331 -349c105 0 159 64 168 124
c-1 36 -17 68 -39 86c-16 14 3 33 19 23c38 -25 53 -68 49 -113c-7 -71 -69 -150 -197 -150c-215 0 -288 188 -357 364c-23 61 -45 119 -72 165z" />
    <glyph glyph-name="A_f_f" horiz-adv-x="1292" 
d="M812 107l67 147h-251c-1 -1 -1 -2 -1 -2c-95 -168 -243 -332 -434 -332c-151 0 -278 108 -278 264c0 136 106 264 266 264c136 0 203 -78 203 -170c0 -34 -16 -71 -44 -98c-19 -15 -41 2 -21 21c23 21 35 50 35 77c0 77 -57 140 -175 140c-142 0 -234 -112 -234 -234
c0 -139 122 -234 248 -234c181 0 317 161 408 318c152 263 360 428 597 432h9c58 0 92 -22 107 -52c19 7 38 11 59 11c33 0 57 -8 75 -20c24 13 50 20 79 20c85 0 119 -47 119 -97c0 -41 -35 -96 -96 -98c-21 0 -21 28 0 28c44 3 66 42 66 70c0 35 -24 69 -89 69
c-73 0 -146 -62 -196 -170l-42 -91h64c19 0 10 -28 -9 -28h-68l-165 -360c-68 -167 -182 -216 -277 -227c-42 -48 -93 -78 -154 -78c-76 0 -100 28 -100 57c0 25 23 54 102 54c21 0 75 -11 138 -5c15 19 30 41 43 66c-7 -1 -14 -2 -19 -2c-103 0 -93 129 -58 204zM845 107
l-31 -68c-27 -58 -43 -162 33 -162c6 0 13 1 21 3c4 2 8 2 11 1l211 461h-19c-20 0 -12 28 9 28h22l39 84c37 80 85 148 146 182c-12 20 -37 36 -80 36c-65 0 -133 -85 -184 -190l-110 -228zM1116 663c-187 -35 -348 -176 -472 -382h248l95 194c36 74 78 146 129 188z
M909 -125c-14 -31 -30 -59 -47 -85c80 18 168 71 223 208l158 344h-121zM1177 461l-42 -91h121l39 84c32 71 74 132 125 169c-12 5 -28 8 -47 8c-73 0 -146 -62 -196 -170zM680 -295c37 0 74 17 109 47c-50 -1 -90 6 -107 6c-58 0 -72 -14 -72 -24c0 -14 15 -29 70 -29z" />
    <glyph glyph-name="s.1" horiz-adv-x="254" 
d="M0 115l136 295c8 19 38 9 28 -12l-5 -11c-6 -14 -10 -28 -11 -41c-5 -66 40 -127 36 -191c-7 -80 -73 -157 -157 -157c-10 0 -19 1 -27 2v-1c0 -37 15 -73 41 -73c23 0 23 -30 0 -30c-48 0 -71 50 -71 103c0 4 0 9 1 13c-9 6 -17 12 -23 19c-11 12 7 34 23 20
c2 -2 3 -4 5 -5c7 30 18 56 24 69zM154 154c4 51 -26 96 -35 149l-94 -199c-12 -25 -20 -47 -23 -73c8 -2 18 -3 28 -3c66 0 119 56 124 126zM161 0c-15 0 -15 28 0 28c56 0 85 70 93 87c8 15 32 7 25 -11c-14 -37 -58 -104 -118 -104z" />
    <glyph glyph-name="y.6" horiz-adv-x="291" 
d="M141 348l-113 -245c-7 -15 -11 -30 -11 -39c0 -24 19 -36 46 -36c51 0 83 65 93 87l112 245c8 19 37 9 28 -12l-172 -376c-19 -39 -44 -78 -77 -112c71 -34 139 -65 203 -65c83 0 131 60 131 109c0 24 30 24 30 0c0 -63 -60 -139 -161 -139c-76 0 -152 36 -226 73
c-57 -50 -131 -85 -224 -85c-97 0 -141 46 -141 94c0 56 46 103 128 103c75 0 155 -38 233 -76c30 29 54 63 71 98l19 42c-14 -9 -29 -14 -47 -14c-45 0 -76 21 -76 64c0 16 4 32 13 51l113 245c8 19 37 9 28 -12zM-200 -219c77 0 144 29 196 71c-71 36 -141 68 -209 68
c-62 0 -98 -33 -98 -73c0 -34 35 -65 111 -66zM198 0c-15 0 -15 28 0 28c56 0 85 70 93 87c8 15 32 7 25 -11c-14 -37 -58 -104 -118 -104z" />
    <glyph glyph-name="S" unicode="S" horiz-adv-x="761" 
d="M374 -96c-163 0 -296 110 -296 270c0 144 108 276 272 276c136 0 203 -78 203 -170c0 -34 -16 -71 -44 -98c-19 -15 -41 2 -21 21c23 21 35 50 35 77c0 77 -57 140 -175 140c-146 0 -240 -116 -240 -246c0 -143 128 -240 266 -240c142 0 301 106 301 293
c0 96 -62 190 -62 293c0 108 93 167 164 167c58 0 123 -36 123 -109c0 -41 -35 -96 -96 -98c-22 0 -22 28 0 28c44 3 66 42 66 70c0 46 -40 81 -92 81c-59 0 -135 -50 -135 -139c0 -101 62 -183 62 -293c0 -207 -175 -323 -331 -323z" />
    <glyph glyph-name="f" unicode="f" horiz-adv-x="156" 
d="M203 342h-66l-169 -370c-52 -115 -127 -198 -229 -198c-85 0 -119 47 -119 97c0 41 35 96 96 98c21 0 21 -28 0 -28c-44 -3 -66 -42 -66 -70c0 -35 24 -69 89 -69c73 0 147 62 196 170l169 370h-18c-20 0 -12 28 9 28h22l39 84c53 115 130 205 232 205
c85 0 119 -47 119 -97c0 -41 -35 -96 -96 -98c-21 0 -21 28 0 28c44 3 66 42 66 70c0 35 -24 69 -89 69c-73 0 -146 -62 -196 -170l-42 -91h62c19 0 10 -28 -9 -28z" />
    <glyph glyph-name="e.9" horiz-adv-x="485" 
d="M324 134c-21 19 8 38 24 18c19 -24 28 -57 28 -89c0 -103 -93 -189 -201 -189c-119 0 -185 89 -185 177c0 30 7 62 21 92l61 129c12 30 49 104 114 103c59 -1 77 -35 57 -96c-22 -67 -73 -112 -129 -111c-20 1 -38 6 -50 17l-25 -54c-12 -26 -18 -53 -18 -78
c0 -74 56 -150 157 -150c85 0 170 68 170 160c0 26 -7 52 -24 71zM211 284c13 32 16 62 -25 62c-51 0 -77 -65 -89 -90l-21 -44c7 -5 24 -11 37 -12c37 -4 76 27 98 84z" />
    <glyph glyph-name="a.9" horiz-adv-x="578" 
d="M296 348l-100 -217c-12 -26 -18 -53 -18 -78c0 -74 56 -150 157 -150c85 0 170 68 170 160c0 26 -7 52 -24 71c-21 19 8 38 24 18c19 -24 28 -57 28 -89c0 -103 -93 -189 -201 -189c-119 0 -185 89 -185 176c-19 -26 -47 -50 -84 -50c-45 0 -76 21 -76 64
c0 16 4 32 13 51l74 158c13 29 51 102 119 102c30 0 55 -13 65 -36l10 21c8 19 37 9 28 -12zM164 135l64 137c7 16 11 29 11 39c0 24 -19 36 -46 36c-52 0 -82 -65 -93 -90l-72 -154c-7 -15 -11 -30 -11 -39c0 -24 19 -36 46 -36c43 0 78 59 101 107z" />
    <glyph glyph-name="D" unicode="D" horiz-adv-x="974" 
d="M515 688c288 0 431 -169 431 -344c0 -221 -188 -423 -450 -423c-70 0 -141 30 -212 59c-43 -26 -94 -41 -161 -42c-36 1 -124 11 -124 68c0 30 37 55 86 55c65 0 129 -24 193 -49c72 50 115 137 162 239l71 161c37 82 87 193 141 230c-41 10 -86 16 -137 16
c-308 0 -448 -207 -448 -353c0 -80 38 -152 116 -182c9 -3 14 -9 12 -14c-1 -7 -7 -14 -17 -14c-2 0 -5 1 -9 2c-88 33 -133 116 -133 209c0 158 157 381 479 382zM914 344c0 121 -74 240 -229 289c-69 -45 -104 -141 -145 -232l-71 -157c-48 -105 -91 -191 -158 -245
c63 -25 124 -48 185 -48c243 0 418 186 418 393zM123 -32c49 0 90 9 124 26c-55 21 -110 40 -164 40c-36 0 -55 -15 -55 -28c0 -34 70 -38 95 -38z" />
    <glyph glyph-name="p" unicode="p" horiz-adv-x="276" 
d="M-159 -231l271 591c7 17 31 10 29 -6c16 12 34 21 55 21c45 0 72 -21 72 -64c0 -16 -4 -32 -13 -51l-74 -158c-13 -29 -51 -102 -119 -102c-33 0 -55 12 -65 36l-128 -279c-8 -19 -37 -9 -28 12zM196 347c-44 0 -77 -46 -96 -86l-79 -173c-3 -10 -5 -18 -5 -24
c0 -24 19 -36 46 -36c52 0 82 65 93 90l72 154c7 15 11 30 11 39c0 24 -15 36 -42 36zM183 0c-15 0 -15 28 0 28c56 0 85 70 93 87c8 15 32 7 25 -11c-14 -37 -58 -104 -118 -104z" />
    <glyph glyph-name="k.6" horiz-adv-x="288" 
d="M241 299c4 32 -12 48 -40 48c-51 0 -91 -65 -101 -87h-1l-70 -156c-15 -32 -58 -104 -122 -104c-21 0 -20 28 0 28c50 0 78 55 93 87l142 313c27 63 59 114 97 154c-63 34 -126 64 -187 64c-83 0 -131 -60 -131 -109c0 -9 3 -29 10 -41c10 -22 -20 -30 -28 -8
c-8 14 -12 30 -12 49c0 63 60 139 161 139c73 0 143 -35 210 -72c59 52 132 78 222 78c97 0 141 -46 141 -94c0 -56 -46 -103 -128 -103c-77 0 -153 41 -228 82c-37 -36 -68 -84 -95 -143l-35 -76c19 16 40 27 62 27c46 0 75 -27 70 -76c-7 -61 -86 -137 -158 -152
c-8 -45 -5 -118 63 -118c56 0 104 69 112 86c8 15 32 7 25 -11c-14 -37 -77 -104 -137 -104c-118 0 -101 130 -86 175c65 0 144 68 151 124zM484 654c-74 0 -138 -22 -192 -66c68 -38 135 -73 205 -73c62 0 98 33 98 73c0 34 -35 65 -111 66z" />
    <glyph glyph-name="s" unicode="s" horiz-adv-x="254" 
d="M-17 6c-14 6 -26 15 -35 25c-11 12 7 34 23 20c7 -8 17 -15 30 -19c9 -3 19 -4 29 -4c66 0 119 56 124 126c4 51 -26 96 -35 149l-94 -199c-10 -22 -34 -8 -25 11l136 295c8 19 38 9 28 -12l-5 -11c-6 -14 -10 -28 -11 -41c-5 -66 40 -127 36 -191
c-7 -80 -73 -157 -157 -157c-16 0 -31 3 -44 8zM161 0c-15 0 -15 28 0 28c56 0 85 70 93 87c8 15 32 7 25 -11c-14 -37 -58 -104 -118 -104z" />
    <glyph glyph-name="b" unicode="b" horiz-adv-x="276" 
d="M0 115l215 469c8 19 38 9 28 -12l-100 -217c16 12 33 20 53 20c45 0 72 -21 72 -64c0 -16 -4 -32 -13 -51l-74 -158c-13 -29 -51 -102 -119 -102c-63 0 -93 49 -62 115zM27 103c-6 -13 -11 -21 -11 -39c0 -24 19 -36 46 -36c52 0 82 65 93 90l72 154c7 15 11 30 11 39
c0 24 -15 36 -42 36c-49 0 -83 -57 -95 -85h-1zM183 0c-15 0 -15 28 0 28c56 0 85 70 93 87c8 15 32 7 25 -11c-14 -37 -58 -104 -118 -104z" />
    <glyph glyph-name="V" unicode="V" horiz-adv-x="728" 
d="M742 645c47 -90 10 -269 -15 -331c-70 -177 -241 -369 -380 -369c-130 0 -145 123 -100 216l131 284c40 87 39 192 -66 240c-90 42 -205 16 -248 -79c-32 -67 -2 -145 54 -172c44 -19 118 -18 139 38c8 28 35 10 29 -9c-23 -70 -119 -83 -179 -54
c-72 33 -107 126 -71 208c48 105 178 145 288 95c103 -47 139 -153 80 -278l-131 -285c-32 -70 -36 -175 74 -175c128 0 282 179 352 348c24 59 64 216 19 312c-7 15 14 30 24 11z" />
    <glyph glyph-name="y.9" horiz-adv-x="518" 
d="M-170 -311c-59 0 -83 39 -83 69c0 105 145 135 323 171l39 84c-13 -8 -29 -13 -46 -13c-45 0 -76 21 -76 64c0 16 4 32 13 51l113 245c8 19 37 9 28 -12l-113 -245c-7 -15 -11 -30 -11 -39c0 -24 19 -36 46 -36c44 0 74 49 88 76l117 256c8 19 37 9 28 -12l-189 -411
l26 5c153 32 299 113 299 228c0 25 -3 51 -30 72c-19 15 1 35 20 21c27 -20 40 -57 40 -93c0 -129 -163 -226 -326 -257l-44 -8c-52 -105 -129 -216 -262 -216zM-170 -283c104 0 176 89 225 181c-154 -31 -278 -64 -278 -140c0 -16 13 -41 53 -41z" />
    <glyph glyph-name="n.0" horiz-adv-x="306" 
d="M155 115l73 157c7 15 11 30 11 39c0 24 -19 38 -46 36c-51 -4 -83 -65 -94 -87l-74 -156c-9 -19 -35 -11 -25 11l113 246c7 17 33 10 29 -8c15 12 32 20 51 22c46 3 76 -21 76 -64c0 -16 -4 -32 -13 -51l-73 -157c-7 -16 -11 -31 -11 -40c0 -24 15 -35 41 -35
c56 0 85 70 93 87c8 15 32 7 25 -11c-14 -37 -58 -104 -118 -104c-44 0 -71 20 -71 63c0 16 4 33 13 52z" />
    <glyph glyph-name="f.6" horiz-adv-x="156" 
d="M192 461l-42 -91h62c19 0 10 -28 -9 -28h-66l-169 -370c-22 -49 -55 -94 -98 -130c66 -29 131 -54 195 -54c90 0 142 53 142 97c0 8 -3 26 -10 37c-11 20 21 27 30 7c9 -13 13 -27 13 -44c0 -58 -65 -127 -175 -127c-78 0 -151 30 -223 63c-61 -42 -140 -68 -236 -68
c-111 1 -166 46 -166 93c0 48 51 88 141 88c87 0 174 -40 260 -79c41 32 73 72 94 117l169 370h-18c-20 0 -12 28 9 28h22l39 84c53 115 130 205 232 205c85 0 119 -47 119 -97c0 -41 -35 -96 -96 -98c-21 0 -21 28 0 28c44 3 66 42 66 70c0 35 -24 69 -89 69
c-73 0 -146 -62 -196 -170zM-394 -219c79 0 149 20 206 54c-77 36 -153 70 -231 70c-68 0 -108 -26 -108 -59s43 -65 133 -65z" />
    <glyph glyph-name="m.0" horiz-adv-x="462" 
d="M311 115l73 157c7 15 11 30 11 39c0 24 -19 38 -46 36c-45 -4 -75 -50 -89 -78l-117 -254c-10 -22 -41 -20 -33 0l118 257c7 15 11 30 11 39c0 24 -19 38 -46 36c-46 -4 -77 -53 -90 -79l-78 -164c-9 -19 -35 -11 -25 11l113 246c7 17 33 10 29 -8c15 12 32 20 51 22
c41 2 70 -17 75 -52c20 25 48 49 81 52c46 3 76 -21 76 -64c0 -16 -4 -32 -13 -51l-73 -157c-7 -16 -11 -31 -11 -40c0 -24 15 -35 41 -35c56 0 85 70 93 87c8 15 32 7 25 -11c-14 -37 -58 -104 -118 -104c-44 0 -71 20 -71 63c0 16 4 33 13 52z" />
    <glyph glyph-name="h.0" horiz-adv-x="306" 
d="M155 115l73 157c7 15 11 30 11 39c0 24 -19 36 -46 36c-44 0 -77 -51 -91 -78l-77 -165c-7 -17 -36 -13 -25 11l215 469c8 19 39 9 29 -12l-102 -217c16 12 33 20 51 20c45 0 76 -21 76 -64c0 -16 -4 -32 -13 -51l-73 -157c-7 -16 -11 -31 -11 -40c0 -24 15 -35 41 -35
c56 0 85 70 93 87c8 15 32 7 25 -11c-14 -37 -58 -104 -118 -104c-44 0 -71 20 -71 63c0 16 4 33 13 52z" />
    <glyph glyph-name="k.0" horiz-adv-x="288" 
d="M0 115l215 469c8 19 39 9 29 -12l-104 -223c18 15 39 26 61 26c46 0 75 -27 70 -76c-7 -61 -86 -137 -158 -152c-8 -45 -5 -118 63 -118c56 0 104 69 112 86c8 15 32 7 25 -11c-14 -37 -77 -104 -137 -104c-118 0 -101 130 -86 175c65 0 144 68 151 124
c4 32 -12 48 -40 48c-44 0 -82 -49 -98 -77l-78 -166c-7 -17 -36 -13 -25 11z" />
    <glyph glyph-name="o.99" horiz-adv-x="857" 
d="M88 231l-60 -128c-7 -15 -11 -30 -11 -39c0 -24 19 -36 46 -36c52 0 82 65 93 90l68 144c7 15 11 30 11 39c0 20 -13 32 -33 35c-18 2 -10 30 15 26c29 -7 48 -28 48 -61c0 -16 -4 -32 -13 -51l-70 -148c-13 -29 -51 -102 -119 -102c-45 0 -76 21 -76 64c0 16 4 32 13 51
l55 116c84 177 242 255 411 248c151 -6 278 -108 278 -264c0 -136 -106 -264 -266 -264c-136 0 -203 78 -203 170c0 34 16 71 44 98c19 15 41 -2 21 -21c-23 -21 -35 -50 -35 -77c0 -77 57 -140 175 -140c142 0 234 112 234 234c0 139 -122 231 -248 234
c-160 4 -302 -57 -378 -218z" />
    <glyph glyph-name="v" unicode="v" horiz-adv-x="273" 
d="M198 125c-17 -46 -72 -125 -143 -125c-41 0 -68 21 -68 64c0 16 4 32 13 51l113 245c8 19 37 9 28 -12l-113 -245c-7 -15 -11 -30 -11 -39c0 -24 15 -36 38 -36c57 0 100 75 110 97l30 67c23 54 51 114 26 154c-11 18 14 33 24 18c34 -54 3 -127 -21 -181z" />
    <glyph glyph-name="G" unicode="G" horiz-adv-x="649" 
d="M489 532c17 18 37 -2 22 -15c-9 -10 -14 -24 -15 -38c1 -30 23 -59 76 -60c59 0 101 52 101 107c0 57 -60 114 -171 113c-228 0 -388 -232 -388 -394c0 -110 72 -214 207 -214c154 0 240 124 273 197l20 42c11 24 36 16 28 -5l-139 -307c-52 -115 -126 -198 -229 -198
c-84 0 -119 47 -119 97c0 41 36 96 97 98c21 0 21 -29 -1 -27c-43 -5 -65 -43 -65 -71c-1 -34 23 -69 88 -69c74 0 148 62 196 170l60 131c-49 -50 -118 -87 -209 -87c-152 0 -237 120 -236 243c0 174 170 423 416 422c128 0 200 -69 201 -140c0 -67 -54 -136 -130 -136
c-70 0 -103 45 -103 88c0 19 7 39 20 53z" />
    <glyph glyph-name="N" unicode="N" horiz-adv-x="619" 
d="M553 604c63 0 99 -42 99 -85c0 -19 -4 -38 -11 -52l-198 -430v1c-12 -28 -22 -64 -22 -94c0 -37 14 -68 55 -68c5 0 12 2 23 4c22 5 28 -24 3 -30c-9 -2 -22 -4 -29 -4c-61 0 -83 45 -83 97c0 36 10 76 25 108l190 409c7 15 13 38 13 54c0 32 -23 58 -67 58
c-66 0 -147 -62 -200 -178l-174 -383c-6 -11 -16 -17 -23 -17c-11 0 -15 8 -9 22l194 423c14 31 21 67 21 104c0 95 -89 156 -176 156c-84 0 -174 -60 -174 -154c0 -68 48 -125 121 -125c35 0 69 15 83 47c4 9 8 15 16 15c10 0 18 -12 15 -23c-18 -46 -66 -68 -114 -68
c-84 0 -151 68 -151 154c0 102 98 184 204 184c101 0 206 -71 206 -186c0 -3 1 -10 -1 -34c42 49 108 95 164 95z" />
    <glyph glyph-name="N.1" horiz-adv-x="152" 
 />
    <glyph glyph-name="M" unicode="M" horiz-adv-x="846" 
d="M670 52l190 410v-1c6 15 13 38 13 54c0 32 -23 58 -67 58c-59 0 -138 -49 -186 -153l-189 -410v1c-6 -12 -16 -17 -23 -17c-10 0 -16 9 -10 23l206 443c8 18 15 33 15 52c0 37 -25 61 -60 61c-64 0 -151 -55 -208 -179l-174 -383c-6 -11 -16 -17 -23 -17
c-11 0 -15 8 -9 22l194 423c14 31 21 67 21 104c0 95 -89 156 -176 156c-84 0 -174 -60 -174 -154c0 -68 48 -125 121 -125c35 0 69 15 83 47c4 9 8 15 16 15c10 0 18 -12 15 -23c-18 -46 -66 -68 -114 -68c-84 0 -151 68 -151 154c0 102 98 184 204 184
c101 0 206 -71 206 -186c0 -4 0 -24 -1 -33c45 57 105 95 173 95c57 0 84 -40 90 -81c44 49 89 81 158 81c62 0 97 -42 97 -85c0 -19 -4 -38 -11 -52l-198 -430v1c-12 -28 -22 -64 -22 -94c0 -37 14 -68 55 -68c5 0 12 2 23 4c18 4 23 -25 3 -30c-9 -2 -22 -4 -29 -4
c-61 0 -83 45 -83 97c0 36 10 76 25 108z" />
    <glyph glyph-name="M.swsh" horiz-adv-x="171" 
 />
    <glyph glyph-name="t.99" horiz-adv-x="782" 
d="M17 160l83 182h-28c-20 0 -12 28 9 28h32l49 106c9 19 38 9 28 -12l-43 -94h51c19 0 10 -28 -9 -28h-55l-89 -194c-15 -33 -22 -67 -23 -105c1 -131 103 -269 298 -269c213 1 336 156 336 299c0 104 -82 200 -199 200c-109 0 -179 -70 -180 -154c1 -33 12 -48 25 -63
c4 -6 5 -10 6 -13c-1 -8 -9 -15 -17 -14c-24 0 -45 48 -45 92c1 86 78 181 210 182c132 0 231 -104 231 -227c0 -162 -140 -332 -363 -332c-191 0 -332 126 -332 300c0 44 9 82 25 116z" />
    <glyph glyph-name="w" unicode="w" horiz-adv-x="428" 
d="M354 125c-17 -46 -72 -125 -143 -125c-37 0 -62 17 -67 51c-23 -28 -53 -51 -89 -51c-41 0 -68 21 -68 64c0 16 4 32 13 51l113 245c8 19 37 9 28 -12l-113 -245c-7 -15 -11 -30 -11 -39c0 -24 15 -36 38 -36c46 0 82 52 99 82l115 250c8 19 37 9 28 -12
c-104 -226 -104 -226 -105 -227l-8 -18c-7 -15 -11 -30 -11 -39c0 -24 15 -36 38 -36c57 0 100 75 110 97l30 67c23 54 51 114 26 154c-11 18 14 33 24 18c34 -54 3 -127 -21 -181z" />
    <glyph glyph-name="O" unicode="O" horiz-adv-x="833" 
d="M116 306c47 202 238 366 425 366c162 0 270 -120 270 -282c0 -29 -4 -60 -10 -89c-47 -202 -238 -365 -425 -365c-162 0 -271 120 -271 282c0 30 4 59 11 88zM145 301c-6 -30 -10 -57 -10 -83c0 -145 96 -252 241 -252c172 0 349 155 395 340c7 30 10 59 10 84
c0 145 -95 252 -240 252c-174 0 -352 -153 -396 -341z" />
    <glyph glyph-name="e.x" horiz-adv-x="232" 
d="M186 375c57 0 79 -41 57 -95c-31 -77 -70 -111 -129 -111c-19 0 -39 6 -51 17l-18 -39c-34 -72 -9 -117 57 -119c75 0 114 52 142 84c11 13 28 18 20 0c-5 -11 -13 -20 -21 -31c-30 -43 -78 -81 -141 -81c-84 0 -135 54 -85 159l54 114c13 29 49 102 115 102zM211 285
c10 24 19 62 -25 62c-50 0 -78 -65 -89 -90l-21 -45c6 -5 24 -12 37 -12c47 0 75 29 98 85z" />
    <glyph glyph-name="r.99" horiz-adv-x="913" 
d="M184 379h6c36 0 58 -24 58 -65c1 -15 -4 -31 -13 -50l-53 -116c-15 -33 -22 -67 -23 -105c1 -131 103 -269 298 -269c213 1 336 156 336 299c0 104 -82 200 -199 200c-109 0 -179 -70 -180 -154c1 -33 12 -48 25 -63c4 -6 5 -10 6 -13c-1 -8 -9 -15 -17 -14
c-24 0 -45 48 -45 92c1 86 78 181 210 182c132 0 231 -104 231 -227c0 -162 -140 -332 -363 -332c-191 0 -332 126 -332 300c0 44 9 82 25 116l53 115c8 15 11 29 11 41c1 19 -10 34 -29 34h-4c-17 0 -29 6 -36 16l-124 -262c-8 -19 -36 -13 -25 10l143 311l3 8
c10 17 38 7 28 -14c-14 -31 -6 -40 10 -40z" />
    <glyph glyph-name="d.8" 
d="M256 260l-72 -157c-7 -16 -11 -31 -11 -40c0 -24 15 -35 41 -35c56 0 85 70 93 87c8 15 32 7 25 -11c-14 -37 -58 -104 -118 -104c-38 0 -63 15 -70 46c-19 -24 -46 -46 -81 -46c-45 0 -76 21 -76 64c0 16 4 32 13 51l74 158c13 29 51 102 119 102c30 0 55 -13 65 -36
c67 142 139 266 225 359c-90 71 -182 141 -327 141c-171 0 -225 -97 -225 -161c0 -43 24 -61 38 -73c5 -4 7 -8 7 -12c0 -5 -4 -12 -15 -12c-4 0 -5 1 -7 2c-31 17 -52 54 -52 97c0 67 52 189 261 189c157 0 250 -76 341 -150c94 94 202 150 334 150c152 0 229 -75 229 -153
c0 -75 -72 -170 -243 -170c-142 0 -232 65 -320 134c-104 -112 -183 -268 -248 -420zM838 839c-125 0 -227 -54 -312 -138c81 -65 166 -125 298 -125c140 0 208 68 213 136c0 64 -64 127 -199 127zM156 115l72 157c7 16 11 29 11 39c0 24 -19 36 -46 36
c-52 0 -82 -65 -93 -90l-72 -154c-7 -15 -11 -30 -11 -39c0 -24 19 -36 46 -36c45 0 75 50 88 77z" />
    <glyph glyph-name="b.8" horiz-adv-x="276" 
d="M0 115l57 123c84 181 168 344 271 458c-91 72 -183 143 -329 143c-171 0 -225 -97 -225 -161c0 -43 24 -61 38 -73c5 -4 7 -8 7 -12c0 -5 -4 -12 -15 -12c-4 0 -5 1 -7 2c-31 17 -52 54 -52 97c0 67 52 189 261 189c158 0 251 -77 342 -151c93 94 201 151 333 151
c152 0 229 -75 229 -153c0 -75 -72 -170 -243 -170c-140 0 -230 63 -316 131c-79 -87 -144 -201 -203 -318c14 9 30 16 48 16c45 0 72 -21 72 -64c0 -16 -4 -32 -13 -51l-74 -158c-13 -29 -51 -102 -119 -102c-63 0 -93 49 -62 115zM681 839c-126 0 -225 -55 -309 -140
c80 -65 164 -123 295 -123c140 0 208 68 213 136c0 64 -64 127 -199 127zM100 262l-73 -159c1 0 -11 -21 -11 -39c0 -24 19 -36 46 -36c52 0 82 65 93 90l72 154c7 15 11 30 11 39c0 24 -15 36 -42 36c-49 0 -83 -57 -95 -85h-1zM183 0c-15 0 -15 28 0 28c56 0 85 70 93 87
c8 15 32 7 25 -11c-14 -37 -58 -104 -118 -104z" />
    <glyph glyph-name="c.99" horiz-adv-x="754" 
d="M17 160l54 113c13 29 49 102 115 102c57 0 80 -41 57 -95l-9 -22c-11 -27 -43 -19 -33 5c4 7 6 13 10 22c10 24 19 62 -25 62c-50 0 -78 -65 -89 -90l-52 -109c-16 -33 -22 -67 -23 -105c1 -131 103 -269 298 -269c213 1 336 156 336 299c0 104 -82 200 -199 200
c-109 0 -179 -70 -180 -154c1 -33 12 -48 25 -63c4 -6 5 -10 6 -13c-1 -8 -9 -15 -17 -14c-24 0 -45 48 -45 92c1 86 78 181 210 182c132 0 231 -104 231 -227c0 -162 -140 -332 -363 -332c-191 0 -332 126 -332 300c0 44 9 82 25 116z" />
    <glyph glyph-name="d.99" horiz-adv-x="981" 
d="M399 572l-193 -421c-15 -33 -22 -67 -23 -105c1 -131 103 -269 298 -269c213 1 336 156 336 299c0 104 -82 200 -199 200c-109 0 -179 -70 -180 -154c1 -33 12 -48 25 -63c4 -6 5 -10 6 -13c-1 -8 -9 -15 -17 -14c-24 0 -45 48 -45 92c1 86 78 181 210 182
c132 0 231 -104 231 -227c0 -162 -140 -332 -363 -332c-191 0 -332 126 -332 300v19c-19 -32 -48 -66 -90 -66c-45 0 -76 21 -76 64c0 16 4 32 13 51l74 158c13 29 51 102 119 102c30 0 55 -13 65 -36l113 245c8 19 37 9 28 -12zM174 155l54 117c7 16 11 29 11 39
c0 24 -19 36 -46 36c-52 0 -82 -65 -93 -90l-72 -154c-7 -15 -11 -30 -11 -39c0 -24 19 -36 46 -36c48 0 88 78 111 127z" />
    <glyph glyph-name="h.99" horiz-adv-x="949" 
d="M178 163l50 109c7 15 11 30 11 39c0 24 -19 36 -46 36c-44 0 -77 -51 -91 -78l-77 -165c-7 -17 -36 -13 -25 11l215 469c8 19 39 9 29 -12l-102 -217c16 12 33 20 51 20c45 0 76 -21 76 -64c0 -16 -4 -32 -13 -51l-51 -109c-14 -33 -21 -67 -22 -105
c1 -131 103 -269 298 -269c213 1 336 156 336 299c0 104 -82 200 -199 200c-109 0 -179 -70 -180 -154c1 -33 12 -48 25 -63c4 -6 5 -10 6 -13c-1 -8 -9 -15 -17 -14c-24 0 -45 48 -45 92c1 86 78 181 210 182c132 0 231 -104 231 -227c0 -162 -140 -332 -363 -332
c-191 0 -332 126 -332 300c0 44 9 82 25 116z" />
    <glyph glyph-name="i.99" horiz-adv-x="772" 
d="M135 348l-91 -197c-14 -33 -21 -67 -22 -105c1 -131 103 -269 298 -269c213 1 336 156 336 299c0 104 -82 200 -199 200c-109 0 -179 -70 -180 -154c1 -33 12 -48 25 -63c4 -6 5 -10 6 -13c-1 -8 -9 -15 -17 -14c-24 0 -45 48 -45 92c1 86 78 181 210 182
c132 0 231 -104 231 -227c0 -162 -140 -332 -363 -332c-191 0 -332 126 -332 300c0 44 9 82 25 116l90 197c8 19 38 9 28 -12zM194 459c-3 -15 -17 -27 -32 -27c-16 0 -25 12 -22 27c2 15 17 28 31 28c15 0 26 -13 23 -28z" />
    <glyph glyph-name="j.9" horiz-adv-x="330" 
d="M-326 -311c-59 0 -83 39 -83 69c0 105 145 135 324 171l197 431c8 19 37 9 28 -12l-189 -411l26 5c153 32 299 113 299 228c0 25 -3 51 -30 72c-19 15 1 35 20 21c27 -20 40 -57 40 -93c0 -129 -163 -226 -326 -257l-44 -8c-52 -105 -129 -216 -262 -216zM-326 -283
c104 0 176 89 225 181c-154 -31 -278 -64 -278 -140c0 -16 13 -41 53 -41zM196 459c-3 -15 -17 -27 -32 -27c-16 0 -25 12 -22 27c2 15 17 28 31 28c15 0 26 -13 23 -28z" />
    <glyph glyph-name="k.99" horiz-adv-x="867" 
d="M90 145l2 30c65 0 142 68 149 124c4 32 -12 48 -40 48c-44 0 -82 -49 -98 -77l-78 -166c-7 -17 -36 -13 -25 11l215 469c8 19 39 9 29 -12l-104 -223c18 15 39 26 61 26c46 0 75 -27 70 -76c-6 -60 -82 -134 -153 -151c-10 -224 127 -362 314 -362c213 1 336 156 336 299
c0 104 -82 200 -199 200c-109 0 -179 -70 -180 -154c1 -33 12 -48 25 -63c4 -6 5 -10 6 -13c-1 -8 -9 -15 -17 -14c-24 0 -45 48 -45 92c1 86 78 181 210 182c132 0 231 -104 231 -227c0 -162 -140 -332 -363 -332c-180 0 -357 122 -346 389z" />
    <glyph glyph-name="l.99" horiz-adv-x="758" 
d="M237 572l-193 -421c-14 -33 -21 -67 -22 -105c1 -131 103 -269 298 -269c213 1 336 156 336 299c0 104 -82 200 -199 200c-109 0 -179 -70 -180 -154c1 -33 12 -48 25 -63c4 -6 5 -10 6 -13c-1 -8 -9 -15 -17 -14c-24 0 -45 48 -45 92c1 86 78 181 210 182
c132 0 231 -104 231 -227c0 -162 -140 -332 -363 -332c-191 0 -332 126 -332 300c0 44 8 82 24 116l193 421c8 19 37 9 28 -12z" />
    <glyph glyph-name="E" unicode="E" horiz-adv-x="640" 
d="M310 -136c-190 0 -260 119 -260 223c0 108 99 232 276 265c7 0 14 -1 19 -1c-54 27 -69 88 -69 130c0 119 126 219 266 219c136 0 219 -80 219 -159c0 -77 -66 -153 -152 -153c-78 0 -114 49 -114 96c0 19 6 44 17 58c14 18 39 0 25 -17c-7 -9 -13 -25 -13 -41
c0 -35 25 -67 85 -67c69 0 122 57 122 119c0 67 -71 136 -191 136c-123 0 -235 -85 -235 -187c0 -68 30 -122 110 -122h18c13 0 19 -9 19 -17s-6 -16 -18 -16h-36c-173 0 -319 -117 -319 -242c0 -88 60 -194 232 -194c120 0 226 100 226 198c0 60 -43 116 -110 116
c-65 0 -107 -38 -108 -76c-2 -14 -7 -18 -15 -18c-7 0 -14 3 -14 18c1 51 53 107 137 107c85 0 140 -70 140 -147c0 -122 -131 -228 -257 -228z" />
    <glyph glyph-name="m.99" horiz-adv-x="1090" 
d="M327 140l62 133c7 15 11 30 11 39c0 24 -19 36 -46 36c-46 0 -80 -53 -94 -80l-4 -8l-113 -245c-10 -22 -41 -20 -33 0l118 257c7 15 11 30 11 39c0 24 -19 38 -46 36c-43 -4 -73 -48 -88 -75l-7 -14l-73 -154c-9 -19 -35 -11 -25 11l113 246c7 17 33 10 29 -7
c15 11 33 19 51 21c42 2 70 -17 75 -53c22 28 52 54 86 54c45 0 76 -21 76 -64c0 -16 -4 -32 -13 -51l-63 -133c-14 -33 -21 -67 -22 -105c1 -131 103 -269 298 -269c213 1 336 156 336 299c0 104 -82 200 -199 200c-109 0 -179 -70 -180 -154c1 -33 12 -48 25 -63
c4 -6 5 -10 6 -13c-1 -8 -9 -15 -17 -14c-24 0 -45 48 -45 92c1 86 78 181 210 182c132 0 231 -104 231 -227c0 -162 -140 -332 -363 -332c-191 0 -332 126 -332 300c0 44 9 82 25 116z" />
    <glyph glyph-name="n.99" horiz-adv-x="922" 
d="M0 115l113 246c7 17 33 10 29 -7c16 12 35 21 54 21c45 0 76 -21 76 -64c0 -16 -4 -32 -13 -51l-63 -133c-14 -33 -21 -67 -22 -105c1 -131 103 -269 298 -269c213 1 336 156 336 299c0 104 -82 200 -199 200c-109 0 -179 -70 -180 -154c1 -33 12 -48 25 -63
c4 -6 5 -10 6 -13c-1 -8 -9 -15 -17 -14c-24 0 -45 48 -45 92c1 86 78 181 210 182c132 0 231 -104 231 -227c0 -162 -140 -332 -363 -332c-191 0 -332 126 -332 300c0 44 9 82 25 116l62 133c7 15 11 30 11 39c0 24 -19 36 -46 36c-42 0 -75 -45 -91 -73l-80 -170
c-9 -19 -35 -11 -25 11z" />
    <glyph glyph-name="p.99" horiz-adv-x="844" 
d="M-159 -231l271 591c7 17 31 10 29 -6c16 12 34 21 55 21c45 0 72 -21 72 -64c0 -16 -4 -32 -13 -51l-74 -158c-13 -28 -49 -98 -113 -102c35 -72 126 -134 280 -134c236 1 392 168 392 319c0 104 -82 200 -199 200c-109 0 -179 -70 -180 -154c1 -33 12 -48 25 -63
c4 -6 5 -10 6 -13c-1 -8 -9 -15 -17 -14c-24 0 -45 48 -45 92c1 86 78 181 210 182c132 0 231 -104 231 -227c0 -170 -173 -352 -419 -352c-171 0 -288 75 -322 182c-9 28 20 34 27 10h5c52 0 82 65 93 90l72 154c7 15 11 30 11 39c0 24 -15 36 -42 36
c-49 0 -83 -57 -95 -85h-1l-231 -505c-8 -19 -37 -9 -28 12z" />
    <glyph glyph-name="t.999" horiz-adv-x="881" 
d="M133 342l-90 -195c-15 -32 -21 -66 -22 -103c1 -129 102 -264 292 -264c156 0 332 112 331 295c0 30 -8 65 -23 96c-19 -7 -39 -10 -59 -10c-69 0 -129 42 -129 87c0 24 19 54 59 54c59 0 110 -39 144 -92c46 25 82 74 82 139c0 89 -78 169 -192 169
c-93 0 -180 -55 -180 -150c0 -35 12 -54 26 -69c15 -15 -5 -31 -21 -18c-18 14 -34 54 -34 87c0 100 87 178 208 178c116 0 222 -79 222 -197c0 -73 -41 -133 -97 -165c16 -33 25 -70 25 -105c1 -190 -179 -328 -362 -328c-187 0 -321 123 -321 295c0 42 8 79 24 112l84 184
h-29c-20 0 -12 28 9 28h32l49 106c8 19 37 9 28 -12l-43 -94h51c19 0 10 -28 -9 -28h-55zM560 190c16 0 32 2 47 7c-27 43 -67 76 -115 76c-21 0 -31 -11 -31 -24c0 -22 38 -59 99 -59z" />
    <glyph glyph-name="a.999" horiz-adv-x="976" 
d="M652 302c59 0 110 -39 144 -92c46 25 82 74 82 139c0 89 -78 169 -192 169c-93 0 -180 -55 -180 -150c0 -35 12 -54 26 -69c15 -15 -5 -31 -21 -18c-18 14 -34 54 -34 87c0 100 87 178 208 178c116 0 222 -79 222 -197c0 -73 -41 -133 -97 -165c16 -33 25 -70 25 -105
c1 -190 -179 -328 -362 -328c-187 0 -321 123 -321 295v18c-19 -31 -48 -64 -89 -64c-45 0 -76 21 -76 64c0 16 4 32 13 51l74 158c13 29 51 102 119 102c30 0 55 -13 65 -36l10 21c8 19 37 9 28 -12l-93 -201c-15 -32 -21 -66 -22 -103c1 -129 102 -264 292 -264
c156 0 332 112 331 295c0 30 -8 65 -23 96c-19 -7 -39 -10 -59 -10c-69 0 -129 42 -129 87c0 24 19 54 59 54zM176 158l53 116c6 15 10 27 10 37c0 24 -19 36 -46 36c-52 0 -82 -65 -93 -90l-72 -154c-7 -15 -11 -30 -11 -39c0 -24 19 -36 46 -36c48 0 86 74 109 122z
M720 190c16 0 32 2 47 7c-27 43 -67 76 -115 76c-21 0 -31 -11 -31 -24c0 -22 38 -59 99 -59z" />
    <glyph glyph-name="s.99" horiz-adv-x="852" 
d="M0 115l136 295c10 23 41 9 28 -12c-10 -17 -14 -40 -16 -52c-3 -30 8 -64 18 -95c9 -27 19 -59 19 -89c0 -72 -48 -136 -112 -157c49 -49 124 -82 227 -82c236 1 392 168 392 319c0 104 -76 200 -193 200c-109 0 -179 -70 -180 -154c1 -33 13 -47 25 -63
c11 -15 -3 -38 -24 -22c-17 14 -32 52 -32 87c1 87 78 184 210 184c133 0 225 -106 225 -231c0 -170 -175 -352 -423 -352c-118 0 -209 44 -263 109c-6 6 -18 24 6 31c60 11 111 66 111 131c0 28 -9 56 -19 83c-6 18 -13 38 -17 58l-93 -199c-10 -22 -34 -8 -25 11z" />
    <glyph glyph-name="e.999" horiz-adv-x="780" 
d="M16 161l53 112c13 29 49 102 115 102c57 0 79 -41 57 -95c-31 -77 -70 -111 -129 -111c-20 0 -39 6 -51 17l-2 -5l-15 -31c-15 -32 -23 -69 -24 -106c1 -129 102 -264 292 -264c156 0 332 112 331 295c0 30 -8 65 -23 96c-19 -7 -39 -10 -59 -10c-69 0 -129 42 -129 87
c0 24 19 54 59 54c59 0 110 -39 144 -92c46 25 82 74 82 139c0 89 -78 169 -192 169c-93 0 -180 -55 -180 -150c0 -35 12 -54 26 -69c15 -15 -5 -31 -21 -18c-18 14 -34 54 -34 87c0 100 87 178 208 178c116 0 222 -79 222 -197c0 -73 -41 -133 -97 -165
c16 -33 25 -70 25 -105c1 -190 -179 -328 -362 -328c-187 0 -321 123 -321 295c0 42 9 82 25 115zM209 285c10 24 19 62 -25 62c-50 0 -78 -65 -89 -90l-21 -45c6 -5 24 -12 37 -12c47 0 75 29 98 85zM559 190c16 0 32 2 47 7c-27 43 -67 76 -115 76c-21 0 -31 -11 -31 -24
c0 -22 38 -59 99 -59z" />
    <glyph glyph-name="f.88" horiz-adv-x="156" 
d="M-65 -28l170 370h-19c-20 0 -12 28 9 28h24c64 128 131 240 209 326c-91 72 -183 143 -329 143c-171 0 -225 -97 -225 -161c0 -43 24 -61 38 -73c5 -4 7 -8 7 -12c0 -5 -4 -12 -15 -12c-4 0 -5 1 -7 2c-31 17 -52 54 -52 97c0 67 52 189 261 189c158 0 251 -77 342 -151
c93 94 201 151 333 151c152 0 229 -75 229 -153c0 -75 -72 -170 -243 -170c-140 0 -230 63 -316 131c-77 -84 -140 -194 -197 -307h58c19 0 10 -28 -9 -28h-63c-18 -35 -35 -70 -172 -370c-22 -49 -55 -94 -98 -130c66 -29 131 -54 195 -54c90 0 142 53 142 97
c0 8 -3 26 -10 37c-11 20 21 27 30 7c9 -13 13 -27 13 -44c0 -58 -65 -127 -175 -127c-78 0 -151 30 -223 63c-61 -42 -140 -68 -236 -68c-111 1 -166 46 -166 93c0 48 51 88 141 88c87 0 174 -40 260 -79c41 32 73 72 94 117zM681 839c-126 0 -225 -55 -309 -140
c80 -65 164 -123 295 -123c140 0 208 68 213 136c0 64 -64 127 -199 127zM-394 -219c79 0 149 20 206 54c-77 36 -153 70 -231 70c-68 0 -108 -26 -108 -59s43 -65 133 -65z" />
    <glyph glyph-name="f.8" horiz-adv-x="156" 
d="M140 342l-172 -370c-52 -115 -127 -198 -229 -198c-85 0 -119 47 -119 97c0 41 35 96 96 98c21 0 21 -28 0 -28c-44 -3 -66 -42 -66 -70c0 -35 24 -69 89 -69c73 0 147 62 196 170l170 370h-19c-20 0 -12 28 9 28h24c64 128 131 240 209 326c-91 72 -183 143 -329 143
c-171 0 -225 -97 -225 -161c0 -43 24 -61 38 -73c5 -4 7 -8 7 -12c0 -5 -4 -12 -15 -12c-4 0 -5 1 -7 2c-31 17 -52 54 -52 97c0 67 52 189 261 189c158 0 251 -77 342 -151c93 94 201 151 333 151c152 0 229 -75 229 -153c0 -75 -72 -170 -243 -170
c-140 0 -230 63 -316 131c-77 -84 -140 -194 -197 -307h58c19 0 10 -28 -9 -28h-63zM681 839c-126 0 -225 -55 -309 -140c80 -65 164 -123 295 -123c140 0 208 68 213 136c0 64 -64 127 -199 127z" />
    <glyph glyph-name="S.1" horiz-adv-x="211" 
 />
    <glyph glyph-name="S.swsh" horiz-adv-x="761" 
d="M378 -77c-42 0 -82 7 -118 21c26 -91 108 -138 191 -138c27 0 52 5 76 14c21 9 31 -19 10 -28c-28 -11 -57 -16 -86 -16c-103 0 -204 62 -225 183c-86 45 -144 128 -144 234c0 144 108 276 272 276c99 0 162 -42 188 -100c33 16 66 31 98 45c-13 41 -23 82 -23 125
c0 108 93 167 164 167c58 0 123 -36 123 -109c0 -84 -103 -140 -227 -198c16 -48 32 -97 32 -153c0 -207 -175 -323 -331 -323zM679 246c0 47 -15 93 -30 140c-32 -15 -65 -30 -97 -46c3 -14 5 -27 5 -41c0 -34 -16 -71 -44 -98c-19 -15 -41 2 -21 21c23 21 35 50 35 77
c0 9 -1 18 -3 27l-36 -19c-132 -73 -236 -171 -236 -300c0 -9 0 -17 1 -26c38 -18 81 -28 125 -28c142 0 301 106 301 293zM112 193c0 -85 45 -153 110 -195v9c0 147 118 255 261 332l32 17c-23 49 -76 83 -163 83c-146 0 -240 -116 -240 -246zM874 597c0 46 -40 81 -92 81
c-59 0 -135 -50 -135 -139c0 -39 9 -76 20 -112c114 53 207 101 207 170z" />
    <glyph glyph-name="p.8" horiz-adv-x="276" 
d="M19 156l93 204c7 17 31 10 29 -6c16 12 34 21 55 21c45 0 72 -21 72 -64c0 -16 -4 -32 -13 -51l-74 -158c-13 -29 -51 -102 -119 -102c-34 0 -57 13 -66 38c-66 -133 -135 -251 -216 -340c91 -72 183 -143 329 -143c171 0 225 97 225 161c0 43 -24 61 -38 73
c-5 4 -7 8 -7 12c0 5 4 12 15 12c4 0 5 -1 7 -2c31 -17 52 -54 52 -97c0 -67 -52 -189 -261 -189c-158 0 -250 77 -342 151c-93 -94 -201 -151 -333 -151c-152 0 -229 75 -229 153c0 75 72 170 243 170c140 0 230 -63 316 -131c106 117 190 280 262 439zM-573 -445
c126 0 225 55 309 140c-80 65 -164 123 -295 123c-140 0 -213 -68 -213 -136c0 -64 64 -127 199 -127zM101 262h-1l-76 -165c-5 -13 -8 -25 -8 -33c0 -24 19 -36 46 -36c52 0 82 65 93 90l72 154c7 15 11 30 11 39c0 24 -15 36 -42 36c-49 0 -83 -57 -95 -85zM183 0
c-15 0 -15 28 0 28c56 0 85 70 93 87c8 15 32 7 25 -11c-14 -37 -58 -104 -118 -104z" />
    <glyph glyph-name="n.6" horiz-adv-x="293" 
d="M-135 -253c120 0 208 53 296 105c-18 36 -28 78 -28 121c0 69 22 144 63 231l32 68c7 15 11 30 11 39c0 24 -19 38 -46 36c-44 -4 -74 -50 -88 -76l-76 -167c-15 -32 -58 -104 -122 -104c-21 0 -20 28 0 28c50 0 78 55 93 87l113 246c7 17 33 10 29 -8c15 12 32 20 51 22
c46 3 76 -21 76 -64c0 -16 -4 -32 -13 -51l-26 -56c-39 -83 -67 -167 -67 -231c0 -38 8 -74 25 -106c77 45 157 86 259 86c119 0 172 -60 172 -116c0 -63 -49 -136 -191 -136c-115 0 -203 51 -252 126c-93 -54 -186 -110 -311 -110c-102 0 -158 71 -158 136
c0 41 21 79 66 100c26 11 35 -18 12 -28c-33 -15 -48 -43 -48 -72c0 -51 46 -106 128 -106zM447 -77c-93 0 -169 -37 -245 -80c45 -67 125 -112 226 -112c121 0 161 57 161 106c0 40 -43 86 -142 86z" />
    <glyph glyph-name="m.6" horiz-adv-x="447" 
d="M260 269l-117 -254c-10 -22 -41 -20 -33 0l118 257c7 15 11 30 11 39c0 24 -19 38 -46 36c-44 -4 -74 -50 -88 -76l-76 -167c-15 -32 -58 -104 -122 -104c-21 0 -20 28 0 28c50 0 78 55 93 87l113 246c7 17 33 10 29 -8c15 12 32 20 51 22c41 2 70 -17 75 -52
c20 25 48 49 81 52c46 3 76 -21 76 -64c0 -16 -4 -32 -13 -51l-26 -56c-39 -83 -67 -167 -67 -231c0 -38 8 -74 25 -106c77 45 157 86 259 86c119 0 172 -60 172 -116c0 -63 -49 -136 -191 -136c-115 0 -203 51 -252 126c-93 -54 -187 -110 -311 -110
c-102 0 -158 71 -158 136c0 41 21 79 66 100c26 11 35 -18 12 -28c-33 -15 -48 -43 -48 -72c0 -51 46 -106 128 -106c120 0 208 53 296 105c-18 36 -28 78 -28 121c0 69 22 144 63 231l32 68c7 15 11 30 11 39c0 24 -19 38 -46 36c-44 -4 -74 -48 -87 -75c-1 -1 -1 -1 -1 -2
zM603 -77c-93 0 -169 -37 -245 -80c45 -67 125 -112 226 -112c121 0 161 57 161 106c0 40 -43 86 -142 86z" />
    <glyph glyph-name="u.99" horiz-adv-x="935" 
d="M296 348l-91 -197c-14 -33 -21 -67 -22 -105c1 -131 103 -269 298 -269c213 1 336 156 336 299c0 104 -82 200 -199 200c-109 0 -181 -70 -180 -154c0 -33 12 -48 25 -63c4 -6 5 -10 6 -13c-1 -8 -9 -15 -17 -14c-24 0 -45 48 -45 92c1 86 78 181 210 182
c132 0 231 -104 231 -227c0 -162 -140 -332 -363 -332c-191 0 -332 126 -332 300v19c-18 -31 -47 -64 -90 -66c-45 0 -76 21 -76 64c0 16 4 32 13 51l113 245c8 19 37 9 28 -12l-113 -245c-7 -15 -11 -30 -11 -39c0 -24 19 -36 46 -36c48 0 88 78 111 127l94 205
c8 19 38 9 28 -12z" />
    <glyph glyph-name="a.3" horiz-adv-x="295" 
d="M193 375c30 0 55 -13 65 -36l10 21c8 19 37 9 28 -12l-103 -226c-24 -52 -41 -112 -41 -174c0 -71 26 -160 128 -160c87 0 118 64 118 107c0 15 -3 27 -9 32c-17 14 7 36 22 22c8 -8 17 -29 17 -54c0 -55 -40 -137 -148 -137c-124 0 -158 107 -158 190c0 28 4 57 10 84
c-17 -18 -41 -32 -69 -32c-45 0 -76 21 -76 64c0 16 4 32 13 51l74 158c13 29 51 102 119 102zM228 272c7 16 11 29 11 39c0 24 -19 36 -46 36c-52 0 -82 -65 -93 -90l-72 -154c-7 -15 -11 -30 -11 -39c0 -24 19 -36 46 -36c48 0 81 58 99 98c0 1 0 2 66 146z" />
    <glyph glyph-name="r.3" horiz-adv-x="252" 
d="M142 134l65 142c7 15 11 30 11 39c0 24 -13 38 -34 36c-16 0 -28 5 -36 15l-123 -262c-9 -19 -36 -13 -25 11l143 310l3 8c9 17 38 7 28 -13c-14 -31 -6 -41 10 -41c40 3 64 -21 64 -64c0 -16 -4 -32 -13 -51l-65 -142c-24 -52 -41 -112 -41 -174c0 -71 26 -160 128 -160
c87 0 118 64 118 107c0 15 -3 27 -9 32c-17 14 7 36 22 22c8 -8 17 -29 17 -54c0 -55 -40 -137 -148 -137c-124 0 -158 107 -158 190c0 67 23 143 43 186z" />
    <glyph glyph-name="x.99" horiz-adv-x="864" 
d="M182 75c5 -149 72 -308 273 -308c213 1 336 156 336 299c0 104 -82 200 -199 200c-109 0 -179 -70 -180 -154c1 -33 12 -48 25 -63c4 -6 5 -10 6 -13c-1 -8 -9 -15 -17 -14c-24 0 -45 48 -45 92c1 86 78 181 210 182c132 0 231 -104 231 -227c0 -162 -142 -334 -365 -334
c-204 0 -299 155 -305 338c-36 -54 -74 -73 -100 -73c-43 0 -66 21 -66 64c0 13 6 29 13 49c3 9 12 10 15 10c11 -1 16 -11 11 -21c-5 -12 -9 -25 -9 -38c0 -24 14 -36 36 -36c39 0 84 60 121 148l12 26c11 24 29 63 29 100c0 28 -18 49 -47 49c-32 0 -83 -38 -78 -115
c2 -18 -6 -25 -16 -25c-11 0 -16 10 -16 26c-2 62 39 142 111 142c50 0 71 -34 74 -69c35 50 71 69 98 69c41 0 66 -21 66 -64c0 -13 -4 -31 -14 -50c-10 -20 -38 -10 -27 11c6 12 11 25 11 39c0 24 -14 36 -36 36c-38 0 -83 -54 -120 -142l-14 -32
c-12 -28 -24 -64 -24 -102z" />
    <glyph glyph-name="r.23" horiz-adv-x="236" 
d="M25 104l-25 11c46 100 90 199 113 278c-44 27 -85 53 -85 108c0 33 25 69 66 69c47 0 67 -39 67 -81c0 -24 -5 -53 -13 -84c38 -24 72 -52 72 -112c0 -23 -6 -49 -19 -78l-44 -93c-33 -70 -44 -118 -44 -180c0 -71 29 -154 131 -154c87 0 118 64 118 107
c0 15 -3 27 -9 32c-17 14 7 36 22 22c8 -8 17 -29 17 -54c0 -55 -40 -137 -148 -137c-124 0 -161 101 -161 184c0 67 18 133 46 192l44 93c12 26 17 49 17 66c0 42 -23 64 -51 83c-27 -89 -75 -192 -114 -272zM58 501c0 -36 30 -57 63 -79c6 25 10 48 10 67
c0 26 -11 51 -39 51c-18 0 -34 -15 -34 -39z" />
    <glyph glyph-name="r.2" horiz-adv-x="271" 
d="M25 104l-25 11c46 100 90 199 113 278c-44 27 -85 53 -85 108c0 33 25 69 66 69c47 0 67 -39 67 -81c0 -24 -5 -53 -13 -84c38 -24 72 -52 72 -112c0 -21 -3 -45 -19 -78l-53 -112c-7 -16 -11 -31 -11 -40c0 -24 15 -35 41 -35c56 0 85 70 93 87c8 15 32 7 25 -11
c-14 -37 -58 -104 -118 -104c-44 0 -71 20 -71 63c0 16 4 33 13 52l53 112c12 26 17 49 17 66c0 42 -23 64 -51 83c-27 -89 -75 -192 -114 -272zM58 501c0 -36 30 -57 63 -79c6 25 10 48 10 67c0 26 -11 51 -39 51c-18 0 -34 -15 -34 -39z" />
    <glyph glyph-name="d.3" horiz-adv-x="282" 
d="M399 572l-206 -450c-24 -52 -41 -112 -41 -174c0 -71 26 -160 128 -160c87 0 118 64 118 107c0 15 -3 27 -9 32c-17 14 7 36 22 22c8 -8 17 -29 17 -54c0 -55 -40 -137 -148 -137c-124 0 -158 107 -158 190c0 30 4 60 11 89c-17 -21 -40 -37 -70 -37c-45 0 -76 21 -76 64
c0 16 4 32 13 51l74 158c13 29 51 102 119 102c30 0 55 -13 65 -36l113 245c8 19 37 9 28 -12zM163 130l65 142c7 16 11 29 11 39c0 24 -19 36 -46 36c-52 0 -82 -65 -93 -90l-72 -154c-7 -15 -11 -30 -11 -39c0 -24 19 -36 46 -36c48 0 88 76 100 102z" />
    <glyph glyph-name="Q" unicode="Q" horiz-adv-x="758" 
d="M475 678c169 0 287 -128 283 -297c-7 -210 -171 -371 -348 -442c128 -129 261 -291 468 -291c126 0 202 75 213 148c5 42 -10 66 -35 86c-16 15 4 30 17 22c37 -24 54 -68 47 -113c-12 -82 -97 -173 -243 -173c-240 0 -374 177 -500 308c-54 -18 -109 -28 -159 -28
c-128 0 -195 60 -193 114c1 39 34 83 116 83h1c91 0 168 -59 245 -134c178 67 334 230 340 420c4 151 -102 267 -253 267c-213 -1 -332 -160 -334 -302c-4 -104 76 -200 192 -200c110 0 181 70 184 154c0 33 -11 48 -23 63c-13 17 12 37 28 20c16 -16 27 -51 26 -85
c-3 -86 -83 -181 -215 -182c-131 0 -228 104 -223 227c3 162 143 335 366 335zM142 66h-2c-60 0 -83 -30 -84 -57c0 -37 63 -82 163 -81c44 0 90 8 135 22c-66 66 -132 115 -212 116z" />
    <glyph glyph-name="s.2" horiz-adv-x="215" 
d="M156 -3c0 -107 -84 -199 -183 -199c-78 0 -134 57 -134 123c0 54 42 114 116 114c59 0 84 -38 83 -73c0 -17 -8 -35 -18 -45c-16 -17 -42 5 -22 22c6 5 10 14 10 23c1 21 -16 43 -54 43c-53 0 -85 -44 -85 -83c0 -51 44 -94 105 -94c73 0 152 69 152 169
c0 81 -51 196 -51 277c0 49 39 101 98 101c44 0 75 -24 75 -61c0 -14 -9 -34 -17 -45c-13 -18 -36 -10 -23 11c8 13 10 25 10 34c0 25 -27 33 -46 33c-40 0 -68 -34 -68 -73c0 -81 52 -177 52 -277z" />
    <glyph glyph-name="t.6" horiz-adv-x="159" 
d="M-154 447c8 -18 -14 -33 -24 -16c-7 12 -13 32 -13 50c0 58 58 129 157 129c81 0 152 -43 223 -82l42 92c8 19 37 9 28 -12l-43 -95c49 -26 99 -47 152 -47c46 0 83 19 101 42c17 21 42 0 26 -18c-25 -29 -69 -54 -127 -54c-59 0 -113 22 -165 49l-175 -382
c-7 -16 -11 -31 -11 -40c0 -24 19 -35 49 -35c56 0 85 70 93 87c8 15 32 7 25 -11c-14 -37 -58 -104 -118 -104c-48 0 -79 20 -79 63c0 16 4 33 13 52l176 384c-71 39 -140 81 -210 81c-81 0 -127 -55 -127 -99c0 -7 3 -22 7 -34z" />
    <glyph glyph-name="t.63" horiz-adv-x="138" 
d="M259 608l-43 -95c49 -26 99 -47 152 -47c46 0 83 19 101 42c17 21 42 0 26 -18c-25 -29 -69 -54 -127 -54c-59 0 -113 22 -165 49l-166 -363c-35 -76 -44 -118 -44 -180c0 -71 29 -154 131 -154c87 0 118 64 118 107c0 15 -3 27 -9 32c-17 14 7 36 22 22
c8 -8 17 -29 17 -54c0 -55 -40 -137 -148 -137c-124 0 -161 101 -161 184c0 67 18 131 46 192l167 365c-71 39 -140 81 -210 81c-81 0 -127 -55 -127 -99c0 -7 3 -22 7 -34c8 -18 -14 -33 -24 -16c-7 12 -13 32 -13 50c0 58 58 129 157 129c81 0 152 -43 223 -82l42 92
c8 19 37 9 28 -12z" />
    <glyph glyph-name="t.699" horiz-adv-x="755" 
d="M203 485l-180 -392c-14 -33 -21 -67 -22 -105c1 -131 103 -269 298 -269c213 1 336 156 336 299c0 104 -82 200 -199 200c-109 0 -179 -70 -180 -154c1 -33 12 -48 25 -63c4 -6 5 -10 6 -13c-1 -8 -9 -15 -17 -14c-24 0 -45 48 -45 92c1 86 78 181 210 182
c132 0 231 -104 231 -227c0 -162 -140 -332 -363 -332c-191 0 -332 126 -332 300c0 44 8 82 26 120l179 390c-71 39 -140 81 -210 81c-81 0 -127 -55 -127 -99c0 -7 3 -22 7 -34c8 -18 -14 -33 -24 -16c-7 12 -13 32 -13 50c0 58 58 129 157 129c81 0 152 -43 223 -82l33 72
c8 19 37 9 28 -12l-34 -75c49 -26 99 -47 152 -47c46 0 83 19 101 42c17 21 42 0 26 -18c-25 -29 -69 -54 -127 -54c-59 0 -113 22 -165 49z" />
    <glyph glyph-name="l.8" horiz-adv-x="151" 
d="M56 238c83 182 168 344 272 458c-91 72 -183 143 -329 143c-171 0 -225 -97 -225 -161c0 -43 24 -61 38 -73c5 -4 7 -8 7 -12c0 -5 -4 -12 -15 -12c-4 0 -5 1 -7 2c-31 17 -52 54 -52 97c0 67 52 189 261 189c158 0 251 -77 342 -151c93 94 201 151 333 151
c152 0 229 -75 229 -153c0 -75 -72 -170 -243 -170c-140 0 -230 63 -316 131c-105 -118 -188 -280 -261 -439l-62 -135c-7 -16 -11 -31 -11 -40c0 -24 15 -35 41 -35c56 0 85 70 93 87c8 15 32 7 25 -11c-14 -37 -58 -104 -118 -104c-44 0 -71 20 -71 63c0 16 4 33 13 52z
M681 839c-126 0 -226 -56 -309 -141c80 -64 165 -122 295 -122c140 0 208 68 213 136c0 64 -64 127 -199 127z" />
    <glyph glyph-name="t.3" horiz-adv-x="140" 
d="M46 144h-33l151 332c8 19 37 9 28 -12zM192 342h-117c-20 0 -12 28 9 28h117c19 0 10 -28 -9 -28zM26 148l20 -4l-11 -26c-22 -53 -41 -112 -41 -174c0 -71 26 -160 128 -160c87 0 118 64 118 107c0 15 -3 27 -9 32c-17 14 7 36 22 22c8 -8 17 -29 17 -54
c0 -55 -40 -137 -148 -137c-124 0 -158 107 -158 190c0 67 25 142 43 186l6 14z" />
    <glyph glyph-name="U" unicode="U" horiz-adv-x="743" 
d="M683 -254c-142 0 -163 155 -154 288c-59 -54 -123 -89 -182 -89c-130 0 -145 123 -100 216l117 254c40 87 39 192 -66 240c-90 42 -205 16 -248 -79c-32 -67 -2 -145 54 -172c44 -19 118 -18 139 38c8 28 35 10 29 -9c-23 -70 -119 -83 -179 -54c-72 33 -107 126 -71 208
c48 105 178 145 288 95c103 -47 139 -153 80 -278l-117 -255c-32 -70 -36 -175 74 -175c60 0 126 41 186 102c7 56 16 104 23 129c45 180 120 334 173 334c25 0 44 -26 44 -57c-5 -118 -99 -301 -214 -420c-12 -129 4 -286 125 -286c87 0 120 64 121 107c1 15 -2 27 -8 32
c-16 14 8 36 23 22c8 -8 16 -29 15 -54c-2 -55 -44 -137 -152 -137zM584 200c-7 -22 -14 -54 -19 -90c98 114 176 275 179 376c1 16 -8 24 -17 24c-37 0 -96 -153 -143 -310z" />
    <glyph glyph-name="V.1" horiz-adv-x="166" 
 />
    <glyph glyph-name="W" unicode="W" horiz-adv-x="980" 
d="M243 442c8 28 35 10 29 -9c-23 -70 -119 -83 -179 -54c-72 33 -107 126 -71 208c48 105 178 145 288 95c103 -47 139 -153 80 -278l-117 -255c-32 -70 -36 -175 74 -175c59 0 123 39 182 98c-2 11 -2 23 -2 34c0 216 127 433 192 433c25 -1 45 -26 46 -57
c-1 -118 -92 -299 -206 -418c12 -51 45 -90 98 -89c102 3 168 103 198 165l165 358c24 49 97 182 191 131c24 -9 10 -37 -13 -26c-70 38 -131 -75 -150 -118l-165 -355c-40 -85 -113 -184 -233 -184c-58 1 -97 42 -114 95c-61 -58 -128 -96 -189 -96
c-130 0 -145 123 -100 216l117 254c37 82 39 192 -66 240c-90 42 -205 16 -248 -79c-32 -67 -2 -145 54 -172c44 -19 118 -18 139 38zM555 106v-6c102 115 181 282 181 386c0 16 -9 25 -18 24c-46 1 -164 -226 -163 -404z" />
    <glyph glyph-name="monaco" horiz-adv-x="321" 
 />
    <glyph glyph-name="X" unicode="X" horiz-adv-x="667" 
d="M20 -45c113 0 282 160 348 224l105 102c-3 254 -64 392 -209 392c-67 0 -132 -32 -159 -98c-28 -67 6 -145 63 -172c45 -19 119 -18 138 38c6 28 34 10 29 -9c-20 -70 -115 -83 -176 -54c-74 33 -114 126 -82 208c31 75 106 116 186 116c164 0 234 -147 240 -392
c153 149 304 295 304 295c23 22 42 -2 20 -22c0 0 -164 -158 -323 -313c0 -302 62 -509 216 -509c87 0 135 58 143 101c4 15 -1 39 -13 51c-19 20 11 40 27 22c14 -15 21 -48 16 -73c-11 -55 -71 -131 -179 -131c-171 1 -238 214 -241 509l-85 -83
c-68 -66 -230 -231 -367 -232c-72 0 -131 32 -142 79c-4 21 25 28 30 6c7 -33 54 -55 111 -55z" />
    <glyph glyph-name="Y" unicode="Y" horiz-adv-x="719" 
d="M397 2c-129 0 -145 123 -100 216l90 197c40 88 39 193 -66 240c-89 42 -205 16 -247 -79c-33 -66 -3 -145 53 -172c44 -19 118 -18 140 38c7 29 34 10 28 -9c-23 -69 -118 -83 -179 -54c-71 33 -107 126 -71 208c48 106 179 145 288 95c104 -47 140 -153 80 -277
l-91 -199c-31 -70 -35 -175 75 -175c130 0 190 102 225 173l11 24l132 287c10 23 38 15 30 -7l-253 -549c-53 -116 -126 -199 -230 -198c-84 0 -118 46 -118 96c-1 42 35 97 97 98c21 1 20 -29 -2 -26c-43 -5 -65 -43 -65 -72c-1 -34 24 -69 89 -68c73 -1 147 62 196 170
l53 115c-40 -39 -92 -72 -165 -72z" />
    <glyph glyph-name="Z" unicode="Z" horiz-adv-x="772" 
d="M495 674c167 -1 268 -83 380 -114l5 5c17 20 80 94 148 94c49 0 69 -25 69 -55c0 -36 -54 -86 -138 -86c-26 0 -49 3 -73 9l-413 -469c-13 -15 -26 -28 -39 -40c168 -132 333 -340 574 -340c126 0 200 76 209 148c4 43 -14 66 -37 87c-18 14 2 29 15 21
c39 -24 55 -66 51 -112c-10 -83 -92 -174 -239 -174c-226 1 -378 159 -520 287c-25 23 -50 44 -75 64c-78 -65 -154 -88 -218 -88c-95 -1 -174 37 -174 105c0 79 92 112 166 111c80 0 153 -37 225 -91c13 13 26 26 40 42l403 458c-105 35 -204 108 -361 108
c-66 0 -142 -32 -171 -98c-32 -67 -2 -145 54 -172c44 -19 118 -18 139 38c8 28 35 10 29 -9c-23 -70 -119 -83 -179 -54c-72 33 -107 126 -71 208c34 75 121 117 201 117zM194 -59c55 0 123 19 194 76c-65 47 -130 80 -201 80c-84 0 -136 -31 -135 -80
c0 -49 72 -76 142 -76zM1028 629c-46 0 -94 -48 -119 -77c16 -3 33 -4 50 -4c66 0 108 32 108 56c0 14 -12 25 -39 25z" />
    <glyph glyph-name="dotlessi" unicode="&#x131;" horiz-adv-x="151" 
d="M58 0c-44 0 -71 20 -71 63c0 16 4 33 13 52l112 245c8 19 37 9 28 -12l-112 -245c-7 -16 -11 -31 -11 -40c0 -24 15 -35 41 -35c56 0 85 70 93 87c8 15 32 7 25 -11c-14 -37 -58 -104 -118 -104z" />
    <glyph glyph-name="a.555" horiz-adv-x="288" 
d="M296 348l-133 -292c-27 -58 -38 -150 38 -150c6 0 13 1 21 3c23 9 22 -24 0 -30c-9 -2 -17 -3 -24 -3c-80 0 -100 68 -77 146c-16 -13 -35 -22 -58 -22c-45 0 -76 21 -76 64c0 16 4 32 13 51l74 158c13 29 51 102 119 102c30 0 55 -13 65 -36l10 21c8 19 37 9 28 -12z
M156 115l74 163c5 13 9 24 9 33c0 24 -19 36 -46 36c-52 0 -82 -65 -93 -90l-72 -154c-7 -15 -11 -30 -11 -39c0 -24 19 -36 46 -36c44 0 74 49 88 76z" />
    <glyph glyph-name="d.555" horiz-adv-x="287" 
d="M399 572l-231 -504c-27 -58 -43 -162 33 -162c6 0 13 1 21 3c23 9 22 -24 0 -30c-9 -2 -17 -3 -24 -3c-80 0 -91 77 -77 146c-16 -13 -35 -22 -58 -22c-45 0 -76 21 -76 64c0 16 4 32 13 51l74 158c13 29 51 102 119 102c30 0 55 -13 65 -36l113 245c8 19 37 9 28 -12z
M156 115l72 157c7 16 11 29 11 39c0 24 -19 36 -46 36c-52 0 -82 -65 -93 -90l-72 -154c-7 -15 -11 -30 -11 -39c0 -24 19 -36 46 -36c44 0 74 49 88 76z" />
    <glyph glyph-name="h.555" horiz-adv-x="281" 
d="M132 62l96 210c7 15 11 30 11 39c0 24 -19 36 -46 36c-43 0 -73 -46 -87 -74l-77 -169c-15 -32 -58 -104 -122 -104c-21 0 -20 28 0 28c50 0 78 55 93 87l215 469c8 19 37 9 28 -12l-98 -215c14 11 30 18 48 18c45 0 76 -21 76 -64c0 -16 -4 -32 -13 -51l-96 -210
c-27 -58 -35 -144 41 -144c6 0 13 1 21 3c23 9 22 -24 0 -30c-9 -2 -17 -3 -24 -3c-103 0 -100 111 -66 186z" />
    <glyph glyph-name="i.555" horiz-adv-x="133" 
d="M-23 65l135 295c8 19 37 9 28 -12l-135 -295c-27 -58 -36 -147 40 -147c6 0 13 1 21 3c23 9 22 -24 0 -30c-9 -2 -17 -3 -24 -3c-103 0 -99 114 -65 189zM199 459c-3 -15 -17 -27 -32 -27c-16 0 -25 12 -22 27c2 15 17 28 31 28c15 0 26 -13 23 -28z" />
    <glyph glyph-name="k.555" horiz-adv-x="257" 
d="M241 299c4 32 -12 48 -40 48c-45 0 -82 -51 -97 -78l-75 -165c-15 -32 -58 -104 -122 -104c-21 0 -20 28 0 28c50 0 78 55 93 87l215 469c8 19 37 9 28 -12l-102 -222c18 14 39 25 60 25c46 0 75 -27 70 -76c-7 -62 -87 -138 -159 -152c-4 -16 -6 -34 -6 -52
c0 -91 52 -190 153 -190c20 0 40 4 62 12c23 8 27 -23 4 -30c-22 -8 -44 -12 -66 -12c-121 0 -183 115 -183 220c0 28 5 55 14 80c65 0 144 68 151 124z" />
    <glyph glyph-name="l.555" horiz-adv-x="131" 
d="M-24 63l239 521c9 19 37 9 28 -12l-239 -521c-27 -58 -35 -145 41 -145c6 0 13 1 21 3c23 9 22 -24 0 -30c-9 -2 -17 -3 -24 -3c-103 0 -100 112 -66 187z" />
    <glyph glyph-name="m.555" horiz-adv-x="437" 
d="M260 269l-117 -254c-10 -22 -41 -20 -33 0l118 257c7 15 11 30 11 39c0 24 -19 38 -46 36c-44 -4 -74 -50 -88 -76l-76 -167c-15 -32 -58 -104 -122 -104c-21 0 -20 28 0 28c50 0 78 55 93 87l113 246c7 17 33 10 29 -8c15 12 32 20 51 22c41 2 70 -17 75 -52
c20 25 48 49 81 52c46 3 76 -21 76 -64c0 -16 -4 -32 -13 -51l-100 -217c-27 -58 -31 -137 45 -137c6 0 13 1 21 3c23 9 22 -24 0 -30c-9 -2 -17 -3 -24 -3c-103 0 -104 104 -70 179l100 217c7 15 11 30 11 39c0 24 -19 38 -46 36c-45 -4 -74 -49 -89 -78z" />
    <glyph glyph-name="n.555" horiz-adv-x="280" 
d="M128 56l99 216c7 15 11 30 11 39c0 24 -19 38 -46 36c-38 -3 -66 -38 -81 -64l-82 -179c-15 -32 -58 -104 -122 -104c-21 0 -20 28 0 28c50 0 78 55 93 87l113 246c7 17 31 10 29 -7c15 11 32 19 50 21c46 3 76 -21 76 -64c0 -16 -4 -32 -13 -51l-99 -216
c-27 -58 -32 -138 44 -138c6 0 13 1 21 3c23 9 22 -24 0 -30c-9 -2 -17 -3 -24 -3c-103 0 -103 105 -69 180z" />
    <glyph glyph-name="r.555" horiz-adv-x="268" 
d="M104 49l103 227c7 15 11 30 11 39c0 24 -13 38 -34 36c-16 0 -28 5 -36 15l-123 -262c-9 -19 -36 -13 -25 11l143 310l3 8c9 17 38 7 28 -13c-14 -31 -6 -41 10 -41c40 3 64 -21 64 -64c0 -16 -4 -32 -13 -51l-103 -227c-27 -58 -29 -131 47 -131c6 0 13 1 21 3
c23 9 22 -24 0 -30c-9 -2 -17 -3 -24 -3c-103 0 -107 98 -72 173z" />
    <glyph glyph-name="t.555" horiz-adv-x="147" 
d="M-16 80l119 262h-28c-20 0 -12 28 9 28h32l49 106c8 19 37 9 28 -12l-43 -94h51c19 0 10 -28 -9 -28h-55l-125 -274c-27 -58 -43 -162 33 -162c6 0 13 1 21 3c23 9 22 -24 0 -30c-9 -2 -17 -3 -24 -3c-103 0 -92 129 -58 204z" />
    <glyph glyph-name="u.555" horiz-adv-x="286" 
d="M296 348l-128 -280c-27 -58 -43 -162 33 -162c6 0 13 1 21 3c23 9 22 -24 0 -30c-9 -2 -17 -3 -24 -3c-80 0 -91 77 -77 146c-16 -13 -35 -22 -58 -22c-45 0 -76 21 -76 64c0 16 4 32 13 51l113 245c8 19 37 9 28 -12l-113 -245c-7 -15 -11 -30 -11 -39
c0 -24 19 -36 46 -36c44 0 74 49 88 76l5 11l112 245c8 19 37 9 28 -12z" />
    <glyph glyph-name="one" unicode="1" horiz-adv-x="255" 
d="M257 533c38 77 68 94 91 94c17 0 30 -15 30 -37c0 -24 -15 -58 -48 -99c-32 -44 -71 -82 -110 -109l-173 -374c-13 -20 -38 -11 -27 12l155 336c-18 -8 -34 -14 -48 -15c-25 -6 -34 27 -4 30c20 2 46 13 73 30zM284 520l-37 -81c22 20 43 42 62 67c29 35 41 69 41 85
c0 5 -4 9 -7 9c-9 0 -31 -22 -59 -80z" />
    <glyph glyph-name="A" unicode="A" horiz-adv-x="1055" 
d="M861 51l84 184h-212c-95 -162 -240 -315 -424 -315c-151 0 -278 108 -278 264c0 136 106 264 266 264c136 0 203 -78 203 -170c0 -34 -16 -71 -44 -98c-19 -15 -41 2 -21 21c23 21 35 50 35 77c0 77 -57 140 -175 140c-142 0 -234 -112 -234 -234
c0 -139 122 -234 248 -234c181 0 317 161 408 318c109 207 294 408 550 408c37 0 64 -8 83 -22c20 -13 1 -40 -16 -26c-13 11 -34 19 -62 20c-87 0 -154 -115 -189 -190l-194 -419c-27 -58 -43 -162 33 -162c6 0 13 1 21 3c23 9 22 -24 0 -30c-9 -2 -17 -3 -24 -3
c-103 0 -93 129 -58 204zM1174 638c-170 -36 -314 -166 -426 -376h210l89 189c35 74 77 145 127 187z" />
    <glyph glyph-name="acute" unicode="&#xb4;" horiz-adv-x="258" 
d="M208 474c-17 -11 -33 11 -15 23l139 98c20 13 31 -13 15 -23z" />
    <glyph glyph-name="two" unicode="2" horiz-adv-x="535" 
d="M-3 -7c-11 0 -18 10 -18 16s7 17 18 17h15c211 12 537 244 546 415c4 86 -55 160 -159 160c-122 0 -204 -96 -207 -179c-1 -33 11 -73 29 -96c7 -9 5 -18 0 -24c-5 -7 -18 -9 -26 2c-21 33 -35 77 -34 118c4 96 92 210 239 210c123 0 193 -83 190 -191
c-5 -116 -141 -293 -411 -407l-16 -7l-1 -1h302c12 0 17 -11 17 -17c0 -8 -5 -16 -17 -16h-467z" />
    <glyph glyph-name="three" unicode="3" horiz-adv-x="519" 
d="M209 150c-47 0 -76 22 -76 47c0 29 34 55 81 55c44 0 88 -18 120 -49c120 47 191 156 191 246c0 58 -43 147 -161 147c-119 0 -196 -88 -196 -166c0 -56 39 -113 109 -113c58 0 119 40 119 101c0 25 -10 41 -14 48c-6 11 15 26 28 5c8 -13 16 -38 16 -58
c0 -58 -67 -126 -150 -126s-137 67 -137 142c0 98 93 197 225 197c129 0 192 -97 192 -177c0 -95 -73 -215 -201 -270c19 -27 31 -60 31 -98c0 -158 -198 -344 -415 -344c-31 0 -131 5 -131 29c0 9 8 19 18 19c2 0 4 0 6 -1c40 -10 71 -15 109 -15c189 0 381 165 381 312
c0 34 -11 63 -29 87c-35 -12 -74 -18 -116 -18zM209 181c32 0 63 4 91 12c-24 18 -56 29 -91 29c-28 0 -45 -9 -46 -21c0 -9 16 -20 46 -20z" />
    <glyph glyph-name="four" unicode="4" horiz-adv-x="491" 
d="M75 69c-31 -29 -46 -41 -52 -43h246l247 538c3 9 10 14 19 14c13 0 15 -13 11 -25l-243 -527h84c23 0 22 -32 -3 -33h-99l-87 -192c-4 -8 -8 -12 -15 -12c-9 0 -20 11 -13 27l82 177h-253c-28 0 -33 24 -4 47s55 48 80 74c119 124 250 313 250 487c0 22 -1 38 -8 58
c-5 12 1 26 14 26c10 0 18 -8 20 -19c4 -16 6 -37 6 -58c0 -206 -151 -419 -282 -539z" />
    <glyph glyph-name="six" unicode="6" horiz-adv-x="535" 
d="M181 212c11 -17 -14 -41 -27 -22c-8 10 -14 30 -14 53c0 74 86 172 204 172c98 0 172 -72 172 -162c0 -126 -113 -270 -286 -270c-131 0 -202 89 -202 203c0 298 412 489 629 503c12 0 19 -8 19 -15c0 -8 -7 -15 -19 -15c-232 -18 -597 -204 -597 -475
c0 -93 61 -170 169 -170c149 0 255 126 255 229c0 78 -55 140 -140 140c-89 0 -173 -67 -173 -140c0 -14 5 -24 10 -31z" />
    <glyph glyph-name="nine" unicode="9" horiz-adv-x="544" 
d="M459 401c-11 17 14 41 27 22c8 -10 14 -30 14 -53c0 -74 -86 -172 -204 -172c-98 0 -172 72 -172 162c0 126 113 270 286 270c131 0 202 -89 202 -203c0 -298 -412 -489 -629 -503c-12 0 -19 8 -19 15c0 8 7 15 19 15c232 18 597 204 597 475c0 93 -61 170 -169 170
c-149 0 -255 -126 -255 -229c0 -78 55 -140 140 -140c89 0 173 67 173 140c0 14 -5 24 -10 31z" />
    <glyph glyph-name="aacute" unicode="&#xe1;" 
d="M214 0c-38 0 -63 15 -70 46c-19 -24 -46 -46 -81 -46c-45 0 -76 21 -76 64c0 16 4 32 13 51l74 158c13 29 51 102 119 102c30 0 55 -13 65 -36l10 21c8 19 37 9 28 -12l-112 -245c-7 -16 -11 -31 -11 -40c0 -24 15 -35 41 -35c56 0 85 70 93 87c8 15 32 7 25 -11
c-14 -37 -58 -104 -118 -104zM63 28c45 0 75 50 88 77l77 167c7 16 11 29 11 39c0 24 -19 36 -46 36c-52 0 -82 -65 -93 -90l-72 -154c-7 -15 -11 -30 -11 -39c0 -24 19 -36 46 -36zM205 474c-17 -11 -33 11 -15 23l139 98c20 13 31 -13 15 -23z" />
    <glyph glyph-name="iacute" unicode="&#xed;" horiz-adv-x="151" 
d="M58 0c-44 0 -71 20 -71 63c0 16 4 33 13 52l112 245c8 19 37 9 28 -12l-112 -245c-7 -16 -11 -31 -11 -40c0 -24 15 -35 41 -35c56 0 85 70 93 87c8 15 32 7 25 -11c-14 -37 -58 -104 -118 -104zM189 474c-17 -11 -33 11 -15 23l139 98c20 13 31 -13 15 -23z" />
    <glyph glyph-name="oacute" unicode="&#xf3;" horiz-adv-x="269" 
d="M63 0c-45 0 -76 21 -76 64c0 16 4 32 13 51l74 158c13 29 51 102 119 102c45 0 76 -21 76 -64c0 -16 -4 -32 -13 -51l-74 -158c-13 -29 -51 -102 -119 -102zM17 64c0 -24 19 -36 46 -36c52 0 82 65 93 90l72 154c7 15 11 30 11 39c0 24 -19 36 -46 36
c-52 0 -82 -65 -93 -90l-72 -154c-7 -15 -11 -30 -11 -39zM202 474c-17 -11 -33 11 -15 23l139 98c20 13 31 -13 15 -23z" />
    <glyph glyph-name="eacute" unicode="&#xe9;" horiz-adv-x="232" 
d="M186 375c57 0 79 -41 57 -95c-31 -77 -70 -111 -129 -111c-19 0 -39 6 -51 17l-18 -39c-34 -72 -9 -119 57 -119s114 57 130 87c8 15 33 7 25 -11c-23 -53 -85 -104 -155 -104c-84 0 -135 54 -85 159l54 114c13 29 49 102 115 102zM211 285c10 24 19 62 -25 62
c-50 0 -78 -65 -89 -90l-21 -45c6 -5 24 -12 37 -12c47 0 75 29 98 85zM201 474c-17 -11 -33 11 -15 23l139 98c20 13 31 -13 15 -23z" />
    <glyph glyph-name="uacute" unicode="&#xfa;" 
d="M141 348l-113 -245c-7 -15 -11 -30 -11 -39c0 -24 19 -36 46 -36c45 0 75 50 88 77l5 10l112 245c8 19 37 9 28 -12l-112 -245c-7 -16 -11 -31 -11 -40c0 -24 15 -35 41 -35c56 0 85 70 93 87c8 15 32 7 25 -11c-14 -37 -58 -104 -118 -104c-38 0 -63 15 -70 46
c-19 -24 -46 -46 -81 -46c-45 0 -76 21 -76 64c0 16 4 32 13 51l113 245c8 19 37 9 28 -12zM207 474c-17 -11 -33 11 -15 23l139 98c20 13 31 -13 15 -23z" />
    <glyph glyph-name="yacute" unicode="&#xfd;" horiz-adv-x="291" 
d="M-128 -31c21 0 21 -28 0 -28c-44 -3 -66 -42 -66 -70c0 -35 24 -69 89 -69c73 0 147 62 196 170l19 42c-14 -9 -29 -14 -47 -14c-45 0 -76 21 -76 64c0 16 4 32 13 51l113 245c8 19 37 9 28 -12l-113 -245c-7 -15 -11 -30 -11 -39c0 -24 19 -36 46 -36c51 0 83 65 93 87
l112 245c8 19 37 9 28 -12l-172 -376c-52 -115 -127 -198 -229 -198c-85 0 -119 47 -119 97c0 41 35 96 96 98zM198 0c-15 0 -15 28 0 28c56 0 85 70 93 87c8 15 32 7 25 -11c-14 -37 -58 -104 -118 -104zM234 474c-17 -11 -33 11 -15 23l139 98c20 13 31 -13 15 -23z" />
    <glyph glyph-name="Uacute" unicode="&#xda;" horiz-adv-x="743" 
d="M683 -254c-142 0 -163 155 -154 288c-59 -54 -123 -89 -182 -89c-130 0 -145 123 -100 216l117 254c40 87 39 192 -66 240c-90 42 -205 16 -248 -79c-32 -67 -2 -145 54 -172c44 -19 118 -18 139 38c8 28 35 10 29 -9c-23 -70 -119 -83 -179 -54c-72 33 -107 126 -71 208
c48 105 178 145 288 95c103 -47 139 -153 80 -278l-117 -255c-32 -70 -36 -175 74 -175c60 0 126 41 186 102c7 56 16 104 23 129c45 180 120 334 173 334c25 0 44 -26 44 -57c-5 -118 -99 -301 -214 -420c-12 -129 4 -286 125 -286c87 0 120 64 121 107c1 15 -2 27 -8 32
c-16 14 8 36 23 22c8 -8 16 -29 15 -54c-2 -55 -44 -137 -152 -137zM584 200c-7 -22 -14 -54 -19 -90c98 114 176 275 179 376c1 16 -8 24 -17 24c-37 0 -96 -153 -143 -310zM642 767c-17 -11 -33 11 -15 23l139 98c20 13 31 -13 15 -23z" />
    <glyph glyph-name="Eacute" unicode="&#xc9;" horiz-adv-x="700" 
d="M310 -136c-190 0 -260 119 -260 223c0 108 99 232 276 265c7 0 14 -1 19 -1c-54 27 -69 88 -69 130c0 119 126 219 266 219c136 0 219 -80 219 -159c0 -77 -66 -153 -152 -153c-78 0 -114 49 -114 96c0 19 6 44 17 58c14 18 39 0 25 -17c-7 -9 -13 -25 -13 -41
c0 -35 25 -67 85 -67c69 0 122 57 122 119c0 67 -71 136 -191 136c-123 0 -235 -85 -235 -187c0 -68 30 -122 110 -122h18c13 0 19 -9 19 -17s-6 -16 -18 -16h-36c-173 0 -319 -117 -319 -242c0 -88 60 -194 232 -194c120 0 226 100 226 198c0 60 -43 116 -110 116
c-65 0 -107 -38 -108 -76c-2 -14 -7 -18 -15 -18c-7 0 -14 3 -14 18c1 51 53 107 137 107c85 0 140 -70 140 -147c0 -122 -131 -228 -257 -228zM566 767c-17 -11 -33 11 -15 23l139 98c20 13 31 -13 15 -23z" />
    <glyph glyph-name="Aacute" unicode="&#xc1;" horiz-adv-x="1083" 
d="M861 51l84 184h-212c-95 -162 -240 -315 -424 -315c-151 0 -278 108 -278 264c0 136 106 264 266 264c136 0 203 -78 203 -170c0 -34 -16 -71 -44 -98c-19 -15 -41 2 -21 21c23 21 35 50 35 77c0 77 -57 140 -175 140c-142 0 -234 -112 -234 -234
c0 -139 122 -234 248 -234c181 0 317 161 408 318c109 207 294 408 550 408c37 0 64 -8 83 -22c20 -13 1 -40 -16 -26c-13 11 -34 19 -62 20c-87 0 -154 -115 -189 -190l-194 -419c-27 -58 -43 -162 33 -162c6 0 13 1 21 3c23 9 22 -24 0 -30c-9 -2 -17 -3 -24 -3
c-103 0 -93 129 -58 204zM1174 638c-170 -36 -314 -166 -426 -376h210l89 189c35 74 77 145 127 187zM1174 767c-17 -11 -33 11 -15 23l139 98c20 13 31 -13 15 -23z" />
    <glyph glyph-name="Oacute" unicode="&#xd3;" horiz-adv-x="833" 
d="M116 306c47 202 238 366 425 366c162 0 270 -120 270 -282c0 -29 -4 -60 -10 -89c-47 -202 -238 -365 -425 -365c-162 0 -271 120 -271 282c0 30 4 59 11 88zM145 301c-6 -30 -10 -57 -10 -83c0 -145 96 -252 241 -252c172 0 349 155 395 340c7 30 10 59 10 84
c0 145 -95 252 -240 252c-174 0 -352 -153 -396 -341zM593 767c-17 -11 -33 11 -15 23l139 98c20 13 31 -13 15 -23z" />
    <glyph glyph-name="Yacute" unicode="&#xdd;" horiz-adv-x="719" 
d="M397 2c-129 0 -145 123 -100 216l90 197c40 88 39 193 -66 240c-89 42 -205 16 -247 -79c-33 -66 -3 -145 53 -172c44 -19 118 -18 140 38c7 29 34 10 28 -9c-23 -69 -118 -83 -179 -54c-71 33 -107 126 -71 208c48 106 179 145 288 95c104 -47 140 -153 80 -277
l-91 -199c-31 -70 -35 -175 75 -175c130 0 190 102 225 173l11 24l132 287c10 23 38 15 30 -7l-253 -549c-53 -116 -126 -199 -230 -198c-84 0 -118 46 -118 96c-1 42 35 97 97 98c21 1 20 -29 -2 -26c-43 -5 -65 -43 -65 -72c-1 -34 24 -69 89 -68c73 -1 147 62 196 170
l53 115c-40 -39 -92 -72 -165 -72zM667 767c-17 -11 -33 11 -15 23l139 98c20 13 31 -13 15 -23z" />
    <glyph glyph-name="Iacute" unicode="&#xcd;" horiz-adv-x="580" 
d="M578 670c36 0 81 -5 124 -20c21 -7 27 -16 27 -25c0 -7 -4 -15 -8 -19c-82 -80 -130 -155 -199 -302c-76 -160 -173 -364 -370 -364c-66 0 -125 28 -139 71c-7 22 20 35 28 12c10 -30 54 -53 111 -53c165 0 257 164 321 301v-1l40 87c46 100 129 220 183 264
c-1 -1 -7 2 -13 4c-33 10 -68 14 -105 14c-136 0 -237 -106 -237 -244c0 -21 3 -44 9 -64c5 -16 0 -28 -12 -28c-7 0 -13 7 -17 16c-8 25 -12 52 -12 77c0 151 117 274 269 274zM725 767c-17 -11 -33 11 -15 23l139 98c20 13 31 -13 15 -23z" />
    <glyph glyph-name="five" unicode="5" horiz-adv-x="487" 
d="M151 318c-15 -9 -29 8 -20 21c49 71 110 209 123 273c3 15 30 12 31 -2c3 -19 25 -24 51 -24c28 0 76 23 110 23c32 0 57 -10 65 -36c6 -18 -21 -33 -28 -10c-4 12 -19 16 -38 16c-28 0 -77 -23 -110 -23c-24 0 -46 4 -61 15c-19 -60 -56 -145 -94 -209c19 6 41 9 64 9
c97 0 179 -79 179 -193c0 -210 -239 -450 -482 -450c-31 0 -131 5 -130 29c0 9 9 19 19 19c2 0 4 0 6 -1c39 -10 70 -15 108 -15c215 0 447 218 447 417c0 94 -60 162 -153 162c-40 0 -75 -7 -86 -19c0 -1 -1 -2 -1 -2z" />
    <glyph glyph-name="eight" unicode="8" horiz-adv-x="550" 
d="M478 699c71 0 119 -47 119 -105c0 -80 -81 -120 -179 -155c51 -56 113 -117 113 -205c0 -31 -11 -73 -35 -110c-47 -79 -137 -141 -251 -141c-122 0 -203 77 -203 185c0 178 174 234 321 284c-24 31 -41 65 -41 107c0 79 76 140 156 140zM465 136c22 31 30 73 30 98
c0 83 -61 136 -111 192c-145 -50 -310 -101 -310 -258c0 -91 70 -154 170 -154c98 0 178 55 221 122zM566 594c0 42 -36 75 -88 75c-65 0 -126 -48 -126 -110c0 -34 19 -65 45 -96c94 32 169 65 169 131z" />
    <glyph glyph-name="seven" unicode="7" horiz-adv-x="461" 
d="M552 610c5 16 36 8 29 -8c-8 -18 -22 -31 -41 -38c-153 -104 -383 -346 -416 -556c-3 -22 -33 -21 -30 4c21 183 220 419 389 544c-57 2 -100 29 -154 29c-35 0 -67 -7 -73 -22c-13 -23 -36 -8 -26 10c14 29 57 42 105 42c62 0 105 -29 161 -29c26 0 49 5 56 24z" />
    <glyph glyph-name="zero" unicode="0" horiz-adv-x="564" 
d="M87 305c51 177 206 318 347 318c117 0 191 -89 195 -216c7 -204 -179 -437 -363 -437c-117 0 -191 89 -195 214c-1 36 2 77 16 121zM115 295c-12 -40 -15 -77 -14 -111c3 -107 65 -184 164 -184c180 0 340 233 334 407c-3 109 -65 186 -164 186
c-129 0 -272 -133 -320 -298z" />
    <glyph glyph-name="exclam" unicode="!" horiz-adv-x="211" 
d="M107 36c-4 -19 -22 -35 -42 -35s-32 16 -28 35c2 20 22 36 40 36c20 0 34 -16 30 -36zM330 572l-195 -437c-11 -24 -40 -13 -30 9l197 440c9 19 37 9 28 -12z" />
    <glyph glyph-name="question" unicode="?" horiz-adv-x="325" 
d="M142 36c-4 -19 -22 -35 -42 -35s-32 16 -28 35c2 20 22 36 40 36c20 0 34 -16 30 -36zM314 386c13 15 34 -8 20 -20c-24 -24 -59 -41 -98 -41c-75 0 -121 61 -121 130c0 85 78 171 195 171c129 0 192 -97 192 -177c0 -200 -294 -214 -343 -319c-9 -16 -34 -8 -22 17
c52 110 334 124 334 302c0 58 -43 147 -161 147c-104 0 -166 -75 -166 -140c0 -50 31 -101 93 -101c28 0 57 11 77 31z" />
    <glyph glyph-name="ampersand" unicode="&#x26;" horiz-adv-x="792" 
d="M363 529c15 13 36 -2 24 -16c-6 -9 -11 -19 -11 -31c0 -45 42 -74 90 -75c60 0 99 47 99 100c0 67 -70 143 -183 143c-115 0 -202 -71 -202 -163c0 -53 42 -117 135 -120h7c11 0 16 -7 16 -14s-5 -15 -16 -15h-9c-112 -4 -211 -98 -211 -201c0 -99 84 -206 256 -207
c166 0 261 130 261 214c0 16 -5 93 -80 116c-12 4 -26 6 -40 7h-6c-34 0 -71 -20 -88 -54c-14 -17 -39 -6 -23 20c24 40 70 64 111 64h6c23 -1 42 -6 59 -13c58 -21 110 -61 165 -61c52 0 84 41 84 77c0 16 -7 30 -21 39c-20 10 -3 37 16 26c24 -15 35 -38 35 -65
c0 -50 -44 -107 -114 -107c-35 0 -65 12 -94 27c13 -23 22 -47 22 -76c0 -94 -104 -243 -293 -243c-196 1 -284 127 -284 236c0 91 73 183 169 216c-61 27 -92 84 -92 135c0 105 101 189 231 189c126 0 210 -89 210 -169c0 -67 -49 -129 -126 -129c-70 0 -117 41 -117 104
c0 18 2 31 14 46z" />
    <glyph glyph-name="dieresis" unicode="&#xa8;" horiz-adv-x="151" 
d="M162 459c-3 -15 -17 -27 -32 -27c-16 0 -25 12 -22 27c2 15 17 28 31 28c15 0 26 -13 23 -28zM251 459c-3 -15 -17 -27 -32 -27c-16 0 -25 12 -22 27c2 15 17 28 31 28c15 0 26 -13 23 -28z" />
    <glyph glyph-name="idieresis" unicode="&#xef;" horiz-adv-x="151" 
d="M58 0c-44 0 -71 20 -71 63c0 16 4 33 13 52l112 245c8 19 37 9 28 -12l-112 -245c-7 -16 -11 -31 -11 -40c0 -24 15 -35 41 -35c56 0 85 70 93 87c8 15 32 7 25 -11c-14 -37 -58 -104 -118 -104zM145 459c-3 -15 -17 -27 -32 -27c-16 0 -25 12 -22 27c2 15 17 28 31 28
c15 0 26 -13 23 -28zM234 459c-3 -15 -17 -27 -32 -27c-16 0 -25 12 -22 27c2 15 17 28 31 28c15 0 26 -13 23 -28z" />
    <glyph glyph-name="odieresis" unicode="&#xf6;" horiz-adv-x="269" 
d="M63 0c-45 0 -76 21 -76 64c0 16 4 32 13 51l74 158c13 29 51 102 119 102c45 0 76 -21 76 -64c0 -16 -4 -32 -13 -51l-74 -158c-13 -29 -51 -102 -119 -102zM17 64c0 -24 19 -36 46 -36c52 0 82 65 93 90l72 154c7 15 11 30 11 39c0 24 -19 36 -46 36
c-52 0 -82 -65 -93 -90l-72 -154c-7 -15 -11 -30 -11 -39zM229 459c-3 -15 -17 -27 -32 -27c-16 0 -25 12 -22 27c2 15 17 28 31 28c15 0 26 -13 23 -28zM318 459c-3 -15 -17 -27 -32 -27c-16 0 -25 12 -22 27c2 15 17 28 31 28c15 0 26 -13 23 -28z" />
    <glyph glyph-name="udieresis" unicode="&#xfc;" 
d="M141 348l-113 -245c-7 -15 -11 -30 -11 -39c0 -24 19 -36 46 -36c45 0 75 50 88 77l5 10l112 245c8 19 37 9 28 -12l-112 -245c-7 -16 -11 -31 -11 -40c0 -24 15 -35 41 -35c56 0 85 70 93 87c8 15 32 7 25 -11c-14 -37 -58 -104 -118 -104c-38 0 -63 15 -70 46
c-19 -24 -46 -46 -81 -46c-45 0 -76 21 -76 64c0 16 4 32 13 51l113 245c8 19 37 9 28 -12zM221 459c-3 -15 -17 -27 -32 -27c-16 0 -25 12 -22 27c2 15 17 28 31 28c15 0 26 -13 23 -28zM310 459c-3 -15 -17 -27 -32 -27c-16 0 -25 12 -22 27c2 15 17 28 31 28
c15 0 26 -13 23 -28z" />
    <glyph glyph-name="ydieresis" unicode="&#xff;" horiz-adv-x="291" 
d="M-128 -31c21 0 21 -28 0 -28c-44 -3 -66 -42 -66 -70c0 -35 24 -69 89 -69c73 0 147 62 196 170l19 42c-14 -9 -29 -14 -47 -14c-45 0 -76 21 -76 64c0 16 4 32 13 51l113 245c8 19 37 9 28 -12l-113 -245c-7 -15 -11 -30 -11 -39c0 -24 19 -36 46 -36c51 0 83 65 93 87
l112 245c8 19 37 9 28 -12l-172 -376c-52 -115 -127 -198 -229 -198c-85 0 -119 47 -119 97c0 41 35 96 96 98zM198 0c-15 0 -15 28 0 28c56 0 85 70 93 87c8 15 32 7 25 -11c-14 -37 -58 -104 -118 -104zM218 459c-3 -15 -17 -27 -32 -27c-16 0 -25 12 -22 27
c2 15 17 28 31 28c15 0 26 -13 23 -28zM307 459c-3 -15 -17 -27 -32 -27c-16 0 -25 12 -22 27c2 15 17 28 31 28c15 0 26 -13 23 -28z" />
    <glyph glyph-name="edieresis" unicode="&#xeb;" horiz-adv-x="232" 
d="M186 375c57 0 79 -41 57 -95c-31 -77 -70 -111 -129 -111c-19 0 -39 6 -51 17l-18 -39c-34 -72 -9 -119 57 -119s114 57 130 87c8 15 33 7 25 -11c-23 -53 -85 -104 -155 -104c-84 0 -135 54 -85 159l54 114c13 29 49 102 115 102zM211 285c10 24 19 62 -25 62
c-50 0 -78 -65 -89 -90l-21 -45c6 -5 24 -12 37 -12c47 0 75 29 98 85zM206 459c-3 -15 -17 -27 -32 -27c-16 0 -25 12 -22 27c2 15 17 28 31 28c15 0 26 -13 23 -28zM295 459c-3 -15 -17 -27 -32 -27c-16 0 -25 12 -22 27c2 15 17 28 31 28c15 0 26 -13 23 -28z" />
    <glyph glyph-name="adieresis" unicode="&#xe4;" 
d="M214 0c-38 0 -63 15 -70 46c-19 -24 -46 -46 -81 -46c-45 0 -76 21 -76 64c0 16 4 32 13 51l74 158c13 29 51 102 119 102c30 0 55 -13 65 -36l10 21c8 19 37 9 28 -12l-112 -245c-7 -16 -11 -31 -11 -40c0 -24 15 -35 41 -35c56 0 85 70 93 87c8 15 32 7 25 -11
c-14 -37 -58 -104 -118 -104zM63 28c45 0 75 50 88 77l77 167c7 16 11 29 11 39c0 24 -19 36 -46 36c-52 0 -82 -65 -93 -90l-72 -154c-7 -15 -11 -30 -11 -39c0 -24 19 -36 46 -36zM228 459c-3 -15 -17 -27 -32 -27c-16 0 -25 12 -22 27c2 15 17 28 31 28
c15 0 26 -13 23 -28zM317 459c-3 -15 -17 -27 -32 -27c-16 0 -25 12 -22 27c2 15 17 28 31 28c15 0 26 -13 23 -28z" />
    <glyph glyph-name="Udieresis" unicode="&#xdc;" horiz-adv-x="743" 
d="M683 -254c-142 0 -163 155 -154 288c-59 -54 -123 -89 -182 -89c-130 0 -145 123 -100 216l117 254c40 87 39 192 -66 240c-90 42 -205 16 -248 -79c-32 -67 -2 -145 54 -172c44 -19 118 -18 139 38c8 28 35 10 29 -9c-23 -70 -119 -83 -179 -54c-72 33 -107 126 -71 208
c48 105 178 145 288 95c103 -47 139 -153 80 -278l-117 -255c-32 -70 -36 -175 74 -175c60 0 126 41 186 102c7 56 16 104 23 129c45 180 120 334 173 334c25 0 44 -26 44 -57c-5 -118 -99 -301 -214 -420c-12 -129 4 -286 125 -286c87 0 120 64 121 107c1 15 -2 27 -8 32
c-16 14 8 36 23 22c8 -8 16 -29 15 -54c-2 -55 -44 -137 -152 -137zM584 200c-7 -22 -14 -54 -19 -90c98 114 176 275 179 376c1 16 -8 24 -17 24c-37 0 -96 -153 -143 -310zM634 752c-3 -15 -17 -27 -32 -27c-16 0 -25 12 -22 27c2 15 17 28 31 28c15 0 26 -13 23 -28z
M723 752c-3 -15 -17 -27 -32 -27c-16 0 -25 12 -22 27c2 15 17 28 31 28c15 0 26 -13 23 -28z" />
    <glyph glyph-name="Odieresis" unicode="&#xd6;" horiz-adv-x="833" 
d="M116 306c47 202 238 366 425 366c162 0 270 -120 270 -282c0 -29 -4 -60 -10 -89c-47 -202 -238 -365 -425 -365c-162 0 -271 120 -271 282c0 30 4 59 11 88zM145 301c-6 -30 -10 -57 -10 -83c0 -145 96 -252 241 -252c172 0 349 155 395 340c7 30 10 59 10 84
c0 145 -95 252 -240 252c-174 0 -352 -153 -396 -341zM584 752c-3 -15 -17 -27 -32 -27c-16 0 -25 12 -22 27c2 15 17 28 31 28c15 0 26 -13 23 -28zM673 752c-3 -15 -17 -27 -32 -27c-16 0 -25 12 -22 27c2 15 17 28 31 28c15 0 26 -13 23 -28z" />
    <glyph glyph-name="Edieresis" unicode="&#xcb;" horiz-adv-x="700" 
d="M310 -136c-190 0 -260 119 -260 223c0 108 99 232 276 265c7 0 14 -1 19 -1c-54 27 -69 88 -69 130c0 119 126 219 266 219c136 0 219 -80 219 -159c0 -77 -66 -153 -152 -153c-78 0 -114 49 -114 96c0 19 6 44 17 58c14 18 39 0 25 -17c-7 -9 -13 -25 -13 -41
c0 -35 25 -67 85 -67c69 0 122 57 122 119c0 67 -71 136 -191 136c-123 0 -235 -85 -235 -187c0 -68 30 -122 110 -122h18c13 0 19 -9 19 -17s-6 -16 -18 -16h-36c-173 0 -319 -117 -319 -242c0 -88 60 -194 232 -194c120 0 226 100 226 198c0 60 -43 116 -110 116
c-65 0 -107 -38 -108 -76c-2 -14 -7 -18 -15 -18c-7 0 -14 3 -14 18c1 51 53 107 137 107c85 0 140 -70 140 -147c0 -122 -131 -228 -257 -228zM573 754c-3 -15 -17 -27 -32 -27c-16 0 -25 12 -22 27c2 15 17 28 31 28c15 0 26 -13 23 -28zM662 754c-3 -15 -17 -27 -32 -27
c-16 0 -25 12 -22 27c2 15 17 28 31 28c15 0 26 -13 23 -28z" />
    <glyph glyph-name="Adieresis" unicode="&#xc4;" horiz-adv-x="1083" 
d="M861 51l84 184h-212c-95 -162 -240 -315 -424 -315c-151 0 -278 108 -278 264c0 136 106 264 266 264c136 0 203 -78 203 -170c0 -34 -16 -71 -44 -98c-19 -15 -41 2 -21 21c23 21 35 50 35 77c0 77 -57 140 -175 140c-142 0 -234 -112 -234 -234
c0 -139 122 -234 248 -234c181 0 317 161 408 318c109 207 294 408 550 408c37 0 64 -8 83 -22c20 -13 1 -40 -16 -26c-13 11 -34 19 -62 20c-87 0 -154 -115 -189 -190l-194 -419c-27 -58 -43 -162 33 -162c6 0 13 1 21 3c23 9 22 -24 0 -30c-9 -2 -17 -3 -24 -3
c-103 0 -93 129 -58 204zM1174 638c-170 -36 -314 -166 -426 -376h210l89 189c35 74 77 145 127 187zM1187 752c-3 -15 -17 -27 -32 -27c-16 0 -25 12 -22 27c2 15 17 28 31 28c15 0 26 -13 23 -28zM1276 752c-3 -15 -17 -27 -32 -27c-16 0 -25 12 -22 27c2 15 17 28 31 28
c15 0 26 -13 23 -28z" />
    <glyph glyph-name="questiondown" unicode="&#xbf;" horiz-adv-x="400" 
d="M322 339c4 19 22 35 42 35s31 -16 28 -35c-3 -20 -22 -36 -40 -36c-20 0 -34 16 -30 36zM150 -11c-13 -15 -34 8 -20 20c24 24 59 41 98 41c75 0 121 -61 121 -130c0 -85 -78 -171 -195 -171c-129 0 -192 97 -192 177c0 200 294 214 343 319c9 16 34 8 22 -17
c-52 -110 -334 -124 -334 -302c0 -58 43 -147 161 -147c104 0 166 75 166 140c0 50 -31 101 -93 101c-28 0 -57 -11 -77 -31z" />
    <glyph glyph-name="Lslash" unicode="&#x141;" horiz-adv-x="640" 
d="M430 249c-28 -6 -35 21 -6 28l103 25l65 143c65 144 167 256 295 256c112 0 174 -70 176 -138c2 -70 -53 -140 -132 -140c-76 -1 -111 49 -113 94c0 20 4 41 20 56c16 13 35 -2 21 -16c-8 -11 -14 -25 -15 -40c0 -33 28 -67 86 -66c62 0 106 53 105 108
c0 56 -52 115 -148 115c-115 0 -209 -109 -268 -240l-56 -123l115 28c30 9 34 -22 6 -28l-136 -34l-36 -79c-51 -114 -118 -184 -190 -223c153 -107 293 -297 528 -297c126 0 200 76 209 148c4 43 -14 66 -37 87c-18 14 2 29 15 21c39 -24 55 -66 51 -112
c-10 -83 -92 -174 -239 -174c-258 0 -408 207 -561 311c-52 -21 -106 -30 -158 -30c-64 -1 -112 16 -112 61c0 44 64 58 110 57c60 0 115 -21 167 -53c76 36 141 103 190 214l27 61zM130 -41c45 0 87 6 127 19c-41 24 -83 39 -128 39c-56 0 -80 -8 -79 -26
c0 -24 41 -32 80 -32z" />
    <glyph glyph-name="L.text" horiz-adv-x="640" 
d="M887 674c-115 0 -209 -109 -268 -240l-107 -236c-51 -114 -118 -184 -190 -223c153 -107 293 -297 528 -297c126 0 200 76 209 148c4 43 -14 66 -37 87c-18 14 2 29 15 21c39 -24 55 -66 51 -112c-10 -83 -92 -174 -239 -174c-258 0 -408 207 -561 311
c-52 -21 -106 -30 -158 -30c-64 -1 -112 16 -112 61c0 44 64 58 110 57c60 0 115 -21 167 -53c76 36 140 103 190 214l107 237c65 144 167 256 295 256c112 1 174 -70 176 -138c2 -70 -53 -140 -132 -140c-76 -1 -111 49 -113 94c0 20 4 41 20 56c16 13 35 -2 21 -16
c-8 -11 -14 -25 -15 -40c0 -33 28 -67 86 -66c62 0 106 53 105 108c0 56 -52 115 -148 115zM130 -41c45 0 87 6 127 19c-41 24 -83 39 -128 39c-56 0 -80 -8 -79 -26c0 -24 41 -32 80 -32z" />
    <glyph glyph-name="lslash" unicode="&#x142;" horiz-adv-x="151" 
d="M50 249c-28 -6 -35 21 -6 28l34 8l137 299c8 19 37 9 28 -12l-127 -278l31 8c30 9 34 -22 6 -28l-53 -13l-72 -158c-7 -16 -11 -31 -11 -40c0 -24 15 -35 41 -35c56 0 85 70 93 87c8 15 32 7 25 -11c-14 -37 -58 -104 -118 -104c-44 0 -71 20 -71 63c0 16 4 33 13 52
l62 137z" />
    <glyph glyph-name="caron" unicode="&#x2c7;" horiz-adv-x="290" 
d="M162 473l-45 98c-9 15 15 29 23 16l38 -83l119 85c20 13 31 -13 15 -23l-130 -92c-7 -5 -17 -8 -20 -1z" />
    <glyph glyph-name="scaron" unicode="&#x161;" horiz-adv-x="254" 
d="M-17 6c-14 6 -26 15 -35 25c-11 12 7 34 23 20c7 -8 17 -15 30 -19c9 -3 19 -4 29 -4c66 0 119 56 124 126c4 51 -26 96 -35 149l-94 -199c-10 -22 -34 -8 -25 11l136 295c8 19 38 9 28 -12l-5 -11c-6 -14 -10 -28 -11 -41c-5 -66 40 -127 36 -191
c-7 -80 -73 -157 -157 -157c-16 0 -31 3 -44 8zM161 0c-15 0 -15 28 0 28c56 0 85 70 93 87c8 15 32 7 25 -11c-14 -37 -58 -104 -118 -104zM165 473l-45 98c-9 15 15 29 23 16l38 -83l119 85c20 13 31 -13 15 -23l-130 -92c-7 -5 -17 -8 -20 -1z" />
    <glyph glyph-name="Zcaron" unicode="&#x17d;" horiz-adv-x="772" 
d="M495 674c167 -1 268 -83 380 -114l5 5c17 20 80 94 148 94c49 0 69 -25 69 -55c0 -36 -54 -86 -138 -86c-26 0 -49 3 -73 9l-413 -469c-13 -15 -26 -28 -39 -40c168 -132 333 -340 574 -340c126 0 200 76 209 148c4 43 -14 66 -37 87c-18 14 2 29 15 21
c39 -24 55 -66 51 -112c-10 -83 -92 -174 -239 -174c-226 1 -378 159 -520 287c-25 23 -50 44 -75 64c-78 -65 -154 -88 -218 -88c-95 -1 -174 37 -174 105c0 79 92 112 166 111c80 0 153 -37 225 -91c13 13 26 26 40 42l403 458c-105 35 -204 108 -361 108
c-66 0 -142 -32 -171 -98c-32 -67 -2 -145 54 -172c44 -19 118 -18 139 38c8 28 35 10 29 -9c-23 -70 -119 -83 -179 -54c-72 33 -107 126 -71 208c34 75 121 117 201 117zM194 -59c55 0 123 19 194 76c-65 47 -130 80 -201 80c-84 0 -136 -31 -135 -80
c0 -49 72 -76 142 -76zM1028 629c-46 0 -94 -48 -119 -77c16 -3 33 -4 50 -4c66 0 108 32 108 56c0 14 -12 25 -39 25zM790 766l-45 98c-9 15 15 29 23 16l38 -83l119 85c20 13 31 -13 15 -23l-130 -92c-7 -5 -17 -8 -20 -1z" />
    <glyph glyph-name="zcaron" unicode="&#x17e;" horiz-adv-x="299" 
d="M0 115l146 305c9 17 38 7 28 -13c-14 -31 5 -41 21 -41h90c1 2 3 4 3 4c13 15 37 -1 24 -18c0 0 -84 -96 -164 -187c57 -21 59 -101 -3 -216c-61 -112 -137 -175 -233 -175c-85 0 -119 47 -119 97c0 41 35 96 96 98c21 0 21 -28 0 -28c-44 -3 -66 -42 -66 -70
c0 -35 24 -69 89 -69c73 0 149 50 204 155c58 111 58 185 0 185c-5 0 -11 -1 -16 -2c-15 -4 -14 27 5 29c4 0 7 1 11 1h1c53 60 111 128 144 168h-66c-20 0 -35 8 -45 21l-125 -255c-9 -19 -36 -13 -25 11zM206 0c-15 0 -15 28 0 28c56 0 85 70 93 87c8 15 32 7 25 -11
c-14 -37 -58 -104 -118 -104zM242 473l-45 98c-9 15 15 29 23 16l38 -83l119 85c20 13 31 -13 15 -23l-130 -92c-7 -5 -17 -8 -20 -1z" />
    <glyph glyph-name="Atilde" unicode="&#xc3;" horiz-adv-x="1083" 
d="M861 51l84 184h-212c-95 -162 -240 -315 -424 -315c-151 0 -278 108 -278 264c0 136 106 264 266 264c136 0 203 -78 203 -170c0 -34 -16 -71 -44 -98c-19 -15 -41 2 -21 21c23 21 35 50 35 77c0 77 -57 140 -175 140c-142 0 -234 -112 -234 -234
c0 -139 122 -234 248 -234c181 0 317 161 408 318c109 207 294 408 550 408c37 0 64 -8 83 -22c20 -13 1 -40 -16 -26c-13 11 -34 19 -62 20c-87 0 -154 -115 -189 -190l-194 -419c-27 -58 -43 -162 33 -162c6 0 13 1 21 3c23 9 22 -24 0 -30c-9 -2 -17 -3 -24 -3
c-103 0 -93 129 -58 204zM1174 638c-170 -36 -314 -166 -426 -376h210l89 189c35 74 77 145 127 187zM1171 734c-22 -16 -38 6 -16 23c66 47 90 -26 133 0c22 13 31 -12 15 -23c-57 -40 -86 35 -132 0z" />
    <glyph glyph-name="endash" unicode="&#x2013;" horiz-adv-x="327" 
d="M84 210c-20 0 -20 28 0 28h179c22 0 22 -28 0 -28h-179z" />
    <glyph glyph-name="emdash" unicode="&#x2014;" horiz-adv-x="371" 
d="M84 210c-20 0 -20 28 0 28h238c22 0 22 -28 0 -28h-238z" />
    <glyph glyph-name="Ydieresis" unicode="&#x178;" horiz-adv-x="719" 
d="M397 2c-129 0 -145 123 -100 216l90 197c40 88 39 193 -66 240c-89 42 -205 16 -247 -79c-33 -66 -3 -145 53 -172c44 -19 118 -18 140 38c7 29 34 10 28 -9c-23 -69 -118 -83 -179 -54c-71 33 -107 126 -71 208c48 106 179 145 288 95c104 -47 140 -153 80 -277
l-91 -199c-31 -70 -35 -175 75 -175c130 0 190 102 225 173l11 24l132 287c10 23 38 15 30 -7l-253 -549c-53 -116 -126 -199 -230 -198c-84 0 -118 46 -118 96c-1 42 35 97 97 98c21 1 20 -29 -2 -26c-43 -5 -65 -43 -65 -72c-1 -34 24 -69 89 -68c73 -1 147 62 196 170
l53 115c-40 -39 -92 -72 -165 -72zM657 752c-3 -15 -17 -27 -32 -27c-16 0 -25 12 -22 27c2 15 17 28 31 28c15 0 26 -13 23 -28zM746 752c-3 -15 -17 -27 -32 -27c-16 0 -25 12 -22 27c2 15 17 28 31 28c15 0 26 -13 23 -28z" />
    <glyph glyph-name="grave" unicode="`" horiz-adv-x="330" 
d="M316 474l-102 98c-16 10 -5 36 15 23l102 -98c18 -12 2 -34 -15 -23z" />
    <glyph glyph-name="ograve" unicode="&#xf2;" horiz-adv-x="269" 
d="M63 0c-45 0 -76 21 -76 64c0 16 4 32 13 51l74 158c13 29 51 102 119 102c45 0 76 -21 76 -64c0 -16 -4 -32 -13 -51l-74 -158c-13 -29 -51 -102 -119 -102zM17 64c0 -24 19 -36 46 -36c52 0 82 65 93 90l72 154c7 15 11 30 11 39c0 24 -19 36 -46 36
c-52 0 -82 -65 -93 -90l-72 -154c-7 -15 -11 -30 -11 -39zM280 474l-102 98c-16 10 -5 36 15 23l102 -98c18 -12 2 -34 -15 -23z" />
    <glyph glyph-name="igrave" unicode="&#xec;" horiz-adv-x="151" 
d="M58 0c-44 0 -71 20 -71 63c0 16 4 33 13 52l112 245c8 19 37 9 28 -12l-112 -245c-7 -16 -11 -31 -11 -40c0 -24 15 -35 41 -35c56 0 85 70 93 87c8 15 32 7 25 -11c-14 -37 -58 -104 -118 -104zM190 474l-102 98c-16 10 -5 36 15 23l102 -98c18 -12 2 -34 -15 -23z" />
    <glyph glyph-name="egrave" unicode="&#xe8;" horiz-adv-x="232" 
d="M186 375c57 0 79 -41 57 -95c-31 -77 -70 -111 -129 -111c-19 0 -39 6 -51 17l-18 -39c-34 -72 -9 -119 57 -119s114 57 130 87c8 15 33 7 25 -11c-23 -53 -85 -104 -155 -104c-84 0 -135 54 -85 159l54 114c13 29 49 102 115 102zM211 285c10 24 19 62 -25 62
c-50 0 -78 -65 -89 -90l-21 -45c6 -5 24 -12 37 -12c47 0 75 29 98 85zM263 474l-102 98c-16 10 -5 36 15 23l102 -98c18 -12 2 -34 -15 -23z" />
    <glyph glyph-name="agrave" unicode="&#xe0;" 
d="M214 0c-38 0 -63 15 -70 46c-19 -24 -46 -46 -81 -46c-45 0 -76 21 -76 64c0 16 4 32 13 51l74 158c13 29 51 102 119 102c30 0 55 -13 65 -36l10 21c8 19 37 9 28 -12l-112 -245c-7 -16 -11 -31 -11 -40c0 -24 15 -35 41 -35c56 0 85 70 93 87c8 15 32 7 25 -11
c-14 -37 -58 -104 -118 -104zM63 28c45 0 75 50 88 77l77 167c7 16 11 29 11 39c0 24 -19 36 -46 36c-52 0 -82 -65 -93 -90l-72 -154c-7 -15 -11 -30 -11 -39c0 -24 19 -36 46 -36zM280 474l-102 98c-16 10 -5 36 15 23l102 -98c18 -12 2 -34 -15 -23z" />
    <glyph glyph-name="ugrave" unicode="&#xf9;" 
d="M141 348l-113 -245c-7 -15 -11 -30 -11 -39c0 -24 19 -36 46 -36c45 0 75 50 88 77l5 10l112 245c8 19 37 9 28 -12l-112 -245c-7 -16 -11 -31 -11 -40c0 -24 15 -35 41 -35c56 0 85 70 93 87c8 15 32 7 25 -11c-14 -37 -58 -104 -118 -104c-38 0 -63 15 -70 46
c-19 -24 -46 -46 -81 -46c-45 0 -76 21 -76 64c0 16 4 32 13 51l113 245c8 19 37 9 28 -12zM264 474l-102 98c-16 10 -5 36 15 23l102 -98c18 -12 2 -34 -15 -23z" />
    <glyph glyph-name="Egrave" unicode="&#xc8;" horiz-adv-x="700" 
d="M310 -136c-190 0 -260 119 -260 223c0 108 99 232 276 265c7 0 14 -1 19 -1c-54 27 -69 88 -69 130c0 119 126 219 266 219c136 0 219 -80 219 -159c0 -77 -66 -153 -152 -153c-78 0 -114 49 -114 96c0 19 6 44 17 58c14 18 39 0 25 -17c-7 -9 -13 -25 -13 -41
c0 -35 25 -67 85 -67c69 0 122 57 122 119c0 67 -71 136 -191 136c-123 0 -235 -85 -235 -187c0 -68 30 -122 110 -122h18c13 0 19 -9 19 -17s-6 -16 -18 -16h-36c-173 0 -319 -117 -319 -242c0 -88 60 -194 232 -194c120 0 226 100 226 198c0 60 -43 116 -110 116
c-65 0 -107 -38 -108 -76c-2 -14 -7 -18 -15 -18c-7 0 -14 3 -14 18c1 51 53 107 137 107c85 0 140 -70 140 -147c0 -122 -131 -228 -257 -228zM583 767l-102 98c-16 10 -5 36 15 23l102 -98c18 -12 2 -34 -15 -23z" />
    <glyph glyph-name="Igrave" unicode="&#xcc;" horiz-adv-x="580" 
d="M578 670c36 0 81 -5 124 -20c21 -7 27 -16 27 -25c0 -7 -4 -15 -8 -19c-82 -80 -130 -155 -199 -302c-76 -160 -173 -364 -370 -364c-66 0 -125 28 -139 71c-7 22 20 35 28 12c10 -30 54 -53 111 -53c165 0 257 164 321 301v-1l40 87c46 100 129 220 183 264
c-1 -1 -7 2 -13 4c-33 10 -68 14 -105 14c-136 0 -237 -106 -237 -244c0 -21 3 -44 9 -64c5 -16 0 -28 -12 -28c-7 0 -13 7 -17 16c-8 25 -12 52 -12 77c0 151 117 274 269 274zM733 767l-102 98c-16 10 -5 36 15 23l102 -98c18 -12 2 -34 -15 -23z" />
    <glyph glyph-name="Agrave" unicode="&#xc0;" horiz-adv-x="1083" 
d="M861 51l84 184h-212c-95 -162 -240 -315 -424 -315c-151 0 -278 108 -278 264c0 136 106 264 266 264c136 0 203 -78 203 -170c0 -34 -16 -71 -44 -98c-19 -15 -41 2 -21 21c23 21 35 50 35 77c0 77 -57 140 -175 140c-142 0 -234 -112 -234 -234
c0 -139 122 -234 248 -234c181 0 317 161 408 318c109 207 294 408 550 408c37 0 64 -8 83 -22c20 -13 1 -40 -16 -26c-13 11 -34 19 -62 20c-87 0 -154 -115 -189 -190l-194 -419c-27 -58 -43 -162 33 -162c6 0 13 1 21 3c23 9 22 -24 0 -30c-9 -2 -17 -3 -24 -3
c-103 0 -93 129 -58 204zM1174 638c-170 -36 -314 -166 -426 -376h210l89 189c35 74 77 145 127 187zM1226 767l-102 98c-16 10 -5 36 15 23l102 -98c18 -12 2 -34 -15 -23z" />
    <glyph glyph-name="Ugrave" unicode="&#xd9;" horiz-adv-x="743" 
d="M683 -254c-142 0 -163 155 -154 288c-59 -54 -123 -89 -182 -89c-130 0 -145 123 -100 216l117 254c40 87 39 192 -66 240c-90 42 -205 16 -248 -79c-32 -67 -2 -145 54 -172c44 -19 118 -18 139 38c8 28 35 10 29 -9c-23 -70 -119 -83 -179 -54c-72 33 -107 126 -71 208
c48 105 178 145 288 95c103 -47 139 -153 80 -278l-117 -255c-32 -70 -36 -175 74 -175c60 0 126 41 186 102c7 56 16 104 23 129c45 180 120 334 173 334c25 0 44 -26 44 -57c-5 -118 -99 -301 -214 -420c-12 -129 4 -286 125 -286c87 0 120 64 121 107c1 15 -2 27 -8 32
c-16 14 8 36 23 22c8 -8 16 -29 15 -54c-2 -55 -44 -137 -152 -137zM584 200c-7 -22 -14 -54 -19 -90c98 114 176 275 179 376c1 16 -8 24 -17 24c-37 0 -96 -153 -143 -310zM662 767l-102 98c-16 10 -5 36 15 23l102 -98c18 -12 2 -34 -15 -23z" />
    <glyph glyph-name="Ntilde" unicode="&#xd1;" horiz-adv-x="618" 
d="M553 604c63 0 99 -42 99 -85c0 -19 -4 -38 -11 -52l-198 -430v1c-12 -28 -22 -64 -22 -94c0 -37 14 -68 55 -68c5 0 12 2 23 4c22 5 28 -24 3 -30c-9 -2 -22 -4 -29 -4c-61 0 -83 45 -83 97c0 36 10 76 25 108l190 409c7 15 13 38 13 54c0 32 -23 58 -67 58
c-66 0 -147 -62 -200 -178l-174 -383c-6 -11 -16 -17 -23 -17c-11 0 -15 8 -9 22l194 423c14 31 21 67 21 104c0 95 -89 156 -176 156c-84 0 -174 -60 -174 -154c0 -68 48 -125 121 -125c35 0 69 15 83 47c4 9 8 15 16 15c10 0 18 -12 15 -23c-18 -46 -66 -68 -114 -68
c-84 0 -151 68 -151 154c0 102 98 184 204 184c101 0 206 -71 206 -186c0 -3 1 -10 -1 -34c42 49 108 95 164 95zM515 734c-22 -16 -38 6 -16 23c66 47 90 -26 133 0c22 13 31 -12 15 -23c-57 -40 -86 35 -132 0z" />
    <glyph glyph-name="Ograve" unicode="&#xd2;" horiz-adv-x="833" 
d="M116 306c47 202 238 366 425 366c162 0 270 -120 270 -282c0 -29 -4 -60 -10 -89c-47 -202 -238 -365 -425 -365c-162 0 -271 120 -271 282c0 30 4 59 11 88zM145 301c-6 -30 -10 -57 -10 -83c0 -145 96 -252 241 -252c172 0 349 155 395 340c7 30 10 59 10 84
c0 145 -95 252 -240 252c-174 0 -352 -153 -396 -341zM600 767l-102 98c-16 10 -5 36 15 23l102 -98c18 -12 2 -34 -15 -23z" />
    <glyph glyph-name="Idieresis" unicode="&#xcf;" horiz-adv-x="580" 
d="M578 670c36 0 81 -5 124 -20c21 -7 27 -16 27 -25c0 -7 -4 -15 -8 -19c-82 -80 -130 -155 -199 -302c-76 -160 -173 -364 -370 -364c-66 0 -125 28 -139 71c-7 22 20 35 28 12c10 -30 54 -53 111 -53c165 0 257 164 321 301v-1l40 87c46 100 129 220 183 264
c-1 -1 -7 2 -13 4c-33 10 -68 14 -105 14c-136 0 -237 -106 -237 -244c0 -21 3 -44 9 -64c5 -16 0 -28 -12 -28c-7 0 -13 7 -17 16c-8 25 -12 52 -12 77c0 151 117 274 269 274zM660 752c-3 -15 -17 -27 -32 -27c-16 0 -25 12 -22 27c2 15 17 28 31 28c15 0 26 -13 23 -28z
M749 752c-3 -15 -17 -27 -32 -27c-16 0 -25 12 -22 27c2 15 17 28 31 28c15 0 26 -13 23 -28z" />
    <glyph glyph-name="periodcentered" unicode="&#xb7;" horiz-adv-x="193" 
d="M156 213c-3 -15 -17 -27 -32 -27c-16 0 -25 12 -22 27c2 15 17 28 31 28c15 0 26 -13 23 -28z" />
    <glyph glyph-name="exclamdown" unicode="&#xa1;" horiz-adv-x="233" 
d="M172 339c4 19 22 35 42 35s32 -16 28 -35c-2 -20 -22 -36 -40 -36c-20 0 -34 16 -30 36zM-51 -197l195 437c11 24 40 13 30 -9l-197 -440c-9 -19 -37 -9 -28 12z" />
    <glyph glyph-name="fraction" unicode="&#x2044;" horiz-adv-x="362" 
d="M446 572l-349 -558c-11 -24 -40 -13 -30 9l351 561c9 19 37 9 28 -12z" />
    <glyph glyph-name="slash" unicode="/" horiz-adv-x="362" 
d="M446 572l-349 -558c-11 -24 -40 -13 -30 9l351 561c9 19 37 9 28 -12z" />
    <glyph glyph-name="at" unicode="@" horiz-adv-x="853" 
d="M557 -61c-81 0 -126 54 -134 111c-19 -26 -47 -50 -84 -50c-45 0 -76 21 -76 64c0 16 4 32 13 51l74 158c13 29 51 102 119 102c30 0 55 -13 65 -36l10 21c8 19 38 9 28 -12l-38 -83c-1 -2 -2 -4 -2 -5h-1l-68 -150c-37 -80 24 -142 94 -142c99 0 204 113 204 250
c0 171 -122 297 -294 297c-201 0 -396 -191 -396 -395c0 -167 124 -294 297 -294c67 0 132 19 190 52c4 2 7 3 10 3c8 0 13 -6 13 -13c0 -5 -3 -11 -10 -14c-63 -37 -134 -58 -207 -58c-188 0 -324 139 -324 320c0 231 207 429 431 429c187 0 320 -139 320 -328
c0 -152 -116 -278 -234 -278zM339 28c45 0 75 50 88 77l5 10l72 157c7 16 11 29 11 39c0 24 -19 36 -46 36c-52 0 -82 -65 -93 -90l-72 -154c-7 -15 -11 -30 -11 -39c0 -24 19 -36 46 -36z" />
    <glyph glyph-name="dollar" unicode="$" horiz-adv-x="518" 
d="M508 572l-7 -16c24 -12 44 -34 47 -65c0 -30 -20 -69 -64 -70c-8 0 -12 7 -12 14c0 5 3 11 10 11c28 2 40 25 40 43c0 20 -13 36 -31 45l-75 -169c28 -40 60 -83 60 -137c0 -128 -106 -199 -208 -199h-3l-6 -15c-7 -24 -34 -13 -28 9l3 8c-102 14 -186 91 -186 199
c0 91 66 173 172 173c73 0 124 -38 139 -91l24 55c-19 29 -34 59 -34 95c0 68 58 106 105 106c6 0 12 -1 18 -2l8 18c6 19 33 9 28 -12zM74 228c0 -96 83 -163 171 -172l92 207c1 3 1 7 1 10c0 57 -40 104 -118 104c-92 0 -146 -69 -146 -149zM448 228c0 42 -22 76 -45 110
l-126 -283c85 5 171 67 171 173zM376 460c0 -23 8 -44 20 -64l66 147h-5c-37 0 -81 -29 -81 -83z" />
    <glyph glyph-name="percent" unicode="%" horiz-adv-x="506" 
d="M531 532l-446 -484c-15 -21 -42 -5 -28 14l449 487c13 17 38 2 25 -17zM134 414c0 43 35 78 78 78s78 -35 78 -78s-35 -78 -78 -78s-78 35 -78 78zM164 414c0 -27 21 -48 48 -48s48 21 48 48s-21 48 -48 48s-48 -21 -48 -48zM326 207c0 43 35 78 78 78s78 -35 78 -78
s-35 -78 -78 -78s-78 35 -78 78zM356 207c0 -27 21 -48 48 -48s48 21 48 48s-21 48 -48 48s-48 -21 -48 -48z" />
    <glyph glyph-name="bullet" unicode="&#x2022;" horiz-adv-x="275" 
d="M207 201c-6 -28 -33 -52 -62 -52c-30 0 -48 24 -42 52c3 30 33 54 59 54c30 0 51 -24 45 -54z" />
    <glyph glyph-name="hyphen" unicode="-" horiz-adv-x="327" 
d="M84 210c-20 0 -20 28 0 28h179c22 0 22 -28 0 -28h-179z" />
    <glyph glyph-name="parenleft" unicode="(" horiz-adv-x="336" 
d="M190 -133c11 -16 -10 -41 -26 -16c-25 43 -37 99 -37 161c0 224 158 534 401 587c26 5 31 -26 6 -30c-229 -49 -377 -343 -377 -557c0 -56 10 -107 33 -145z" />
    <glyph glyph-name="parenright" unicode=")" horiz-adv-x="336" 
d="M256 570c-11 16 10 41 26 16c25 -43 37 -99 37 -161c0 -224 -158 -534 -401 -587c-26 -5 -31 26 -6 30c229 49 377 343 377 557c0 56 -10 107 -33 145z" />
    <glyph glyph-name="quotesingle" unicode="'" horiz-adv-x="184" 
d="M196 451c-11 -23 -39 -13 -27 12l57 119c11 25 40 11 27 -12z" />
    <glyph glyph-name="quotedbl" unicode="&#x22;" horiz-adv-x="257" 
d="M196 451c-11 -23 -39 -13 -27 12l57 119c11 25 40 11 27 -12zM272 451c-11 -23 -39 -13 -27 12l57 119c11 25 40 11 27 -12z" />
    <glyph glyph-name="ring" unicode="&#x2da;" horiz-adv-x="267" 
d="M113 501c0 48 46 94 98 94c36 0 61 -27 61 -62c0 -50 -50 -94 -96 -94c-37 0 -63 28 -63 62zM205 565c-29 0 -60 -26 -60 -60c0 -21 14 -36 37 -36c29 0 59 26 59 57c0 22 -15 39 -36 39z" />
    <glyph glyph-name="bracketleft" unicode="[" horiz-adv-x="275" 
d="M324 584c3 7 10 10 16 10h84c20 0 20 -28 0 -28h-75l-303 -679h73c20 0 20 -28 0 -28h-97c-10 0 -18 10 -12 23z" />
    <glyph glyph-name="bracketright" unicode="]" horiz-adv-x="275" 
d="M377 603c10 0 18 -10 12 -23l-314 -702c-4 -8 -11 -11 -18 -10h-90c-20 0 -20 28 0 28h82l303 679h-72c-20 0 -20 28 0 28h97z" />
    <glyph glyph-name="braceleft" unicode="{" horiz-adv-x="309" 
d="M160 -127c17 -1 15 -32 -6 -30c-35 5 -83 57 -76 144c7 88 87 189 90 232c1 12 -7 30 -26 34c-17 2 -17 32 3 29c47 -8 71 21 88 63c46 111 135 259 276 259c21 0 41 -5 59 -15c21 -11 2 -37 -16 -26c-13 8 -29 11 -45 11c-110 0 -198 -115 -247 -238
c-16 -40 -35 -68 -74 -78c9 -11 13 -24 12 -37c-2 -24 -17 -53 -37 -87l1 1c-26 -48 -50 -99 -54 -144c-6 -72 29 -115 52 -118z" />
    <glyph glyph-name="braceright" unicode="}" horiz-adv-x="360" 
d="M222 572c-17 1 -15 32 6 30c35 -5 83 -57 76 -144c-7 -88 -78 -170 -81 -213c-1 -12 7 -30 26 -34c17 -2 17 -32 -3 -29c-47 8 -71 -21 -88 -63c-46 -111 -144 -278 -285 -278c-21 0 -41 5 -59 15c-21 11 -2 37 16 26c13 -8 29 -11 45 -11c110 0 207 134 256 257
c16 40 35 68 74 78c-9 11 -13 24 -12 37c2 24 17 53 36 86c26 48 41 80 45 125c6 72 -29 115 -52 118z" />
    <glyph glyph-name="bar" unicode="|" horiz-adv-x="235" 
d="M330 572l-249 -556c-11 -24 -40 -13 -30 9l251 559c9 19 37 9 28 -12z" />
    <glyph glyph-name="Aring" unicode="&#xc5;" horiz-adv-x="1083" 
d="M861 51l84 184h-212c-95 -162 -240 -315 -424 -315c-151 0 -278 108 -278 264c0 136 106 264 266 264c136 0 203 -78 203 -170c0 -34 -16 -71 -44 -98c-19 -15 -41 2 -21 21c23 21 35 50 35 77c0 77 -57 140 -175 140c-142 0 -234 -112 -234 -234
c0 -139 122 -234 248 -234c181 0 317 161 408 318c109 207 294 408 550 408c37 0 64 -8 83 -22c20 -13 1 -40 -16 -26c-13 11 -34 19 -62 20c-87 0 -154 -115 -189 -190l-194 -419c-27 -58 -43 -162 33 -162c6 0 13 1 21 3c23 9 22 -24 0 -30c-9 -2 -17 -3 -24 -3
c-103 0 -93 129 -58 204zM1174 638c-170 -36 -314 -166 -426 -376h210l89 189c35 74 77 145 127 187zM1187 794c0 48 46 94 98 94c36 0 61 -27 61 -62c0 -50 -50 -94 -96 -94c-37 0 -63 28 -63 62zM1279 858c-29 0 -60 -26 -60 -60c0 -21 14 -36 37 -36c29 0 59 26 59 57
c0 22 -15 39 -36 39z" />
    <glyph glyph-name="aring" unicode="&#xe5;" 
d="M214 0c-38 0 -63 15 -70 46c-19 -24 -46 -46 -81 -46c-45 0 -76 21 -76 64c0 16 4 32 13 51l74 158c13 29 51 102 119 102c30 0 55 -13 65 -36l10 21c8 19 37 9 28 -12l-112 -245c-7 -16 -11 -31 -11 -40c0 -24 15 -35 41 -35c56 0 85 70 93 87c8 15 32 7 25 -11
c-14 -37 -58 -104 -118 -104zM63 28c45 0 75 50 88 77l77 167c7 16 11 29 11 39c0 24 -19 36 -46 36c-52 0 -82 -65 -93 -90l-72 -154c-7 -15 -11 -30 -11 -39c0 -24 19 -36 46 -36zM200 501c0 48 46 94 98 94c36 0 61 -27 61 -62c0 -50 -50 -94 -96 -94
c-37 0 -63 28 -63 62zM292 565c-29 0 -60 -26 -60 -60c0 -21 14 -36 37 -36c29 0 59 26 59 57c0 22 -15 39 -36 39z" />
    <glyph glyph-name="otilde" unicode="&#xf5;" horiz-adv-x="269" 
d="M63 0c-45 0 -76 21 -76 64c0 16 4 32 13 51l74 158c13 29 51 102 119 102c45 0 76 -21 76 -64c0 -16 -4 -32 -13 -51l-74 -158c-13 -29 -51 -102 -119 -102zM17 64c0 -24 19 -36 46 -36c52 0 82 65 93 90l72 154c7 15 11 30 11 39c0 24 -19 36 -46 36
c-52 0 -82 -65 -93 -90l-72 -154c-7 -15 -11 -30 -11 -39zM186 441c-22 -16 -38 6 -16 23c66 47 90 -26 133 0c22 13 31 -12 15 -23c-57 -40 -86 35 -132 0z" />
    <glyph glyph-name="Otilde" unicode="&#xd5;" horiz-adv-x="833" 
d="M116 306c47 202 238 366 425 366c162 0 270 -120 270 -282c0 -29 -4 -60 -10 -89c-47 -202 -238 -365 -425 -365c-162 0 -271 120 -271 282c0 30 4 59 11 88zM145 301c-6 -30 -10 -57 -10 -83c0 -145 96 -252 241 -252c172 0 349 155 395 340c7 30 10 59 10 84
c0 145 -95 252 -240 252c-174 0 -352 -153 -396 -341zM547 734c-22 -16 -38 6 -16 23c66 47 90 -26 133 0c22 13 31 -12 15 -23c-57 -40 -86 35 -132 0z" />
    <glyph glyph-name="Scaron" unicode="&#x160;" horiz-adv-x="761" 
d="M374 -96c-163 0 -296 110 -296 270c0 144 108 276 272 276c136 0 203 -78 203 -170c0 -34 -16 -71 -44 -98c-19 -15 -41 2 -21 21c23 21 35 50 35 77c0 77 -57 140 -175 140c-146 0 -240 -116 -240 -246c0 -143 128 -240 266 -240c142 0 301 106 301 293
c0 96 -62 190 -62 293c0 108 93 167 164 167c58 0 123 -36 123 -109c0 -41 -35 -96 -96 -98c-22 0 -22 28 0 28c44 3 66 42 66 70c0 46 -40 81 -92 81c-59 0 -135 -50 -135 -139c0 -101 62 -183 62 -293c0 -207 -175 -323 -331 -323zM823 766l-45 98c-9 15 15 29 23 16
l38 -83l119 85c20 13 31 -13 15 -23l-130 -92c-7 -5 -17 -8 -20 -1z" />
    <glyph glyph-name="oe" unicode="&#x153;" horiz-adv-x="390" 
d="M260 0c-53 0 -92 21 -102 62c-19 -30 -50 -62 -95 -62s-76 21 -76 64c0 16 4 32 13 51l74 158c13 29 51 102 119 102c36 0 63 -14 72 -41c19 22 45 41 79 41c57 0 79 -41 57 -95c-31 -77 -70 -111 -129 -111c-20 0 -39 6 -51 17l-18 -39c-34 -72 -9 -117 57 -119
c66 0 114 57 130 87c8 15 33 7 25 -11c-23 -53 -85 -104 -155 -104zM17 64c0 -24 19 -36 46 -36c52 0 82 65 93 90l14 30l58 124c7 15 11 30 11 39c0 24 -19 36 -46 36c-52 0 -82 -65 -93 -90l-72 -154c-7 -15 -11 -30 -11 -39zM369 285c10 24 19 62 -25 62
c-50 0 -78 -65 -89 -90l-21 -45c6 -5 24 -12 37 -12c47 0 75 29 98 85z" />
    <glyph glyph-name="Eth" unicode="&#xd0;" horiz-adv-x="974" 
d="M515 688c57 0 108 -7 153 -19c30 28 62 45 96 45c18 0 28 -6 45 -11c13 -10 1 -35 -17 -23c-13 2 -18 5 -31 6c-22 -1 -43 -10 -63 -26c166 -54 248 -184 248 -316c0 -221 -188 -423 -450 -423c-70 0 -141 30 -212 59c-43 -26 -94 -41 -161 -42c-36 1 -124 11 -124 68
c0 30 37 55 86 55c65 0 129 -24 193 -49c72 50 115 137 162 239l9 21h-70c-20 0 -20 28 0 28h83l60 133c38 84 79 160 123 211c-39 9 -82 14 -130 14c-308 0 -448 -207 -448 -353c0 -80 38 -152 116 -182c9 -3 14 -9 12 -14c-1 -7 -7 -14 -17 -14c-2 0 -5 1 -9 2
c-88 33 -133 116 -133 209c0 158 157 381 479 382zM914 344c0 124 -77 245 -240 293c-43 -47 -83 -125 -123 -215l-56 -122h63c22 0 22 -28 0 -28h-76l-13 -28c-48 -105 -91 -191 -158 -245c63 -25 124 -48 185 -48c243 0 418 186 418 393zM123 -32c49 0 90 9 124 26
c-55 21 -110 40 -164 40c-36 0 -55 -15 -55 -28c0 -34 70 -38 95 -38z" />
    <glyph glyph-name="asciitilde" unicode="~" horiz-adv-x="897" 
d="M133 147c-8 -19 -42 -19 -28 12c33 82 121 137 207 137c128 0 183 -137 310 -137c64 0 150 41 177 103c8 24 37 8 28 -12c-31 -72 -131 -121 -205 -121c-140 0 -194 137 -310 137c-74 0 -149 -48 -179 -119z" />
    <glyph glyph-name="Euro" unicode="&#x20ac;" horiz-adv-x="581" 
d="M120 354c-20 0 -20 28 0 28h50c60 112 166 194 265 194c57 0 101 -25 129 -68c12 -17 -7 -46 -22 -23c-22 38 -59 61 -107 61c-85 0 -176 -68 -232 -164h96c22 0 22 -28 0 -28h-111c-10 -20 -18 -41 -24 -62c-2 -7 -4 -14 -5 -21h87c22 0 22 -28 0 -28h-92
c-1 -16 -2 -31 -1 -46c2 -86 52 -148 131 -148c48 0 94 20 135 52c24 19 40 -10 11 -29c-44 -33 -94 -53 -146 -53c-97 0 -159 74 -161 178c-1 15 0 30 1 46h-57c-20 0 -20 28 0 28h61l8 29c5 18 12 36 20 54h-36z" />
    <glyph glyph-name="quotesinglbase" unicode="&#x201a;" horiz-adv-x="155" 
d="M78 72c28 0 38 -29 23 -57c-20 -36 -46 -64 -86 -88c-21 -11 -27 13 -12 18c22 9 48 33 63 55c-16 4 -31 18 -28 36c2 20 22 36 40 36z" />
    <glyph glyph-name="florin" unicode="&#x192;" horiz-adv-x="156" 
d="M203 342h-66l-169 -370c-52 -115 -127 -198 -229 -198c-85 0 -119 47 -119 97c0 41 35 96 96 98c21 0 21 -28 0 -28c-44 -3 -66 -42 -66 -70c0 -35 24 -69 89 -69c73 0 147 62 196 170l169 370h-18c-20 0 -12 28 9 28h22l39 84c53 115 130 205 232 205
c85 0 119 -47 119 -97c0 -41 -35 -96 -96 -98c-21 0 -21 28 0 28c44 3 66 42 66 70c0 35 -24 69 -89 69c-73 0 -146 -62 -196 -170l-42 -91h62c19 0 10 -28 -9 -28z" />
    <glyph glyph-name="quotedblbase" unicode="&#x201e;" horiz-adv-x="267" 
d="M78 72c28 0 38 -29 23 -57c-20 -36 -46 -64 -86 -88c-21 -11 -27 13 -12 18c22 9 48 33 63 55c-16 4 -31 18 -28 36c2 20 22 36 40 36zM190 72c28 0 38 -29 23 -57c-20 -36 -46 -64 -86 -88c-21 -11 -27 13 -12 18c22 9 48 33 63 55c-16 4 -31 18 -28 36
c2 20 22 36 40 36z" />
    <glyph glyph-name="ellipsis" unicode="&#x2026;" horiz-adv-x="522" 
d="M112 27c-3 -15 -17 -27 -32 -27c-16 0 -25 12 -22 27c2 15 17 28 31 28c15 0 26 -13 23 -28zM250 27c-3 -15 -17 -27 -32 -27c-16 0 -25 12 -22 27c2 15 17 28 31 28c15 0 26 -13 23 -28zM388 27c-3 -15 -17 -27 -32 -27c-16 0 -25 12 -22 27c2 15 17 28 31 28
c15 0 26 -13 23 -28z" />
    <glyph glyph-name="dagger" unicode="&#x2020;" horiz-adv-x="398" 
d="M37 409c-22 0 -22 30 0 30c73 0 120 -24 146 -44v139c0 25 30 25 30 0v-139c26 20 70 44 146 44c22 0 22 -30 0 -30c-97 0 -138 -45 -146 -56v-415c0 -35 -30 -35 -30 0v415c-8 10 -48 56 -146 56z" />
    <glyph glyph-name="daggerdbl" unicode="&#x2021;" horiz-adv-x="398" 
d="M37 409c-22 0 -22 30 0 30c73 0 120 -24 146 -44v139c0 25 30 25 30 0v-139c26 20 70 44 146 44c22 0 22 -30 0 -30c-97 0 -138 -45 -146 -56v-245c26 20 70 44 146 44c22 0 22 -30 0 -30c-97 0 -138 -45 -146 -56v-128c0 -35 -30 -35 -30 0v128c-8 10 -48 56 -146 56
c-22 0 -22 30 0 30c73 0 120 -24 146 -44v245c-8 10 -48 56 -146 56z" />
    <glyph glyph-name="ae" unicode="&#xe6;" horiz-adv-x="390" 
d="M260 0c-53 0 -92 21 -102 62c-19 -30 -50 -62 -95 -62s-76 21 -76 64c0 16 4 32 13 51l12 26c21 42 65 69 116 69c37 0 68 2 78 15l22 47c7 15 11 30 11 39c0 24 -19 36 -46 36c-26 0 -47 -16 -62 -35c-17 -16 -33 9 -14 27c19 20 44 36 76 36c36 0 63 -14 72 -41
c19 22 45 41 79 41c57 0 79 -41 57 -95c-31 -77 -70 -111 -129 -111c-20 0 -39 6 -51 17l-18 -39c-34 -72 -9 -117 57 -119c66 0 114 57 130 87c8 15 33 7 25 -11c-23 -53 -85 -104 -155 -104zM40 128l-12 -25c-7 -15 -11 -30 -11 -39c0 -24 19 -36 46 -36c52 0 82 65 93 90
l14 30l16 35c-16 -3 -36 -3 -58 -3c-41 0 -73 -22 -88 -52zM369 285c10 24 19 62 -25 62c-50 0 -78 -65 -89 -90l-21 -45c6 -5 24 -12 37 -12c47 0 75 29 98 85z" />
    <glyph glyph-name="circumflex" unicode="&#x2c6;" horiz-adv-x="328" 
d="M275 589l44 -96c9 -15 -15 -29 -23 -16l-38 82l-119 -84c-20 -13 -31 13 -15 23l128 91c8 6 19 10 23 0z" />
    <glyph glyph-name="ocircumflex" unicode="&#xf4;" horiz-adv-x="269" 
d="M63 0c-45 0 -76 21 -76 64c0 16 4 32 13 51l74 158c13 29 51 102 119 102c45 0 76 -21 76 -64c0 -16 -4 -32 -13 -51l-74 -158c-13 -29 -51 -102 -119 -102zM17 64c0 -24 19 -36 46 -36c52 0 82 65 93 90l72 154c7 15 11 30 11 39c0 24 -19 36 -46 36
c-52 0 -82 -65 -93 -90l-72 -154c-7 -15 -11 -30 -11 -39zM323 589l44 -96c9 -15 -15 -29 -23 -16l-38 82l-119 -84c-20 -13 -31 13 -15 23l128 91c8 6 19 10 23 0z" />
    <glyph glyph-name="ecircumflex" unicode="&#xea;" horiz-adv-x="232" 
d="M186 375c57 0 79 -41 57 -95c-31 -77 -70 -111 -129 -111c-19 0 -39 6 -51 17l-18 -39c-34 -72 -9 -119 57 -119s114 57 130 87c8 15 33 7 25 -11c-23 -53 -85 -104 -155 -104c-84 0 -135 54 -85 159l54 114c13 29 49 102 115 102zM211 285c10 24 19 62 -25 62
c-50 0 -78 -65 -89 -90l-21 -45c6 -5 24 -12 37 -12c47 0 75 29 98 85zM286 589l44 -96c9 -15 -15 -29 -23 -16l-38 82l-119 -84c-20 -13 -31 13 -15 23l128 91c8 6 19 10 23 0z" />
    <glyph glyph-name="acircumflex" unicode="&#xe2;" 
d="M214 0c-38 0 -63 15 -70 46c-19 -24 -46 -46 -81 -46c-45 0 -76 21 -76 64c0 16 4 32 13 51l74 158c13 29 51 102 119 102c30 0 55 -13 65 -36l10 21c8 19 37 9 28 -12l-112 -245c-7 -16 -11 -31 -11 -40c0 -24 15 -35 41 -35c56 0 85 70 93 87c8 15 32 7 25 -11
c-14 -37 -58 -104 -118 -104zM63 28c45 0 75 50 88 77l77 167c7 16 11 29 11 39c0 24 -19 36 -46 36c-52 0 -82 -65 -93 -90l-72 -154c-7 -15 -11 -30 -11 -39c0 -24 19 -36 46 -36zM310 589l44 -96c9 -15 -15 -29 -23 -16l-38 82l-119 -84c-20 -13 -31 13 -15 23l128 91
c8 6 19 10 23 0z" />
    <glyph glyph-name="icircumflex" unicode="&#xee;" horiz-adv-x="151" 
d="M58 0c-44 0 -71 20 -71 63c0 16 4 33 13 52l112 245c8 19 37 9 28 -12l-112 -245c-7 -16 -11 -31 -11 -40c0 -24 15 -35 41 -35c56 0 85 70 93 87c8 15 32 7 25 -11c-14 -37 -58 -104 -118 -104zM221 589l44 -96c9 -15 -15 -29 -23 -16l-38 82l-119 -84
c-20 -13 -31 13 -15 23l128 91c8 6 19 10 23 0z" />
    <glyph glyph-name="ucircumflex" unicode="&#xfb;" 
d="M141 348l-113 -245c-7 -15 -11 -30 -11 -39c0 -24 19 -36 46 -36c45 0 75 50 88 77l5 10l112 245c8 19 37 9 28 -12l-112 -245c-7 -16 -11 -31 -11 -40c0 -24 15 -35 41 -35c56 0 85 70 93 87c8 15 32 7 25 -11c-14 -37 -58 -104 -118 -104c-38 0 -63 15 -70 46
c-19 -24 -46 -46 -81 -46c-45 0 -76 21 -76 64c0 16 4 32 13 51l113 245c8 19 37 9 28 -12zM298 589l44 -96c9 -15 -15 -29 -23 -16l-38 82l-119 -84c-20 -13 -31 13 -15 23l128 91c8 6 19 10 23 0z" />
    <glyph glyph-name="Acircumflex" unicode="&#xc2;" horiz-adv-x="1083" 
d="M861 51l84 184h-212c-95 -162 -240 -315 -424 -315c-151 0 -278 108 -278 264c0 136 106 264 266 264c136 0 203 -78 203 -170c0 -34 -16 -71 -44 -98c-19 -15 -41 2 -21 21c23 21 35 50 35 77c0 77 -57 140 -175 140c-142 0 -234 -112 -234 -234
c0 -139 122 -234 248 -234c181 0 317 161 408 318c109 207 294 408 550 408c37 0 64 -8 83 -22c20 -13 1 -40 -16 -26c-13 11 -34 19 -62 20c-87 0 -154 -115 -189 -190l-194 -419c-27 -58 -43 -162 33 -162c6 0 13 1 21 3c23 9 22 -24 0 -30c-9 -2 -17 -3 -24 -3
c-103 0 -93 129 -58 204zM1174 638c-170 -36 -314 -166 -426 -376h210l89 189c35 74 77 145 127 187zM1285 882l44 -96c9 -15 -15 -29 -23 -16l-38 82l-119 -84c-20 -13 -31 13 -15 23l128 91c8 6 19 10 23 0z" />
    <glyph glyph-name="Ecircumflex" unicode="&#xca;" horiz-adv-x="700" 
d="M310 -136c-190 0 -260 119 -260 223c0 108 99 232 276 265c7 0 14 -1 19 -1c-54 27 -69 88 -69 130c0 119 126 219 266 219c136 0 219 -80 219 -159c0 -77 -66 -153 -152 -153c-78 0 -114 49 -114 96c0 19 6 44 17 58c14 18 39 0 25 -17c-7 -9 -13 -25 -13 -41
c0 -35 25 -67 85 -67c69 0 122 57 122 119c0 67 -71 136 -191 136c-123 0 -235 -85 -235 -187c0 -68 30 -122 110 -122h18c13 0 19 -9 19 -17s-6 -16 -18 -16h-36c-173 0 -319 -117 -319 -242c0 -88 60 -194 232 -194c120 0 226 100 226 198c0 60 -43 116 -110 116
c-65 0 -107 -38 -108 -76c-2 -14 -7 -18 -15 -18c-7 0 -14 3 -14 18c1 51 53 107 137 107c85 0 140 -70 140 -147c0 -122 -131 -228 -257 -228zM645 882l44 -96c9 -15 -15 -29 -23 -16l-38 82l-119 -84c-20 -13 -31 13 -15 23l128 91c8 6 19 10 23 0z" />
    <glyph glyph-name="Icircumflex" unicode="&#xce;" horiz-adv-x="580" 
d="M578 670c36 0 81 -5 124 -20c21 -7 27 -16 27 -25c0 -7 -4 -15 -8 -19c-82 -80 -130 -155 -199 -302c-76 -160 -173 -364 -370 -364c-66 0 -125 28 -139 71c-7 22 20 35 28 12c10 -30 54 -53 111 -53c165 0 257 164 321 301v-1l40 87c46 100 129 220 183 264
c-1 -1 -7 2 -13 4c-33 10 -68 14 -105 14c-136 0 -237 -106 -237 -244c0 -21 3 -44 9 -64c5 -16 0 -28 -12 -28c-7 0 -13 7 -17 16c-8 25 -12 52 -12 77c0 151 117 274 269 274zM775 882l44 -96c9 -15 -15 -29 -23 -16l-38 82l-119 -84c-20 -13 -31 13 -15 23l128 91
c8 6 19 10 23 0z" />
    <glyph glyph-name="Ocircumflex" unicode="&#xd4;" horiz-adv-x="833" 
d="M116 306c47 202 238 366 425 366c162 0 270 -120 270 -282c0 -29 -4 -60 -10 -89c-47 -202 -238 -365 -425 -365c-162 0 -271 120 -271 282c0 30 4 59 11 88zM145 301c-6 -30 -10 -57 -10 -83c0 -145 96 -252 241 -252c172 0 349 155 395 340c7 30 10 59 10 84
c0 145 -95 252 -240 252c-174 0 -352 -153 -396 -341zM672 882l44 -96c9 -15 -15 -29 -23 -16l-38 82l-119 -84c-20 -13 -31 13 -15 23l128 91c8 6 19 10 23 0z" />
    <glyph glyph-name="Ucircumflex" unicode="&#xdb;" horiz-adv-x="743" 
d="M683 -254c-142 0 -163 155 -154 288c-59 -54 -123 -89 -182 -89c-130 0 -145 123 -100 216l117 254c40 87 39 192 -66 240c-90 42 -205 16 -248 -79c-32 -67 -2 -145 54 -172c44 -19 118 -18 139 38c8 28 35 10 29 -9c-23 -70 -119 -83 -179 -54c-72 33 -107 126 -71 208
c48 105 178 145 288 95c103 -47 139 -153 80 -278l-117 -255c-32 -70 -36 -175 74 -175c60 0 126 41 186 102c7 56 16 104 23 129c45 180 120 334 173 334c25 0 44 -26 44 -57c-5 -118 -99 -301 -214 -420c-12 -129 4 -286 125 -286c87 0 120 64 121 107c1 15 -2 27 -8 32
c-16 14 8 36 23 22c8 -8 16 -29 15 -54c-2 -55 -44 -137 -152 -137zM584 200c-7 -22 -14 -54 -19 -90c98 114 176 275 179 376c1 16 -8 24 -17 24c-37 0 -96 -153 -143 -310zM707 882l44 -96c9 -15 -15 -29 -23 -16l-38 82l-119 -84c-20 -13 -31 13 -15 23l128 91
c8 6 19 10 23 0z" />
    <glyph glyph-name="quoteleft" unicode="&#x2018;" horiz-adv-x="212" 
d="M189 439c-28 0 -38 29 -23 57c20 36 46 64 86 88c21 11 27 -13 12 -18c-22 -9 -48 -33 -63 -55c16 -4 31 -18 28 -36c-2 -20 -22 -36 -40 -36z" />
    <glyph glyph-name="quotedblleft" unicode="&#x201c;" horiz-adv-x="304" 
d="M189 439c-28 0 -38 29 -23 57c20 36 46 64 86 88c21 11 27 -13 12 -18c-22 -9 -48 -33 -63 -55c16 -4 31 -18 28 -36c-2 -20 -22 -36 -40 -36zM279 439c-28 0 -38 29 -23 57c20 36 46 64 86 88c21 11 27 -13 12 -18c-22 -9 -48 -33 -63 -55c16 -4 31 -18 28 -36
c-2 -20 -22 -36 -40 -36z" />
    <glyph glyph-name="quotedblright" unicode="&#x201d;" horiz-adv-x="304" 
d="M331 595c28 0 38 -29 23 -57c-20 -36 -46 -64 -86 -88c-21 -11 -27 13 -12 18c22 9 48 33 63 55c-16 4 -31 18 -28 36c2 20 22 36 40 36zM241 595c28 0 38 -29 23 -57c-20 -36 -46 -64 -86 -88c-21 -11 -27 13 -12 18c22 9 48 33 63 55c-16 4 -31 18 -28 36
c2 20 22 36 40 36z" />
    <glyph glyph-name="hungarumlaut" unicode="&#x2dd;" horiz-adv-x="402" 
d="M208 474c-17 -11 -33 11 -15 23l139 98c20 13 31 -13 15 -23zM307 474c-17 -11 -33 11 -15 23l139 98c20 13 31 -13 15 -23z" />
    <glyph glyph-name="cent" unicode="&#xa2;" horiz-adv-x="581" 
d="M486 572l-11 -25c30 -10 54 -29 72 -56c11 -15 -6 -42 -20 -21c-15 25 -36 43 -64 51l-201 -450c9 -2 17 -2 27 -2c44 0 87 18 124 47c23 18 37 -9 11 -26c-41 -31 -87 -49 -135 -49c-14 0 -26 1 -38 4l-14 -31c-7 -24 -34 -13 -28 9l14 32c-50 25 -81 80 -82 150
c-1 29 2 61 12 95c41 141 164 254 275 254c5 0 11 0 16 -1l14 31c6 19 33 9 28 -12zM168 205c1 -57 26 -103 67 -124l197 445h-4c-100 0 -212 -104 -249 -234c-9 -29 -11 -59 -11 -87z" />
    <glyph glyph-name="sterling" unicode="&#xa3;" horiz-adv-x="669" 
d="M267 321c-20 0 -20 25 0 25h84l39 85c43 96 114 170 201 170c75 0 116 -47 117 -92c1 -46 -35 -92 -87 -92c-51 -1 -74 32 -75 62c0 13 3 27 13 37c17 9 32 -1 20 -10c-5 -8 -9 -17 -10 -27c0 -19 16 -38 51 -38c38 0 64 32 63 66c0 34 -31 70 -92 70
c-76 0 -138 -69 -177 -153l-35 -78h67c22 0 22 -25 0 -25h-78l-24 -53c-34 -77 -77 -124 -124 -152c58 -41 120 -88 203 -88c79 0 124 48 130 92c3 29 -8 43 -22 58c-14 12 -3 28 16 14c23 -17 36 -44 33 -74c-6 -55 -60 -115 -158 -115s-166 58 -227 101
c-34 -15 -70 -20 -104 -20c-45 0 -80 14 -80 47c0 35 45 44 79 43c37 0 72 -18 107 -41c49 24 90 69 123 142l20 46h-73zM91 110c27 0 53 3 78 11c-27 17 -52 28 -79 28c-37 0 -53 -6 -52 -18c0 -16 27 -21 53 -21z" />
    <glyph glyph-name="Thorn" unicode="&#xde;" horiz-adv-x="923" 
d="M578 670c36 0 81 -5 124 -20c21 -7 27 -16 27 -25c0 -7 -4 -15 -8 -19c-82 -80 -130 -155 -199 -302v1l-11 -23c57 61 125 106 191 110c119 8 174 -79 174 -157c0 -121 -129 -251 -291 -251c-59 0 -118 14 -166 42c-17 10 -2 40 18 28c42 -25 90 -39 145 -39
c147 0 261 112 261 220c0 71 -45 133 -141 127c-105 -7 -195 -113 -258 -220c-72 -149 -168 -314 -346 -314c-66 0 -125 28 -139 71c-7 22 20 36 28 12c10 -30 54 -53 111 -53c165 0 257 164 321 301l94 199c45 98 130 219 183 263c-23 8 -72 18 -118 18
c-136 0 -237 -106 -237 -244c0 -21 3 -43 10 -65l-1 1c7 -15 -2 -28 -14 -28c-7 0 -13 6 -17 15c-8 25 -12 52 -12 77c0 151 119 275 271 275z" />
    <glyph glyph-name="perthousand" unicode="&#x2030;" horiz-adv-x="694" 
d="M354 207c0 43 35 78 78 78c26 0 49 -13 63 -32c14 19 37 32 63 32c43 0 78 -35 78 -78s-35 -78 -78 -78c-26 0 -49 12 -63 32c-14 -20 -37 -32 -63 -32c-43 0 -78 35 -78 78zM559 532l-446 -484c-15 -21 -42 -5 -28 14l449 487c13 17 38 2 25 -17zM162 414
c0 43 35 78 78 78s78 -35 78 -78s-35 -78 -78 -78s-78 35 -78 78zM510 207c0 -27 21 -48 48 -48s48 21 48 48s-21 48 -48 48c-26 0 -47 -20 -48 -45v-3zM480 207v3c-2 25 -22 45 -48 45c-27 0 -48 -21 -48 -48s21 -48 48 -48c26 0 46 19 48 45v3zM192 414
c0 -27 21 -48 48 -48s48 21 48 48s-21 48 -48 48s-48 -21 -48 -48z" />
    <glyph glyph-name="numbersign" unicode="#" horiz-adv-x="590" 
d="M148 354c-20 0 -20 28 0 28h120l63 140c9 19 37 9 28 -12l-57 -128h133l63 140c9 19 37 9 28 -12l-57 -128h115c22 0 22 -28 0 -28h-128l-60 -135h116c22 0 22 -28 0 -28h-129l-52 -118c-11 -24 -40 -13 -30 9l49 109h-134l-52 -118c-11 -24 -40 -13 -30 9l49 109h-107
c-20 0 -20 28 0 28h119l61 135h-108zM289 354l-60 -135h133l61 135h-134z" />
    <glyph glyph-name="ccedilla" unicode="&#xe7;" horiz-adv-x="232" 
d="M186 375c57 0 80 -41 57 -95l-9 -22c-11 -27 -43 -19 -33 5c4 7 6 13 10 22c10 24 19 62 -25 62c-50 0 -78 -65 -89 -90l-52 -110c-34 -72 -9 -119 57 -119s114 57 130 87c8 15 33 7 25 -11c-23 -53 -85 -104 -155 -104c-15 0 -29 1 -41 5c-4 -27 21 -48 21 -82
c0 -37 -31 -68 -68 -68c-11 0 -23 2 -36 10c-18 9 -4 39 16 26c8 -5 14 -6 20 -6c21 0 38 17 38 38c0 39 -31 53 -18 93c-38 24 -51 71 -17 143l54 114c13 29 49 102 115 102z" />
    <glyph glyph-name="Ccedilla" unicode="&#xc7;" horiz-adv-x="718" 
d="M379 -118c-18 0 -35 2 -51 5c-9 -31 20 -52 20 -89s-31 -68 -68 -68c-11 0 -23 2 -36 10c-18 9 -4 39 16 26c8 -5 14 -6 20 -6c21 0 38 17 38 38c0 39 -32 53 -18 95c-131 37 -210 165 -210 308c0 195 193 464 470 464c140 0 214 -83 214 -162c0 -75 -65 -151 -151 -151
s-113 51 -113 99c0 17 4 35 15 49c13 16 35 2 25 -15c-5 -9 -10 -23 -10 -35c0 -34 22 -69 86 -69c66 0 119 58 119 116c0 67 -58 139 -187 139c-254 0 -438 -249 -438 -434c0 -147 92 -291 259 -291c135 0 230 105 230 200c0 60 -41 115 -105 115c-71 0 -100 -43 -112 -74
c-9 -23 -37 -12 -28 12c16 44 62 90 140 90c83 0 135 -65 135 -139c0 -108 -106 -233 -260 -233z" />
    <glyph glyph-name="heart" unicode="&#x2665;" horiz-adv-x="677" 
d="M341 381c44 0 89 -26 132 -51c40 -24 81 -46 116 -46c31 0 55 13 68 31c5 6 11 7 16 6c9 -2 14 -12 6 -24c-18 -24 -49 -41 -90 -41c-38 0 -74 16 -107 35c-28 16 -69 -22 -97 -63c10 3 19 3 26 3c53 0 89 -35 89 -86c0 -100 -122 -174 -254 -174c-25 0 -50 3 -74 10
c-14 4 -19 15 -16 23c2 6 9 13 22 8c1 0 1 -1 11 -3c8 -2 15 35 15 56c0 17 -3 36 -7 55c-4 21 -8 42 -8 63c0 48 39 86 88 86c27 0 53 -13 59 -40c6 -21 -18 -30 -26 -13c-7 15 -16 23 -33 23c-33 0 -58 -24 -58 -56c0 -18 3 -37 6 -57s6 -43 6 -62c0 -18 -2 -35 -7 -53
c-1 -4 -2 -7 -2 -7c-1 -3 15 -3 19 -3c121 0 229 60 229 144c0 34 -24 57 -61 57c-21 0 -35 -6 -45 -14c-19 -16 -38 -2 -20 30c20 31 59 84 90 96c6 3 2 6 -6 10c-30 16 -60 29 -87 29c-37 0 -66 -14 -84 -33c-9 -9 -17 -8 -22 -3s-6 13 2 21c24 24 57 43 104 43z" />
    <glyph glyph-name="section" unicode="&#xa7;" horiz-adv-x="677" 
d="M341 381c44 0 89 -26 132 -51c40 -24 81 -46 116 -46c31 0 55 13 68 31c5 6 11 7 16 6c9 -2 14 -12 6 -24c-18 -24 -49 -41 -90 -41c-38 0 -74 16 -107 35c-28 16 -69 -22 -97 -63c10 3 19 3 26 3c53 0 89 -35 89 -86c0 -100 -122 -174 -254 -174c-25 0 -50 3 -74 10
c-14 4 -19 15 -16 23c2 6 9 13 22 8c1 0 1 -1 11 -3c8 -2 15 35 15 56c0 17 -3 36 -7 55c-4 21 -8 42 -8 63c0 48 39 86 88 86c27 0 53 -13 59 -40c6 -21 -18 -30 -26 -13c-7 15 -16 23 -33 23c-33 0 -58 -24 -58 -56c0 -18 3 -37 6 -57s6 -43 6 -62c0 -18 -2 -35 -7 -53
c-1 -4 -2 -7 -2 -7c-1 -3 15 -3 19 -3c121 0 229 60 229 144c0 34 -24 57 -61 57c-21 0 -35 -6 -45 -14c-19 -16 -38 -2 -20 30c20 31 59 84 90 96c6 3 2 6 -6 10c-30 16 -60 29 -87 29c-37 0 -66 -14 -84 -33c-9 -9 -17 -8 -22 -3s-6 13 2 21c24 24 57 43 104 43z" />
    <glyph glyph-name="copyright" unicode="&#xa9;" horiz-adv-x="506" 
d="M103 292c0 101 82 183 183 183s183 -82 183 -183s-82 -183 -183 -183s-183 82 -183 183zM133 292c0 -85 68 -153 153 -153s153 68 153 153s-68 153 -153 153s-153 -68 -153 -153zM190 295c0 62 45 111 100 111c16 0 41 -8 55 -19c18 -14 2 -40 -14 -26
c-11 9 -26 15 -41 15c-39 0 -70 -35 -70 -81s31 -81 70 -81c15 0 30 6 41 15c16 14 32 -12 14 -26c-14 -11 -39 -19 -55 -19c-55 0 -100 49 -100 111z" />
    <glyph glyph-name="registered" unicode="&#xae;" horiz-adv-x="506" 
d="M103 292c0 101 82 183 183 183s183 -82 183 -183s-82 -183 -183 -183s-183 82 -183 183zM133 292c0 -85 68 -153 153 -153s153 68 153 153s-68 153 -153 153s-153 -68 -153 -153zM247 208c0 -17 -30 -16 -30 0v172c12 12 41 20 61 20c52 0 77 -35 77 -69
c0 -29 -17 -55 -50 -63c7 -24 17 -46 34 -46c4 0 8 0 13 3c19 11 27 -21 9 -28c-8 -3 -15 -5 -22 -5c-34 0 -54 37 -65 74c-2 0 -4 0 -7 1c-17 0 -16 30 0 30c5 -1 10 -1 16 -1c28 0 42 17 42 35c0 19 -15 39 -47 39c-6 0 -21 -1 -31 -5v-157z" />
    <glyph glyph-name="Oslash" unicode="&#xd8;" horiz-adv-x="833" 
d="M116 306c47 202 238 366 425 366c38 0 72 -7 104 -19l29 46c9 19 37 9 28 -12l-29 -47c86 -46 138 -138 138 -250c0 -29 -4 -60 -10 -89c-47 -202 -238 -365 -425 -365c-47 0 -89 10 -126 28l-13 -22c-11 -24 -40 -13 -30 9l17 28c-74 49 -119 135 -119 239
c0 30 4 59 11 88zM781 390c0 101 -47 184 -124 225l-391 -625c32 -15 69 -24 110 -24c172 0 349 155 395 340c7 30 10 59 10 84zM145 301c-6 -30 -10 -57 -10 -83c0 -93 39 -170 105 -214l389 623c-27 9 -56 15 -88 15c-174 0 -352 -153 -396 -341z" />
    <glyph glyph-name="OE" unicode="&#x152;" horiz-adv-x="311" 
 />
    <glyph glyph-name="underscore" unicode="_" horiz-adv-x="349" 
d="M67 -17c-20 0 -20 28 0 28h179c22 0 22 -28 0 -28h-179z" />
    <glyph glyph-name="trademark" unicode="&#x2122;" horiz-adv-x="571" 
d="M377 244l-48 78v-114c0 -17 -30 -16 -30 0v152c0 13 5 20 17 20c11 0 18 -8 22 -14l57 -93l57 93c4 6 11 14 22 14c12 0 17 -7 17 -20v-152c0 -16 -30 -17 -30 0v114l-48 -78c-12 -20 -24 -20 -36 0zM209 208c0 -17 -30 -16 -30 0v144h-50c-17 0 -16 28 0 28h128
c16 0 17 -28 0 -28h-48v-144z" />
    <glyph glyph-name="oslash" unicode="&#xf8;" horiz-adv-x="269" 
d="M63 0c-11 0 -21 1 -30 3l-16 -26c-11 -24 -40 -13 -30 9l19 31c-12 10 -19 26 -19 47c0 16 4 32 13 51l74 158c13 29 51 102 119 102c11 0 22 -1 32 -4l24 38c9 19 37 9 28 -12l-26 -41c11 -11 18 -26 18 -45c0 -16 -4 -32 -13 -51l-74 -158c-13 -29 -51 -102 -119 -102z
M17 64c0 -24 19 -36 46 -36c52 0 82 65 93 90l72 154c7 15 11 30 11 39c0 24 -19 36 -46 36c-52 0 -82 -65 -93 -90l-72 -154c-7 -15 -11 -30 -11 -39z" />
    <glyph glyph-name="backslash" unicode="\" horiz-adv-x="362" 
d="M237 15l-99 563c-4 23 24 25 27 6l100 -561c5 -26 -23 -34 -28 -8z" />
    <glyph glyph-name="thorn" unicode="&#xfe;" horiz-adv-x="276" 
d="M-159 -231l373 815c8 19 37 9 28 -12l-99 -217c15 12 33 20 53 20c45 0 72 -21 72 -64c0 -16 -4 -32 -13 -51l-74 -158c-13 -29 -51 -102 -119 -102c-33 0 -55 13 -65 36l-128 -279c-8 -19 -37 -9 -28 12zM25 97l-4 -9c-3 -10 -5 -18 -5 -24c0 -24 19 -36 46 -36
c52 0 82 65 93 90l72 154c7 15 11 30 11 39c0 24 -15 36 -42 36c-44 0 -77 -46 -92 -76l-4 -9l-71 -155zM183 0c-15 0 -15 28 0 28c56 0 85 70 93 87c8 15 32 7 25 -11c-14 -37 -58 -104 -118 -104z" />
    <glyph glyph-name="equal" unicode="=" horiz-adv-x="361" 
d="M131 210c-20 0 -20 28 0 28h179c22 0 22 -28 0 -28h-179zM94 129c-20 0 -20 28 0 28h179c22 0 22 -28 0 -28h-179z" />
    <glyph glyph-name="eth" unicode="&#xf0;" horiz-adv-x="269" 
d="M197 448c-17 -10 -32 14 -14 24l55 32c-10 17 -24 30 -42 40c-20 10 1 36 19 25c22 -12 38 -29 49 -49l59 34c19 11 33 -13 14 -24l-61 -36c27 -75 5 -180 -27 -249l-67 -143c-13 -29 -51 -102 -119 -102c-45 0 -76 21 -76 64c0 16 4 32 13 51l74 158
c13 29 51 102 119 102c16 0 30 -3 42 -8c16 -7 4 -35 -11 -27c-8 5 -19 7 -31 7c-52 0 -82 -65 -93 -90l-72 -154c-7 -15 -11 -30 -11 -39c0 -24 19 -36 46 -36c52 0 82 65 93 90l68 146c28 61 47 150 25 215z" />
    <glyph glyph-name="multiply" unicode="&#xd7;" horiz-adv-x="677" 
d="M341 381c44 0 89 -26 132 -51c40 -24 81 -46 116 -46c31 0 55 13 68 31c5 6 11 7 16 6c9 -2 14 -12 6 -24c-18 -24 -49 -41 -90 -41c-38 0 -74 16 -107 35c-28 16 -69 -22 -97 -63c10 3 19 3 26 3c53 0 89 -35 89 -86c0 -100 -122 -174 -254 -174c-25 0 -50 3 -74 10
c-14 4 -19 15 -16 23c2 6 9 13 22 8c1 0 1 -1 11 -3c8 -2 15 35 15 56c0 17 -3 36 -7 55c-4 21 -8 42 -8 63c0 48 39 86 88 86c27 0 53 -13 59 -40c6 -21 -18 -30 -26 -13c-7 15 -16 23 -33 23c-33 0 -58 -24 -58 -56c0 -18 3 -37 6 -57s6 -43 6 -62c0 -18 -2 -35 -7 -53
c-1 -4 -2 -7 -2 -7c-1 -3 15 -3 19 -3c121 0 229 60 229 144c0 34 -24 57 -61 57c-21 0 -35 -6 -45 -14c-19 -16 -38 -2 -20 30c20 31 59 84 90 96c6 3 2 6 -6 10c-30 16 -60 29 -87 29c-37 0 -66 -14 -84 -33c-9 -9 -17 -8 -22 -3s-6 13 2 21c24 24 57 43 104 43z" />
    <glyph glyph-name="divide" unicode="&#xf7;" horiz-adv-x="677" 
d="M341 381c44 0 89 -26 132 -51c40 -24 81 -46 116 -46c31 0 55 13 68 31c5 6 11 7 16 6c9 -2 14 -12 6 -24c-18 -24 -49 -41 -90 -41c-38 0 -74 16 -107 35c-28 16 -69 -22 -97 -63c10 3 19 3 26 3c53 0 89 -35 89 -86c0 -100 -122 -174 -254 -174c-25 0 -50 3 -74 10
c-14 4 -19 15 -16 23c2 6 9 13 22 8c1 0 1 -1 11 -3c8 -2 15 35 15 56c0 17 -3 36 -7 55c-4 21 -8 42 -8 63c0 48 39 86 88 86c27 0 53 -13 59 -40c6 -21 -18 -30 -26 -13c-7 15 -16 23 -33 23c-33 0 -58 -24 -58 -56c0 -18 3 -37 6 -57s6 -43 6 -62c0 -18 -2 -35 -7 -53
c-1 -4 -2 -7 -2 -7c-1 -3 15 -3 19 -3c121 0 229 60 229 144c0 34 -24 57 -61 57c-21 0 -35 -6 -45 -14c-19 -16 -38 -2 -20 30c20 31 59 84 90 96c6 3 2 6 -6 10c-30 16 -60 29 -87 29c-37 0 -66 -14 -84 -33c-9 -9 -17 -8 -22 -3s-6 13 2 21c24 24 57 43 104 43z" />
    <glyph glyph-name="germandbls" unicode="&#xdf;" horiz-adv-x="328" 
d="M191 461l-162 -357c-15 -32 -58 -104 -122 -104c-21 0 -20 28 0 28c50 0 78 55 93 87l155 339c53 115 130 205 232 205c85 0 119 -47 119 -97c0 -142 -242 -114 -288 -222c-23 -55 44 -128 40 -185c-7 -80 -73 -157 -157 -157c-16 0 -31 3 -44 8c-14 6 -26 15 -35 25
c-11 12 7 34 23 20c7 -8 17 -15 30 -19c9 -3 19 -4 29 -4c66 0 119 56 124 126c5 62 -63 127 -38 198c37 102 286 99 286 210c0 35 -24 69 -89 69c-73 0 -148 -61 -196 -170zM235 0c-15 0 -15 28 0 28c56 0 85 70 93 87c8 15 32 7 25 -11c-14 -37 -58 -104 -118 -104z" />
    <glyph glyph-name="plus" unicode="+" horiz-adv-x="371" 
d="M235 333c8 19 33 7 25 -11l-37 -84h99c22 0 22 -28 0 -28h-111l-46 -106c-9 -20 -34 -9 -26 11l42 95h-97c-20 0 -20 28 0 28h109z" />
    <glyph glyph-name="dotaccent" unicode="&#x2d9;" horiz-adv-x="151" 
d="M199 459c-3 -15 -17 -27 -32 -27c-16 0 -25 12 -22 27c2 15 17 28 31 28c15 0 26 -13 23 -28z" />
    <glyph glyph-name="less" unicode="&#x3c;" horiz-adv-x="282" 
d="M92 228l151 88c26 16 37 -15 15 -28l-144 -81l66 -120c11 -20 -16 -33 -26 -16l-71 130c-6 12 -4 20 9 27z" />
    <glyph glyph-name="greater" unicode="&#x3e;" horiz-adv-x="323" 
d="M249 158l-151 -88c-26 -16 -37 15 -15 28l144 81l-66 120c-11 20 16 33 26 16l71 -130c6 -12 4 -20 -9 -27z" />
    <glyph glyph-name="guilsinglleft" unicode="&#x2039;" horiz-adv-x="282" 
d="M92 228l151 88c26 16 37 -15 15 -28l-144 -81l66 -120c11 -20 -16 -33 -26 -16l-71 130c-6 12 -4 20 9 27z" />
    <glyph glyph-name="guilsinglright" unicode="&#x203a;" horiz-adv-x="323" 
d="M249 158l-151 -88c-26 -16 -37 15 -15 28l144 81l-66 120c-11 20 16 33 26 16l71 -130c6 -12 4 -20 -9 -27z" />
    <glyph glyph-name="onequarter" unicode="&#xbc;" horiz-adv-x="734" 
d="M336 20h122l144 318c10 17 37 11 27 -11l-140 -307h40c29 0 29 -27 -1 -30h-55l-51 -112c-10 -22 -38 -13 -29 7l47 105h-137c-12 0 -18 9 -18 17c0 5 5 15 12 21c24 21 37 33 47 43c70 73 146 185 146 286c0 12 -2 22 -5 34c-3 8 1 20 13 21c9 1 16 -4 18 -14
s4 -22 4 -37c0 -126 -93 -251 -169 -326zM261 609c20 42 45 53 61 53c17 0 28 -14 28 -29c0 -13 -9 -32 -28 -57c-18 -22 -46 -50 -78 -71l-94 -203c-8 -17 -37 -13 -27 9l79 170c-19 -8 -37 -13 -52 -13c-6 0 -10 6 -10 13s4 14 13 16c21 4 45 14 68 27zM288 600l-21 -45
c14 12 26 24 36 37c10 15 16 25 16 33c0 3 -2 5 -4 5c-5 0 -17 -8 -27 -30zM497 572l-349 -558c-11 -24 -40 -13 -30 9l351 561c9 19 37 9 28 -12z" />
    <glyph glyph-name="onehalf" unicode="&#xbd;" horiz-adv-x="734" 
d="M321 -6c-11 0 -17 8 -17 15s6 15 17 15h9c128 14 320 149 320 250c0 52 -33 92 -96 92c-72 0 -117 -56 -117 -104c0 -19 9 -41 19 -56c14 -20 -11 -34 -22 -21c-14 20 -27 45 -27 72c0 66 53 139 147 139c78 0 125 -53 125 -122c0 -72 -89 -180 -243 -250h172
c12 0 18 -8 18 -15c0 -8 -6 -15 -18 -15h-287zM261 609c20 42 45 53 61 53c17 0 28 -14 28 -29c0 -13 -8 -33 -28 -57c-17 -23 -46 -50 -78 -71l-94 -203c-3 -4 -8 -6 -13 -6c-8 0 -15 4 -15 10c0 2 0 3 1 5l79 170c-19 -8 -37 -13 -52 -13c-6 0 -10 6 -10 13s4 14 13 16
c21 4 45 14 68 27zM288 600l-21 -45c14 12 26 24 36 37c10 15 16 25 16 33c0 3 -2 5 -4 5c-5 0 -17 -8 -27 -30zM497 572l-349 -558c-11 -24 -40 -13 -30 9l351 561c9 19 37 9 28 -12z" />
    <glyph glyph-name="threequarters" unicode="&#xbe;" horiz-adv-x="853" 
d="M220 366c-35 0 -58 16 -58 34c0 21 24 40 56 40c28 0 57 -11 78 -31c73 28 116 95 116 151c0 34 -27 87 -97 87c-72 0 -119 -51 -119 -96c0 -32 25 -64 68 -64c34 0 70 23 70 58c0 15 -6 26 -9 30c-5 11 14 26 27 7c5 -9 11 -20 11 -39c0 -39 -45 -85 -99 -85
c-58 0 -96 43 -96 92c0 64 60 126 147 126c85 0 126 -64 126 -116c0 -62 -46 -139 -126 -174c11 -17 17 -37 17 -59c0 -101 -127 -222 -267 -222c-21 0 -87 5 -87 24c0 7 6 16 16 16h5c25 -6 45 -10 67 -10c118 0 236 102 236 192c0 18 -5 35 -15 48c-20 -6 -43 -9 -67 -9z
M454 20h122l144 318c10 17 37 11 27 -11l-140 -307h40c29 0 29 -27 -1 -30h-55l-51 -112c-10 -22 -38 -13 -29 7l47 105h-137c-12 0 -18 9 -18 17c0 5 5 15 12 21c24 21 37 33 47 43c70 73 146 185 146 286c0 12 -2 22 -5 34c-3 8 1 20 13 21c9 1 16 -4 18 -14s4 -22 4 -37
c0 -126 -93 -251 -169 -326zM220 395c14 0 29 1 42 4c-14 8 -30 12 -47 12c-14 0 -22 -3 -22 -8s8 -8 27 -8zM616 572l-349 -558c-11 -24 -40 -13 -30 9l351 561c9 19 37 9 28 -12z" />
    <glyph glyph-name="guillemotleft" unicode="&#xab;" horiz-adv-x="453" 
d="M165 201c0 -3 6 -9 36 -39l33 -33c13 -13 -5 -34 -15 -26l-73 73c-8 8 -15 15 -15 25s6 16 17 27l76 76c14 14 31 -10 18 -23l-44 -43c-28 -28 -33 -33 -33 -37zM296 201c0 -3 6 -9 36 -39l33 -33c13 -13 -5 -34 -15 -26l-73 73c-8 8 -15 15 -15 25s6 16 17 27l76 76
c14 14 31 -10 18 -23l-44 -43c-28 -28 -33 -33 -33 -37z" />
    <glyph glyph-name="guillemotright" unicode="&#xbb;" horiz-adv-x="466" 
d="M352 201c0 4 -5 9 -33 37l-44 43c-13 13 4 37 18 23l76 -76c11 -11 17 -17 17 -27s-7 -17 -15 -25l-73 -73c-10 -8 -28 13 -15 26l33 33c30 30 36 36 36 39zM221 201c0 4 -5 9 -33 37l-44 43c-13 13 4 37 18 23l76 -76c11 -11 17 -17 17 -27s-7 -17 -15 -25l-73 -73
c-10 -8 -28 13 -15 26l33 33c30 30 36 36 36 39z" />
    <glyph glyph-name="onesuperior" unicode="&#xb9;" horiz-adv-x="295" 
d="M261 609c20 42 45 53 61 53c17 0 28 -14 28 -29c0 -13 -8 -33 -28 -57c-17 -23 -46 -50 -78 -71l-94 -203c-3 -4 -8 -6 -13 -6c-8 0 -15 4 -15 10c0 2 0 3 1 5l79 170c-19 -8 -37 -13 -52 -13c-6 0 -10 6 -10 13s4 14 13 16c21 4 45 14 68 27zM288 600l-21 -45
c14 12 26 24 36 37c10 15 16 25 16 33c0 3 -2 5 -4 5c-5 0 -17 -8 -27 -30z" />
    <glyph glyph-name="twosuperior" unicode="&#xb2;" horiz-adv-x="493" 
d="M148 268c-11 0 -17 8 -17 15s6 15 17 15h9c128 14 320 149 320 250c0 52 -33 92 -96 92c-72 0 -117 -56 -117 -104c0 -19 4 -42 19 -56c19 -18 -9 -37 -22 -21c-18 20 -27 45 -27 72c0 66 53 139 147 139c78 0 125 -53 125 -122c0 -72 -81 -184 -242 -250h171
c12 0 18 -8 18 -15c0 -8 -6 -15 -18 -15h-287z" />
    <glyph glyph-name="threesuperior" unicode="&#xb3;" horiz-adv-x="412" 
d="M241 366c-35 0 -56 16 -56 34c0 21 24 40 56 40c28 0 56 -11 78 -31c73 29 116 95 116 151c0 34 -27 87 -97 87c-72 0 -119 -51 -119 -96c0 -32 25 -64 68 -64c34 0 70 23 70 58c0 15 -6 26 -9 30c-5 11 14 26 27 7c5 -9 11 -20 11 -39c0 -39 -45 -85 -99 -85
c-58 0 -96 43 -96 92c0 64 60 126 147 126c85 0 126 -64 126 -116c0 -61 -46 -138 -126 -174c11 -16 17 -37 17 -59c0 -101 -127 -222 -267 -222c-21 0 -87 5 -87 24c0 7 6 16 16 16h5c25 -6 45 -10 67 -10c118 0 236 102 236 192c0 19 -6 35 -15 49c-21 -7 -44 -10 -69 -10
zM241 395c15 0 30 1 43 4c-13 8 -29 12 -46 12c-14 0 -22 -3 -22 -8s6 -8 25 -8z" />
    <glyph glyph-name="mu" unicode="&#xb5;" 
d="M141 348l-113 -245c-7 -15 -11 -30 -11 -39c0 -24 19 -36 46 -36c45 0 75 50 88 77l5 10l112 245c8 19 37 9 28 -12l-112 -245c-7 -16 -11 -31 -11 -40c0 -24 15 -35 41 -35c56 0 85 70 93 87c8 15 32 7 25 -11c-14 -37 -58 -104 -118 -104c-38 0 -63 15 -70 46
c-19 -24 -46 -46 -81 -46c-32 0 -57 10 -68 31l-82 -177c-8 -19 -37 -9 -28 12l228 494c8 19 37 9 28 -12z" />
    <glyph glyph-name="mu" unicode="&#x3bc;" 
d="M141 348l-113 -245c-7 -15 -11 -30 -11 -39c0 -24 19 -36 46 -36c45 0 75 50 88 77l5 10l112 245c8 19 37 9 28 -12l-112 -245c-7 -16 -11 -31 -11 -40c0 -24 15 -35 41 -35c56 0 85 70 93 87c8 15 32 7 25 -11c-14 -37 -58 -104 -118 -104c-38 0 -63 15 -70 46
c-19 -24 -46 -46 -81 -46c-32 0 -57 10 -68 31l-82 -177c-8 -19 -37 -9 -28 12l228 494c8 19 37 9 28 -12z" />
    <glyph glyph-name="brokenbar" unicode="&#xa6;" horiz-adv-x="235" 
d="M342 602l-115 -259c-11 -24 -40 -13 -30 9l117 262c9 19 37 9 28 -12zM187 254l-115 -259c-11 -24 -40 -13 -30 9l117 262c9 19 37 9 28 -12z" />
    <glyph glyph-name="ordfeminine" unicode="&#xaa;" 
d="M274 297c-32 0 -52 12 -58 37c-14 -20 -33 -37 -61 -37c-38 0 -62 17 -62 53c0 13 3 26 10 41l58 125c13 26 45 82 96 82c24 0 41 -11 49 -28l7 14c11 20 36 10 25 -11l-88 -193c-6 -12 -9 -24 -9 -31c0 -17 14 -26 33 -26c30 0 54 28 76 68c9 18 32 11 22 -11
c-13 -29 -51 -83 -98 -83zM155 323c32 0 54 35 65 57c2 4 3 7 5 11l60 131c3 9 5 17 5 22c0 18 -14 28 -33 28c-38 0 -62 -49 -72 -69l-57 -121c-4 -11 -8 -23 -8 -30c0 -19 15 -29 35 -29z" />
    <glyph glyph-name="cedilla" unicode="&#xb8;" horiz-adv-x="232" 
d="M40 32c9 23 40 8 28 -8c-23 -38 14 -60 14 -101c0 -37 -31 -68 -68 -68c-11 0 -23 2 -36 10c-18 9 -4 39 16 26c8 -5 14 -6 20 -6c21 0 38 17 38 38c0 43 -39 55 -12 109z" />
    <glyph glyph-name="breve" unicode="&#x2d8;" 
d="M171 529c-6 20 16 32 24 16c9 -23 34 -41 66 -41c24 0 52 11 80 34c15 14 30 -7 13 -22c-34 -30 -69 -42 -99 -42c-40 0 -72 23 -84 55z" />
    <glyph glyph-name="ogonek" unicode="&#x2db;" 
d="M241 33c20 10 29 -16 13 -23c-33 -17 -49 -41 -49 -59c0 -20 13 -35 39 -35c13 0 30 4 47 20c16 15 32 -8 16 -23c-17 -16 -45 -27 -63 -27c-45 0 -69 29 -69 65c0 28 21 59 66 82z" />
    <glyph glyph-name="minus" unicode="&#x2212;" horiz-adv-x="371" 
d="M84 210c-20 0 -20 28 0 28h238c22 0 22 -28 0 -28h-238z" />
    <glyph glyph-name="logicalnot" unicode="&#xac;" horiz-adv-x="677" 
d="M341 381c44 0 89 -26 132 -51c40 -24 81 -46 116 -46c31 0 55 13 68 31c5 6 11 7 16 6c9 -2 14 -12 6 -24c-18 -24 -49 -41 -90 -41c-38 0 -74 16 -107 35c-28 16 -69 -22 -97 -63c10 3 19 3 26 3c53 0 89 -35 89 -86c0 -100 -122 -174 -254 -174c-25 0 -50 3 -74 10
c-14 4 -19 15 -16 23c2 6 9 13 22 8c1 0 1 -1 11 -3c8 -2 15 35 15 56c0 17 -3 36 -7 55c-4 21 -8 42 -8 63c0 48 39 86 88 86c27 0 53 -13 59 -40c6 -21 -18 -30 -26 -13c-7 15 -16 23 -33 23c-33 0 -58 -24 -58 -56c0 -18 3 -37 6 -57s6 -43 6 -62c0 -18 -2 -35 -7 -53
c-1 -4 -2 -7 -2 -7c-1 -3 15 -3 19 -3c121 0 229 60 229 144c0 34 -24 57 -61 57c-21 0 -35 -6 -45 -14c-19 -16 -38 -2 -20 30c20 31 59 84 90 96c6 3 2 6 -6 10c-30 16 -60 29 -87 29c-37 0 -66 -14 -84 -33c-9 -9 -17 -8 -22 -3s-6 13 2 21c24 24 57 43 104 43z" />
    <glyph glyph-name="asciicircum" unicode="^" horiz-adv-x="409" 
d="M291 367l59 -188c6 -21 -19 -30 -25 -10l-51 168l-156 -178c-16 -18 -36 3 -23 17l171 191c8 6 21 10 25 0z" />
    <glyph glyph-name="yen" unicode="&#xa5;" horiz-adv-x="456" 
d="M127 210c-20 0 -20 28 0 28h75l1 2l-49 293c-3 21 27 30 30 10l45 -272l260 268c18 18 42 -6 27 -20l-277 -281h67c22 0 22 -28 0 -28h-83l-24 -53h70c22 0 22 -28 0 -28h-82l-56 -125c-9 -19 -37 -9 -28 12l50 113h-63c-20 0 -20 28 0 28h76l23 53h-62z" />
    <glyph glyph-name="currency" unicode="&#xa4;" horiz-adv-x="677" 
d="M341 381c44 0 89 -26 132 -51c40 -24 81 -46 116 -46c31 0 55 13 68 31c5 6 11 7 16 6c9 -2 14 -12 6 -24c-18 -24 -49 -41 -90 -41c-38 0 -74 16 -107 35c-28 16 -69 -22 -97 -63c10 3 19 3 26 3c53 0 89 -35 89 -86c0 -100 -122 -174 -254 -174c-25 0 -50 3 -74 10
c-14 4 -19 15 -16 23c2 6 9 13 22 8c1 0 1 -1 11 -3c8 -2 15 35 15 56c0 17 -3 36 -7 55c-4 21 -8 42 -8 63c0 48 39 86 88 86c27 0 53 -13 59 -40c6 -21 -18 -30 -26 -13c-7 15 -16 23 -33 23c-33 0 -58 -24 -58 -56c0 -18 3 -37 6 -57s6 -43 6 -62c0 -18 -2 -35 -7 -53
c-1 -4 -2 -7 -2 -7c-1 -3 15 -3 19 -3c121 0 229 60 229 144c0 34 -24 57 -61 57c-21 0 -35 -6 -45 -14c-19 -16 -38 -2 -20 30c20 31 59 84 90 96c6 3 2 6 -6 10c-30 16 -60 29 -87 29c-37 0 -66 -14 -84 -33c-9 -9 -17 -8 -22 -3s-6 13 2 21c24 24 57 43 104 43z" />
    <glyph glyph-name="degree" unicode="&#xb0;" horiz-adv-x="267" 
d="M113 501c0 48 46 94 98 94c36 0 61 -27 61 -62c0 -50 -50 -94 -96 -94c-37 0 -63 28 -63 62zM205 565c-29 0 -60 -26 -60 -60c0 -21 14 -36 37 -36c29 0 59 26 59 57c0 22 -15 39 -36 39z" />
    <glyph glyph-name="plusminus" unicode="&#xb1;" horiz-adv-x="405" 
d="M269 333c8 19 33 7 25 -11l-37 -84h99c22 0 22 -28 0 -28h-111l-46 -106c-9 -20 -34 -9 -26 11l42 95h-97c-20 0 -20 28 0 28h109zM53 34c-20 0 -20 28 0 28h238c22 0 22 -28 0 -28h-238z" />
    <glyph glyph-name="paragraph" unicode="&#xb6;" horiz-adv-x="677" 
d="M341 381c44 0 89 -26 132 -51c40 -24 81 -46 116 -46c31 0 55 13 68 31c5 6 11 7 16 6c9 -2 14 -12 6 -24c-18 -24 -49 -41 -90 -41c-38 0 -74 16 -107 35c-28 16 -69 -22 -97 -63c10 3 19 3 26 3c53 0 89 -35 89 -86c0 -100 -122 -174 -254 -174c-25 0 -50 3 -74 10
c-14 4 -19 15 -16 23c2 6 9 13 22 8c1 0 1 -1 11 -3c8 -2 15 35 15 56c0 17 -3 36 -7 55c-4 21 -8 42 -8 63c0 48 39 86 88 86c27 0 53 -13 59 -40c6 -21 -18 -30 -26 -13c-7 15 -16 23 -33 23c-33 0 -58 -24 -58 -56c0 -18 3 -37 6 -57s6 -43 6 -62c0 -18 -2 -35 -7 -53
c-1 -4 -2 -7 -2 -7c-1 -3 15 -3 19 -3c121 0 229 60 229 144c0 34 -24 57 -61 57c-21 0 -35 -6 -45 -14c-19 -16 -38 -2 -20 30c20 31 59 84 90 96c6 3 2 6 -6 10c-30 16 -60 29 -87 29c-37 0 -66 -14 -84 -33c-9 -9 -17 -8 -22 -3s-6 13 2 21c24 24 57 43 104 43z" />
    <glyph glyph-name="ordmasculine" unicode="&#xba;" horiz-adv-x="386" 
d="M59 477c36 101 129 183 211 183c70 0 110 -51 110 -126c0 -117 -111 -255 -226 -255c-67 0 -108 48 -108 120c0 23 3 50 13 78zM88 467c-9 -25 -11 -49 -11 -68c0 -52 30 -88 78 -88c98 0 194 126 194 220c0 57 -29 98 -80 98c-69 0 -150 -72 -181 -162z" />
    <glyph glyph-name="asterisk" unicode="*" horiz-adv-x="460" 
d="M456 446h-140l59 -105c12 -19 -14 -43 -27 -15l-60 109l-121 -109c-27 -28 -43 1 -17 20l110 100h-124c-30 0 -22 32 5 32l123 -1l-52 96c-14 21 13 37 25 15l60 -108l125 113c24 22 43 1 19 -20l-106 -96h127c27 0 18 -31 -6 -31z" />
    <glyph glyph-name="h.1111" horiz-adv-x="306" 
d="M155 115l73 157c7 15 11 30 11 39c0 24 -19 36 -46 36c-45 0 -75 -51 -89 -78l-4 -9l-110 -239c-11 -23 -42 -17 -31 7l256 556c9 19 37 9 28 -12l-99 -215c15 11 31 18 49 18c45 0 76 -21 76 -64c0 -16 -4 -32 -13 -51l-73 -157c-7 -16 -11 -31 -11 -40
c0 -24 15 -35 41 -35c56 0 85 70 93 87c8 15 32 7 25 -11c-14 -37 -58 -104 -118 -104c-44 0 -71 20 -71 63c0 16 4 33 13 52z" />
    <glyph glyph-name="k.1111" horiz-adv-x="288" 
d="M243 572l-102 -223c18 15 38 26 60 26c46 0 75 -27 70 -76c-7 -61 -86 -137 -158 -152c-8 -45 -5 -118 63 -118c56 0 104 69 112 86c8 15 32 7 25 -11c-14 -37 -77 -104 -137 -104c-118 0 -101 130 -86 175c65 0 144 68 151 124c4 32 -12 48 -40 48
c-47 0 -85 -56 -101 -87l-110 -239c-11 -23 -42 -17 -31 7l256 556c9 19 37 9 28 -12z" />
    <glyph glyph-name="m.1111" horiz-adv-x="462" 
d="M311 115l73 157c7 15 11 30 11 39c0 24 -19 38 -46 36c-45 -4 -75 -50 -88 -77l-1 -1l-115 -250c-10 -22 -41 -20 -33 0l116 253c7 15 11 30 11 39c0 24 -19 38 -46 36c-47 -4 -78 -55 -90 -81l-114 -248c-11 -23 -42 -17 -31 7l155 336c8 17 33 10 29 -8
c15 12 32 20 51 22c41 2 70 -17 75 -52c20 25 48 49 81 52c46 3 76 -21 76 -64c0 -16 -4 -32 -13 -51l-73 -157c-7 -16 -11 -31 -11 -40c0 -24 15 -35 41 -35c56 0 85 70 93 87c8 15 32 7 25 -11c-14 -37 -58 -104 -118 -104c-44 0 -71 20 -71 63c0 16 4 33 13 52z" />
    <glyph glyph-name="n.1111" horiz-adv-x="306" 
d="M155 115l73 157c7 15 11 30 11 39c0 24 -19 38 -46 36c-45 -4 -75 -50 -88 -77l-115 -251c-11 -23 -42 -17 -31 7l154 335c8 17 33 10 29 -8c15 12 32 20 51 22c46 3 76 -21 76 -64c0 -16 -4 -32 -13 -51l-73 -157c-7 -16 -11 -31 -11 -40c0 -24 15 -35 41 -35
c56 0 85 70 93 87c8 15 32 7 25 -11c-14 -37 -58 -104 -118 -104c-44 0 -71 20 -71 63c0 16 4 33 13 52z" />
    <glyph glyph-name="Sacute" unicode="&#x15a;" horiz-adv-x="761" 
d="M374 -96c-163 0 -296 110 -296 270c0 144 108 276 272 276c136 0 203 -78 203 -170c0 -34 -16 -71 -44 -98c-19 -15 -41 2 -21 21c23 21 35 50 35 77c0 77 -57 140 -175 140c-146 0 -240 -116 -240 -246c0 -143 128 -240 266 -240c142 0 301 106 301 293
c0 96 -62 190 -62 293c0 108 93 167 164 167c58 0 123 -36 123 -109c0 -41 -35 -96 -96 -98c-22 0 -22 28 0 28c44 3 66 42 66 70c0 46 -40 81 -92 81c-59 0 -135 -50 -135 -139c0 -101 62 -183 62 -293c0 -207 -175 -323 -331 -323zM796 767c-17 -11 -33 11 -15 23l139 98
c20 13 31 -13 15 -23z" />
    <glyph glyph-name="Tcaron" unicode="&#x164;" horiz-adv-x="585" 
d="M120 -46c180 -1 246 131 318 291l67 149c38 83 81 173 134 213c-59 16 -117 30 -159 33c-307 18 -441 -188 -441 -343c0 -94 49 -181 144 -219c26 -9 12 -39 -12 -29c-107 45 -162 143 -162 247c0 171 149 389 471 375c123 -5 286 -83 382 -83c87 0 126 44 129 79
c0 21 32 19 29 -3c-4 -46 -60 -105 -158 -105c-47 -1 -119 19 -191 39c-53 -38 -95 -125 -137 -215l-67 -144c-82 -179 -148 -312 -346 -315c-72 0 -131 32 -142 79c-4 21 25 28 30 6c7 -33 54 -55 111 -55zM697 766l-45 98c-9 15 15 29 23 16l38 -83l119 85
c20 13 31 -13 15 -23l-130 -92c-7 -5 -17 -8 -20 -1z" />
    <glyph glyph-name="Zacute" unicode="&#x179;" horiz-adv-x="772" 
d="M495 674c167 -1 268 -83 380 -114l5 5c17 20 80 94 148 94c49 0 69 -25 69 -55c0 -36 -54 -86 -138 -86c-26 0 -49 3 -73 9l-413 -469c-13 -15 -26 -28 -39 -40c168 -132 333 -340 574 -340c126 0 200 76 209 148c4 43 -14 66 -37 87c-18 14 2 29 15 21
c39 -24 55 -66 51 -112c-10 -83 -92 -174 -239 -174c-226 1 -378 159 -520 287c-25 23 -50 44 -75 64c-78 -65 -154 -88 -218 -88c-95 -1 -174 37 -174 105c0 79 92 112 166 111c80 0 153 -37 225 -91c13 13 26 26 40 42l403 458c-105 35 -204 108 -361 108
c-66 0 -142 -32 -171 -98c-32 -67 -2 -145 54 -172c44 -19 118 -18 139 38c8 28 35 10 29 -9c-23 -70 -119 -83 -179 -54c-72 33 -107 126 -71 208c34 75 121 117 201 117zM194 -59c55 0 123 19 194 76c-65 47 -130 80 -201 80c-84 0 -136 -31 -135 -80
c0 -49 72 -76 142 -76zM1028 629c-46 0 -94 -48 -119 -77c16 -3 33 -4 50 -4c66 0 108 32 108 56c0 14 -12 25 -39 25zM951 767c-17 -11 -33 11 -15 23l139 98c20 13 31 -13 15 -23z" />
    <glyph glyph-name="sacute" unicode="&#x15b;" horiz-adv-x="254" 
d="M-17 6c-14 6 -26 15 -35 25c-11 12 7 34 23 20c7 -8 17 -15 30 -19c9 -3 19 -4 29 -4c66 0 119 56 124 126c4 51 -26 96 -35 149l-94 -199c-10 -22 -34 -8 -25 11l136 295c8 19 38 9 28 -12l-5 -11c-6 -14 -10 -28 -11 -41c-5 -66 40 -127 36 -191
c-7 -80 -73 -157 -157 -157c-16 0 -31 3 -44 8zM161 0c-15 0 -15 28 0 28c56 0 85 70 93 87c8 15 32 7 25 -11c-14 -37 -58 -104 -118 -104zM160 474c-17 -11 -33 11 -15 23l139 98c20 13 31 -13 15 -23z" />
    <glyph glyph-name="tcaron" unicode="&#x165;" horiz-adv-x="264" 
d="M192 342h-55l-109 -239c-7 -16 -11 -31 -11 -40c0 -24 19 -35 49 -35c56 0 85 70 93 87c8 15 32 7 25 -11c-14 -37 -58 -104 -118 -104c-48 0 -79 20 -79 63c0 16 4 33 13 52l104 227h-29c-20 0 -12 28 9 28h32l49 106c8 19 37 9 28 -12l-43 -94h51c19 0 10 -28 -9 -28z
M359 595c28 0 38 -29 23 -57c-20 -36 -46 -64 -86 -88c-21 -11 -27 13 -12 18c22 9 48 33 63 55c-16 4 -31 18 -28 36c2 20 22 36 40 36z" />
    <glyph glyph-name="zacute" unicode="&#x17a;" horiz-adv-x="299" 
d="M0 115l146 305c9 17 38 7 28 -13c-14 -31 5 -41 21 -41h90c1 2 3 4 3 4c13 15 37 -1 24 -18c0 0 -84 -96 -164 -187c57 -21 59 -101 -3 -216c-61 -112 -137 -175 -233 -175c-85 0 -119 47 -119 97c0 41 35 96 96 98c21 0 21 -28 0 -28c-44 -3 -66 -42 -66 -70
c0 -35 24 -69 89 -69c73 0 149 50 204 155c58 111 58 185 0 185c-5 0 -11 -1 -16 -2c-15 -4 -14 27 5 29c4 0 7 1 11 1h1c53 60 111 128 144 168h-66c-20 0 -35 8 -45 21l-125 -255c-9 -19 -36 -13 -25 11zM206 0c-15 0 -15 28 0 28c56 0 85 70 93 87c8 15 32 7 25 -11
c-14 -37 -58 -104 -118 -104zM224 474c-17 -11 -33 11 -15 23l139 98c20 13 31 -13 15 -23z" />
    <glyph glyph-name="Aogonek" unicode="&#x104;" horiz-adv-x="1083" 
d="M861 51l84 184h-212c-95 -162 -240 -315 -424 -315c-151 0 -278 108 -278 264c0 136 106 264 266 264c136 0 203 -78 203 -170c0 -34 -16 -71 -44 -98c-19 -15 -41 2 -21 21c23 21 35 50 35 77c0 77 -57 140 -175 140c-142 0 -234 -112 -234 -234
c0 -139 122 -234 248 -234c181 0 317 161 408 318c109 207 294 408 550 408c37 0 64 -8 83 -22c20 -13 1 -40 -16 -26c-13 11 -34 19 -62 20c-87 0 -154 -115 -189 -190l-194 -419c-27 -58 -43 -162 33 -162c6 0 13 1 21 3c23 9 22 -25 0 -30c-32 -7 -47 -37 -47 -57
s13 -35 39 -35c13 0 30 4 47 20c16 15 32 -8 16 -23c-17 -16 -45 -27 -63 -27c-45 0 -69 29 -69 65c0 19 9 39 28 57c-76 19 -65 133 -33 201zM1174 638c-170 -36 -314 -166 -426 -376h210l89 189c35 74 77 145 127 187z" />
    <glyph glyph-name="Scommaaccent" unicode="&#x218;" horiz-adv-x="761" 
d="M331 -141c28 0 38 -29 23 -57c-20 -36 -46 -64 -86 -88c-21 -11 -27 13 -12 18c22 9 48 33 63 55c-16 4 -31 18 -28 36c2 20 22 36 40 36zM374 -96c-163 0 -296 110 -296 270c0 144 108 276 272 276c136 0 203 -78 203 -170c0 -34 -16 -71 -44 -98c-19 -15 -41 2 -21 21
c23 21 35 50 35 77c0 77 -57 140 -175 140c-146 0 -240 -116 -240 -246c0 -143 128 -240 266 -240c142 0 301 106 301 293c0 96 -62 190 -62 293c0 108 93 167 164 167c58 0 123 -36 123 -109c0 -41 -35 -96 -96 -98c-22 0 -22 28 0 28c44 3 66 42 66 70c0 46 -40 81 -92 81
c-59 0 -135 -50 -135 -139c0 -101 62 -183 62 -293c0 -207 -175 -323 -331 -323z" />
    <glyph glyph-name="uni00AD" unicode="&#xad;" horiz-adv-x="327" 
d="M84 210c-20 0 -20 28 0 28h179c22 0 22 -28 0 -28h-179z" />
    <glyph glyph-name="Zdotaccent" unicode="&#x17b;" horiz-adv-x="772" 
d="M495 674c167 -1 268 -83 380 -114l5 5c17 20 80 94 148 94c49 0 69 -25 69 -55c0 -36 -54 -86 -138 -86c-26 0 -49 3 -73 9l-413 -469c-13 -15 -26 -28 -39 -40c168 -132 333 -340 574 -340c126 0 200 76 209 148c4 43 -14 66 -37 87c-18 14 2 29 15 21
c39 -24 55 -66 51 -112c-10 -83 -92 -174 -239 -174c-226 1 -378 159 -520 287c-25 23 -50 44 -75 64c-78 -65 -154 -88 -218 -88c-95 -1 -174 37 -174 105c0 79 92 112 166 111c80 0 153 -37 225 -91c13 13 26 26 40 42l403 458c-105 35 -204 108 -361 108
c-66 0 -142 -32 -171 -98c-32 -67 -2 -145 54 -172c44 -19 118 -18 139 38c8 28 35 10 29 -9c-23 -70 -119 -83 -179 -54c-72 33 -107 126 -71 208c34 75 121 117 201 117zM194 -59c55 0 123 19 194 76c-65 47 -130 80 -201 80c-84 0 -136 -31 -135 -80
c0 -49 72 -76 142 -76zM1028 629c-46 0 -94 -48 -119 -77c16 -3 33 -4 50 -4c66 0 108 32 108 56c0 14 -12 25 -39 25zM888 752c-3 -15 -17 -27 -32 -27c-16 0 -25 12 -22 27c2 15 17 28 31 28c15 0 26 -13 23 -28z" />
    <glyph glyph-name="aogonek" unicode="&#x105;" 
d="M332 104c-11 -28 -39 -74 -78 -94c-33 -17 -49 -41 -49 -59c0 -20 13 -35 39 -35c13 0 30 4 47 20c16 15 32 -8 16 -23c-17 -16 -45 -27 -63 -27c-45 0 -69 29 -69 65c0 17 7 34 22 50c-28 4 -47 19 -53 45c-19 -24 -46 -46 -81 -46c-45 0 -76 21 -76 64c0 16 4 32 13 51
l74 158c13 29 51 102 119 102c30 0 55 -13 65 -36l10 21c8 19 37 9 28 -12l-112 -245c-7 -16 -11 -31 -11 -40c0 -24 15 -35 41 -35c56 0 85 70 93 87c8 15 32 7 25 -11zM63 28c45 0 75 50 88 77l77 167c7 16 11 29 11 39c0 24 -19 36 -46 36c-52 0 -82 -65 -93 -90
l-72 -154c-7 -15 -11 -30 -11 -39c0 -24 19 -36 46 -36z" />
    <glyph glyph-name="scommaaccent" unicode="&#x219;" horiz-adv-x="254" 
d="M8 -58c28 0 38 -29 23 -57c-20 -36 -46 -64 -86 -88c-21 -11 -27 13 -12 18c22 9 48 33 63 55c-16 4 -31 18 -28 36c2 20 22 36 40 36zM-17 6c-14 6 -26 15 -35 25c-11 12 7 34 23 20c7 -8 17 -15 30 -19c9 -3 19 -4 29 -4c66 0 119 56 124 126c4 51 -26 96 -35 149
l-94 -199c-10 -22 -34 -8 -25 11l136 295c8 19 38 9 28 -12l-5 -11c-6 -14 -10 -28 -11 -41c-5 -66 40 -127 36 -191c-7 -80 -73 -157 -157 -157c-16 0 -31 3 -44 8zM161 0c-15 0 -15 28 0 28c56 0 85 70 93 87c8 15 32 7 25 -11c-14 -37 -58 -104 -118 -104z" />
    <glyph glyph-name="Lcaron" unicode="&#x13d;" horiz-adv-x="865" 
d="M1180 -87c-18 14 2 29 15 21c39 -24 55 -66 51 -112c-10 -83 -92 -174 -239 -174c-226 1 -378 159 -520 287l-25 22c-76 -46 -158 -64 -236 -64c-111 -1 -206 46 -206 123c0 79 92 112 166 111c100 0 189 -58 278 -133c56 37 105 89 146 154c-104 -35 -218 -39 -327 12
c-138 63 -196 208 -133 346c86 187 316 241 503 155c51 -24 107 -64 146 -113c41 78 87 138 142 138c41 0 61 -34 61 -91c-2 -149 -153 -344 -349 -430c-48 -86 -104 -148 -165 -191c150 -130 304 -296 520 -296c126 0 200 76 209 148c4 43 -14 66 -37 87zM298 188
c112 -52 231 -42 336 3c7 12 13 25 19 38l70 157c20 44 40 90 61 133c-37 51 -96 91 -147 116c-174 80 -383 26 -460 -141c-57 -123 -2 -249 121 -306zM226 -77c75 0 147 18 212 55c-82 68 -162 119 -251 119c-84 0 -136 -31 -135 -80c0 -58 88 -94 174 -94zM680 219l-4 -8
c168 88 295 258 296 386c1 38 -10 58 -35 59c-41 -1 -81 -60 -119 -135c9 -14 16 -30 21 -45c2 -2 2 -7 1 -11c1 -7 -8 -15 -15 -14c-5 0 -9 2 -12 11s-7 18 -11 27c-18 -37 -35 -77 -52 -114zM872 888c28 0 38 -29 23 -57c-20 -36 -46 -64 -86 -88c-21 -11 -27 13 -12 18
c22 9 48 33 63 55c-16 4 -31 18 -28 36c2 20 22 36 40 36z" />
    <glyph glyph-name="lcaron" unicode="&#x13e;" horiz-adv-x="344" 
d="M0 115l215 469c8 19 37 9 28 -12l-215 -469c-7 -16 -11 -31 -11 -40c0 -24 15 -35 41 -35c56 0 85 70 93 87c8 15 32 7 25 -11c-14 -37 -58 -104 -118 -104c-44 0 -71 20 -71 63c0 16 4 33 13 52zM392 595c28 0 38 -29 23 -57c-20 -36 -46 -64 -86 -88
c-21 -11 -27 13 -12 18c22 9 48 33 63 55c-16 4 -31 18 -28 36c2 20 22 36 40 36z" />
    <glyph glyph-name="zdotaccent" unicode="&#x17c;" horiz-adv-x="299" 
d="M0 115l146 305c9 17 38 7 28 -13c-14 -31 5 -41 21 -41h90c1 2 3 4 3 4c13 15 37 -1 24 -18c0 0 -84 -96 -164 -187c57 -21 59 -101 -3 -216c-61 -112 -137 -175 -233 -175c-85 0 -119 47 -119 97c0 41 35 96 96 98c21 0 21 -28 0 -28c-44 -3 -66 -42 -66 -70
c0 -35 24 -69 89 -69c73 0 149 50 204 155c58 111 58 185 0 185c-5 0 -11 -1 -16 -2c-15 -4 -14 27 5 29c4 0 7 1 11 1h1c53 60 111 128 144 168h-66c-20 0 -35 8 -45 21l-125 -255c-9 -19 -36 -13 -25 11zM206 0c-15 0 -15 28 0 28c56 0 85 70 93 87c8 15 32 7 25 -11
c-14 -37 -58 -104 -118 -104zM287 459c-3 -15 -17 -27 -32 -27c-16 0 -25 12 -22 27c2 15 17 28 31 28c15 0 26 -13 23 -28z" />
    <glyph glyph-name="Racute" unicode="&#x154;" horiz-adv-x="932" 
d="M255 -50c170 0 249 149 322 312c21 48 46 101 67 149c4 8 8 20 12 28c30 67 65 140 102 177c-57 32 -126 52 -199 52c-289 0 -392 -192 -392 -330c0 -90 56 -179 144 -219c22 -10 11 -38 -12 -28c-104 45 -162 143 -162 247c0 153 118 360 421 360
c204 0 374 -136 374 -310c1 -155 -129 -271 -255 -287c17 -31 35 -70 52 -108c5 -12 10 -24 16 -36c69 -154 135 -308 312 -308c104 0 159 64 167 124c-1 35 -18 67 -39 86c-12 14 4 30 18 22c37 -24 52 -71 50 -112c-9 -69 -75 -150 -197 -150c-196 0 -269 165 -338 325
l-8 18h1c-20 46 -40 93 -66 135c-3 5 -11 25 10 32c118 3 246 112 247 260c0 84 -44 158 -117 209c-40 -36 -75 -110 -102 -173c-3 -6 -10 -19 -12 -25l-64 -144c-78 -175 -160 -332 -352 -336c-69 1 -123 34 -137 79c-7 23 22 29 30 7c11 -31 54 -56 107 -56zM866 767
c-17 -11 -33 11 -15 23l139 98c20 13 31 -13 15 -23z" />
    <glyph glyph-name="Abreve" unicode="&#x102;" horiz-adv-x="1083" 
d="M861 51l84 184h-212c-95 -162 -240 -315 -424 -315c-151 0 -278 108 -278 264c0 136 106 264 266 264c136 0 203 -78 203 -170c0 -34 -16 -71 -44 -98c-19 -15 -41 2 -21 21c23 21 35 50 35 77c0 77 -57 140 -175 140c-142 0 -234 -112 -234 -234
c0 -139 122 -234 248 -234c181 0 317 161 408 318c109 207 294 408 550 408c37 0 64 -8 83 -22c20 -13 1 -40 -16 -26c-13 11 -34 19 -62 20c-87 0 -154 -115 -189 -190l-194 -419c-27 -58 -43 -162 33 -162c6 0 13 1 21 3c23 9 22 -24 0 -30c-9 -2 -17 -3 -24 -3
c-103 0 -93 129 -58 204zM1174 638c-170 -36 -314 -166 -426 -376h210l89 189c35 74 77 145 127 187zM1205 822c-6 20 16 32 24 16c9 -23 34 -41 66 -41c24 0 52 11 80 34c15 14 30 -7 13 -22c-34 -30 -69 -42 -99 -42c-40 0 -72 23 -84 55z" />
    <glyph glyph-name="Lacute" unicode="&#x139;" horiz-adv-x="865" 
d="M1180 -87c-18 14 2 29 15 21c39 -24 55 -66 51 -112c-10 -83 -92 -174 -239 -174c-226 1 -378 159 -520 287l-25 22c-76 -46 -158 -64 -236 -64c-111 -1 -206 46 -206 123c0 79 92 112 166 111c100 0 189 -58 278 -133c56 37 105 89 146 154c-104 -35 -218 -39 -327 12
c-138 63 -196 208 -133 346c86 187 316 241 503 155c51 -24 107 -64 146 -113c41 78 87 138 142 138c41 0 61 -34 61 -91c-2 -149 -153 -344 -349 -430c-48 -86 -104 -148 -165 -191c150 -130 304 -296 520 -296c126 0 200 76 209 148c4 43 -14 66 -37 87zM298 188
c112 -52 231 -42 336 3c7 12 13 25 19 38l70 157c20 44 40 90 61 133c-37 51 -96 91 -147 116c-174 80 -383 26 -460 -141c-57 -123 -2 -249 121 -306zM226 -77c75 0 147 18 212 55c-82 68 -162 119 -251 119c-84 0 -136 -31 -135 -80c0 -58 88 -94 174 -94zM680 219l-4 -8
c168 88 295 258 296 386c1 38 -10 58 -35 59c-41 -1 -81 -60 -119 -135c9 -14 16 -30 21 -45c2 -2 2 -7 1 -11c1 -7 -8 -15 -15 -14c-5 0 -9 2 -12 11s-7 18 -11 27c-18 -37 -35 -77 -52 -114zM917 767c-17 -11 -33 11 -15 23l139 98c20 13 31 -13 15 -23z" />
    <glyph glyph-name="Cacute" unicode="&#x106;" horiz-adv-x="718" 
d="M379 -118c-177 0 -289 149 -289 319c0 195 193 464 470 464c140 0 214 -83 214 -162c0 -75 -65 -151 -151 -151s-113 51 -113 99c0 17 4 35 15 49c13 16 35 2 25 -15c-5 -9 -10 -23 -10 -35c0 -34 22 -69 86 -69c66 0 119 58 119 116c0 67 -58 139 -187 139
c-254 0 -438 -249 -438 -434c0 -147 92 -291 259 -291c135 0 230 105 230 200c0 60 -41 115 -105 115c-71 0 -100 -43 -112 -74c-9 -23 -37 -12 -28 12c16 44 62 90 140 90c83 0 135 -65 135 -139c0 -108 -106 -233 -260 -233zM637 767c-17 -11 -33 11 -15 23l139 98
c20 13 31 -13 15 -23z" />
    <glyph glyph-name="Ccaron" unicode="&#x10c;" horiz-adv-x="718" 
d="M379 -118c-177 0 -289 149 -289 319c0 195 193 464 470 464c140 0 214 -83 214 -162c0 -75 -65 -151 -151 -151s-113 51 -113 99c0 17 4 35 15 49c13 16 35 2 25 -15c-5 -9 -10 -23 -10 -35c0 -34 22 -69 86 -69c66 0 119 58 119 116c0 67 -58 139 -187 139
c-254 0 -438 -249 -438 -434c0 -147 92 -291 259 -291c135 0 230 105 230 200c0 60 -41 115 -105 115c-71 0 -100 -43 -112 -74c-9 -23 -37 -12 -28 12c16 44 62 90 140 90c83 0 135 -65 135 -139c0 -108 -106 -233 -260 -233zM621 766l-45 98c-9 15 15 29 23 16l38 -83
l119 85c20 13 31 -13 15 -23l-130 -92c-7 -5 -17 -8 -20 -1z" />
    <glyph glyph-name="Eogonek" unicode="&#x118;" horiz-adv-x="700" 
d="M567 92c0 -107 -101 -202 -211 -223l-3 -2c-33 -17 -49 -41 -49 -59c0 -20 13 -35 39 -35c13 0 30 4 47 20c16 15 32 -8 16 -23c-17 -16 -45 -27 -63 -27c-45 0 -69 29 -69 65c0 19 9 38 28 56c-184 4 -252 121 -252 223c0 108 99 232 276 265c7 0 14 -1 19 -1
c-54 27 -69 88 -69 130c0 119 126 219 266 219c136 0 219 -80 219 -159c0 -77 -66 -153 -152 -153c-78 0 -114 49 -114 96c0 19 6 44 17 58c14 18 39 0 25 -17c-7 -9 -13 -25 -13 -41c0 -35 25 -67 85 -67c69 0 122 57 122 119c0 67 -71 136 -191 136
c-123 0 -235 -85 -235 -187c0 -68 30 -122 110 -122h18c13 0 19 -9 19 -17s-6 -16 -18 -16h-36c-173 0 -319 -117 -319 -242c0 -88 60 -194 232 -194c120 0 226 100 226 198c0 60 -43 116 -110 116c-65 0 -107 -38 -108 -76c-2 -14 -7 -18 -15 -18c-7 0 -14 3 -14 18
c1 51 53 107 137 107c85 0 140 -70 140 -147z" />
    <glyph glyph-name="Ecaron" unicode="&#x11a;" horiz-adv-x="700" 
d="M310 -136c-190 0 -260 119 -260 223c0 108 99 232 276 265c7 0 14 -1 19 -1c-54 27 -69 88 -69 130c0 119 126 219 266 219c136 0 219 -80 219 -159c0 -77 -66 -153 -152 -153c-78 0 -114 49 -114 96c0 19 6 44 17 58c14 18 39 0 25 -17c-7 -9 -13 -25 -13 -41
c0 -35 25 -67 85 -67c69 0 122 57 122 119c0 67 -71 136 -191 136c-123 0 -235 -85 -235 -187c0 -68 30 -122 110 -122h18c13 0 19 -9 19 -17s-6 -16 -18 -16h-36c-173 0 -319 -117 -319 -242c0 -88 60 -194 232 -194c120 0 226 100 226 198c0 60 -43 116 -110 116
c-65 0 -107 -38 -108 -76c-2 -14 -7 -18 -15 -18c-7 0 -14 3 -14 18c1 51 53 107 137 107c85 0 140 -70 140 -147c0 -122 -131 -228 -257 -228zM553 766l-45 98c-9 15 15 29 23 16l38 -83l119 85c20 13 31 -13 15 -23l-130 -92c-7 -5 -17 -8 -20 -1z" />
    <glyph glyph-name="Dcaron" unicode="&#x10e;" horiz-adv-x="974" 
d="M515 688c288 0 431 -169 431 -344c0 -221 -188 -423 -450 -423c-70 0 -141 30 -212 59c-43 -26 -94 -41 -161 -42c-36 1 -124 11 -124 68c0 30 37 55 86 55c65 0 129 -24 193 -49c72 50 115 137 162 239l71 161c37 82 87 193 141 230c-41 10 -86 16 -137 16
c-308 0 -448 -207 -448 -353c0 -80 38 -152 116 -182c9 -3 14 -9 12 -14c-1 -7 -7 -14 -17 -14c-2 0 -5 1 -9 2c-88 33 -133 116 -133 209c0 158 157 381 479 382zM914 344c0 121 -74 240 -229 289c-69 -45 -104 -141 -145 -232l-71 -157c-48 -105 -91 -191 -158 -245
c63 -25 124 -48 185 -48c243 0 418 186 418 393zM123 -32c49 0 90 9 124 26c-55 21 -110 40 -164 40c-36 0 -55 -15 -55 -28c0 -34 70 -38 95 -38zM713 766l-45 98c-9 15 15 29 23 16l38 -83l119 85c20 13 31 -13 15 -23l-130 -92c-7 -5 -17 -8 -20 -1z" />
    <glyph glyph-name="Dcroat" unicode="&#x110;" horiz-adv-x="974" 
d="M351 210c-20 0 -20 28 0 28h83l6 13l71 161c37 82 87 193 141 230c-41 10 -86 16 -137 16c-308 0 -448 -207 -448 -353c0 -80 38 -152 116 -182c9 -3 14 -9 12 -14c-1 -7 -7 -14 -17 -14c-2 0 -5 1 -9 2c-88 33 -133 116 -133 209c0 158 157 381 479 382
c288 0 431 -169 431 -344c0 -221 -188 -423 -450 -423c-70 0 -141 30 -212 59c-43 -26 -94 -41 -161 -42c-36 1 -124 11 -124 68c0 30 37 55 86 55c65 0 129 -24 193 -49c62 43 103 114 143 198h-70zM914 344c0 121 -74 240 -229 289c-69 -45 -104 -141 -145 -232l-71 -157
l-3 -6h64c22 0 22 -28 0 -28h-77c-42 -90 -83 -163 -142 -211c63 -25 124 -48 185 -48c243 0 418 186 418 393zM123 -32c49 0 90 9 124 26c-55 21 -110 40 -164 40c-36 0 -55 -15 -55 -28c0 -34 70 -38 95 -38z" />
    <glyph glyph-name="Nacute" unicode="&#x143;" horiz-adv-x="617" 
d="M553 604c63 0 99 -42 99 -85c0 -19 -4 -38 -11 -52l-198 -430v1c-12 -28 -22 -64 -22 -94c0 -37 14 -68 55 -68c5 0 12 2 23 4c22 5 28 -24 3 -30c-9 -2 -22 -4 -29 -4c-61 0 -83 45 -83 97c0 36 10 76 25 108l190 409c7 15 13 38 13 54c0 32 -23 58 -67 58
c-66 0 -147 -62 -200 -178l-174 -383c-6 -11 -16 -17 -23 -17c-11 0 -15 8 -9 22l194 423c14 31 21 67 21 104c0 95 -89 156 -176 156c-84 0 -174 -60 -174 -154c0 -68 48 -125 121 -125c35 0 69 15 83 47c4 9 8 15 16 15c10 0 18 -12 15 -23c-18 -46 -66 -68 -114 -68
c-84 0 -151 68 -151 154c0 102 98 184 204 184c101 0 206 -71 206 -186c0 -3 1 -10 -1 -34c42 49 108 95 164 95zM536 767c-17 -11 -33 11 -15 23l139 98c20 13 31 -13 15 -23z" />
    <glyph glyph-name="Ncaron" unicode="&#x147;" horiz-adv-x="619" 
d="M553 604c63 0 99 -42 99 -85c0 -19 -4 -38 -11 -52l-198 -430v1c-12 -28 -22 -64 -22 -94c0 -37 14 -68 55 -68c5 0 12 2 23 4c22 5 28 -24 3 -30c-9 -2 -22 -4 -29 -4c-61 0 -83 45 -83 97c0 36 10 76 25 108l190 409c7 15 13 38 13 54c0 32 -23 58 -67 58
c-66 0 -147 -62 -200 -178l-174 -383c-6 -11 -16 -17 -23 -17c-11 0 -15 8 -9 22l194 423c14 31 21 67 21 104c0 95 -89 156 -176 156c-84 0 -174 -60 -174 -154c0 -68 48 -125 121 -125c35 0 69 15 83 47c4 9 8 15 16 15c10 0 18 -12 15 -23c-18 -46 -66 -68 -114 -68
c-84 0 -151 68 -151 154c0 102 98 184 204 184c101 0 206 -71 206 -186c0 -3 1 -10 -1 -34c42 49 108 95 164 95zM579 766l-45 98c-9 15 15 29 23 16l38 -83l119 85c20 13 31 -13 15 -23l-130 -92c-7 -5 -17 -8 -20 -1z" />
    <glyph glyph-name="Ohungarumlaut" unicode="&#x150;" horiz-adv-x="833" 
d="M116 306c47 202 238 366 425 366c162 0 270 -120 270 -282c0 -29 -4 -60 -10 -89c-47 -202 -238 -365 -425 -365c-162 0 -271 120 -271 282c0 30 4 59 11 88zM145 301c-6 -30 -10 -57 -10 -83c0 -145 96 -252 241 -252c172 0 349 155 395 340c7 30 10 59 10 84
c0 145 -95 252 -240 252c-174 0 -352 -153 -396 -341zM559 767c-17 -11 -33 11 -15 23l139 98c20 13 31 -13 15 -23zM658 767c-17 -11 -33 11 -15 23l139 98c20 13 31 -13 15 -23z" />
    <glyph glyph-name="Rcaron" unicode="&#x158;" horiz-adv-x="932" 
d="M255 -50c170 0 249 149 322 312c21 48 46 101 67 149c4 8 8 20 12 28c30 67 65 140 102 177c-57 32 -126 52 -199 52c-289 0 -392 -192 -392 -330c0 -90 56 -179 144 -219c22 -10 11 -38 -12 -28c-104 45 -162 143 -162 247c0 153 118 360 421 360
c204 0 374 -136 374 -310c1 -155 -129 -271 -255 -287c17 -31 35 -70 52 -108c5 -12 10 -24 16 -36c69 -154 135 -308 312 -308c104 0 159 64 167 124c-1 35 -18 67 -39 86c-12 14 4 30 18 22c37 -24 52 -71 50 -112c-9 -69 -75 -150 -197 -150c-196 0 -269 165 -338 325
l-8 18h1c-20 46 -40 93 -66 135c-3 5 -11 25 10 32c118 3 246 112 247 260c0 84 -44 158 -117 209c-40 -36 -75 -110 -102 -173c-3 -6 -10 -19 -12 -25l-64 -144c-78 -175 -160 -332 -352 -336c-69 1 -123 34 -137 79c-7 23 22 29 30 7c11 -31 54 -56 107 -56zM828 766
l-45 98c-9 15 15 29 23 16l38 -83l119 85c20 13 31 -13 15 -23l-130 -92c-7 -5 -17 -8 -20 -1z" />
    <glyph glyph-name="Uring" unicode="&#x16e;" horiz-adv-x="743" 
d="M683 -254c-142 0 -163 155 -154 288c-59 -54 -123 -89 -182 -89c-130 0 -145 123 -100 216l117 254c40 87 39 192 -66 240c-90 42 -205 16 -248 -79c-32 -67 -2 -145 54 -172c44 -19 118 -18 139 38c8 28 35 10 29 -9c-23 -70 -119 -83 -179 -54c-72 33 -107 126 -71 208
c48 105 178 145 288 95c103 -47 139 -153 80 -278l-117 -255c-32 -70 -36 -175 74 -175c60 0 126 41 186 102c7 56 16 104 23 129c45 180 120 334 173 334c25 0 44 -26 44 -57c-5 -118 -99 -301 -214 -420c-12 -129 4 -286 125 -286c87 0 120 64 121 107c1 15 -2 27 -8 32
c-16 14 8 36 23 22c8 -8 16 -29 15 -54c-2 -55 -44 -137 -152 -137zM584 200c-7 -22 -14 -54 -19 -90c98 114 176 275 179 376c1 16 -8 24 -17 24c-37 0 -96 -153 -143 -310zM585 794c0 48 46 94 98 94c36 0 61 -27 61 -62c0 -50 -50 -94 -96 -94c-37 0 -63 28 -63 62z
M677 858c-29 0 -60 -26 -60 -60c0 -21 14 -36 37 -36c29 0 59 26 59 57c0 22 -15 39 -36 39z" />
    <glyph glyph-name="Uhungarumlaut" unicode="&#x170;" horiz-adv-x="743" 
d="M683 -254c-142 0 -163 155 -154 288c-59 -54 -123 -89 -182 -89c-130 0 -145 123 -100 216l117 254c40 87 39 192 -66 240c-90 42 -205 16 -248 -79c-32 -67 -2 -145 54 -172c44 -19 118 -18 139 38c8 28 35 10 29 -9c-23 -70 -119 -83 -179 -54c-72 33 -107 126 -71 208
c48 105 178 145 288 95c103 -47 139 -153 80 -278l-117 -255c-32 -70 -36 -175 74 -175c60 0 126 41 186 102c7 56 16 104 23 129c45 180 120 334 173 334c25 0 44 -26 44 -57c-5 -118 -99 -301 -214 -420c-12 -129 4 -286 125 -286c87 0 120 64 121 107c1 15 -2 27 -8 32
c-16 14 8 36 23 22c8 -8 16 -29 15 -54c-2 -55 -44 -137 -152 -137zM584 200c-7 -22 -14 -54 -19 -90c98 114 176 275 179 376c1 16 -8 24 -17 24c-37 0 -96 -153 -143 -310zM631 767c-17 -11 -33 11 -15 23l139 98c20 13 31 -13 15 -23zM730 767c-17 -11 -33 11 -15 23
l139 98c20 13 31 -13 15 -23z" />
    <glyph glyph-name="Tcommaaccent" unicode="&#x162;" horiz-adv-x="585" 
d="M120 -46c180 -1 246 131 318 291l67 149c38 83 81 173 134 213c-59 16 -117 30 -159 33c-307 18 -441 -188 -441 -343c0 -94 49 -181 144 -219c26 -9 12 -39 -12 -29c-107 45 -162 143 -162 247c0 171 149 389 471 375c123 -5 286 -83 382 -83c87 0 126 44 129 79
c0 21 32 19 29 -3c-4 -46 -60 -105 -158 -105c-47 -1 -119 19 -191 39c-53 -38 -95 -125 -137 -215l-67 -144c-82 -179 -148 -312 -346 -315c-72 0 -131 32 -142 79c-4 21 25 28 30 6c7 -33 54 -55 111 -55z" />
    <glyph glyph-name="racute" unicode="&#x155;" horiz-adv-x="283" 
d="M132 115l75 161c7 15 11 30 11 39c0 24 -13 38 -34 36c-16 0 -28 5 -36 15l-123 -262c-9 -19 -36 -13 -25 11l143 310l3 8c9 17 38 7 28 -13c-14 -31 -6 -41 10 -41c40 3 64 -21 64 -64c0 -16 -4 -32 -13 -51l-75 -161c-7 -16 -11 -31 -11 -40c0 -24 15 -35 41 -35
c56 0 85 70 93 87c8 15 32 7 25 -11c-14 -37 -58 -104 -118 -104c-44 0 -71 20 -71 63c0 16 4 33 13 52zM232 474c-17 -11 -33 11 -15 23l139 98c20 13 31 -13 15 -23z" />
    <glyph glyph-name="abreve" unicode="&#x103;" 
d="M214 0c-38 0 -63 15 -70 46c-19 -24 -46 -46 -81 -46c-45 0 -76 21 -76 64c0 16 4 32 13 51l74 158c13 29 51 102 119 102c30 0 55 -13 65 -36l10 21c8 19 37 9 28 -12l-112 -245c-7 -16 -11 -31 -11 -40c0 -24 15 -35 41 -35c56 0 85 70 93 87c8 15 32 7 25 -11
c-14 -37 -58 -104 -118 -104zM63 28c45 0 75 50 88 77l77 167c7 16 11 29 11 39c0 24 -19 36 -46 36c-52 0 -82 -65 -93 -90l-72 -154c-7 -15 -11 -30 -11 -39c0 -24 19 -36 46 -36zM168 529c-6 20 16 32 24 16c9 -23 34 -41 66 -41c24 0 52 11 80 34c15 14 30 -7 13 -22
c-34 -30 -69 -42 -99 -42c-40 0 -72 23 -84 55z" />
    <glyph glyph-name="lacute" unicode="&#x13a;" horiz-adv-x="151" 
d="M0 115l215 469c8 19 37 9 28 -12l-215 -469c-7 -16 -11 -31 -11 -40c0 -24 15 -35 41 -35c56 0 85 70 93 87c8 15 32 7 25 -11c-14 -37 -58 -104 -118 -104c-44 0 -71 20 -71 63c0 16 4 33 13 52zM273 674c-17 -11 -33 11 -15 23l139 98c20 13 31 -13 15 -23z" />
    <glyph glyph-name="cacute" unicode="&#x107;" horiz-adv-x="232" 
d="M186 375c57 0 80 -41 57 -95l-9 -22c-11 -27 -43 -19 -33 5c4 7 6 13 10 22c10 24 19 62 -25 62c-50 0 -78 -65 -89 -90l-52 -110c-34 -72 -9 -119 57 -119s114 57 130 87c8 15 33 7 25 -11c-23 -53 -85 -104 -155 -104c-84 0 -135 54 -85 159l54 114
c13 29 49 102 115 102zM195 474c-17 -11 -33 11 -15 23l139 98c20 13 31 -13 15 -23z" />
    <glyph glyph-name="ccaron" unicode="&#x10d;" horiz-adv-x="232" 
d="M186 375c57 0 80 -41 57 -95l-9 -22c-11 -27 -43 -19 -33 5c4 7 6 13 10 22c10 24 19 62 -25 62c-50 0 -78 -65 -89 -90l-52 -110c-34 -72 -9 -119 57 -119s114 57 130 87c8 15 33 7 25 -11c-23 -53 -85 -104 -155 -104c-84 0 -135 54 -85 159l54 114
c13 29 49 102 115 102zM229 473l-45 98c-9 15 15 29 23 16l38 -83l119 85c20 13 31 -13 15 -23l-130 -92c-7 -5 -17 -8 -20 -1z" />
    <glyph glyph-name="eogonek" unicode="&#x119;" horiz-adv-x="232" 
d="M186 375c57 0 79 -41 57 -95c-31 -77 -70 -111 -129 -111c-19 0 -39 6 -51 17l-18 -39c-34 -72 -9 -119 57 -119s114 57 130 87c8 15 33 7 25 -11c-17 -38 -53 -75 -98 -93c-1 0 -1 -1 -2 -1c-33 -17 -49 -41 -49 -59c0 -20 13 -35 39 -35c13 0 30 4 47 20
c16 15 32 -8 16 -23c-17 -16 -45 -27 -63 -27c-45 0 -69 29 -69 65c0 16 7 33 21 49c-82 1 -131 55 -82 159l54 114c13 29 49 102 115 102zM211 285c10 24 19 62 -25 62c-50 0 -78 -65 -89 -90l-21 -45c6 -5 24 -12 37 -12c47 0 75 29 98 85z" />
    <glyph glyph-name="ecaron" unicode="&#x11b;" horiz-adv-x="232" 
d="M186 375c57 0 79 -41 57 -95c-31 -77 -70 -111 -129 -111c-19 0 -39 6 -51 17l-18 -39c-34 -72 -9 -119 57 -119s114 57 130 87c8 15 33 7 25 -11c-23 -53 -85 -104 -155 -104c-84 0 -135 54 -85 159l54 114c13 29 49 102 115 102zM211 285c10 24 19 62 -25 62
c-50 0 -78 -65 -89 -90l-21 -45c6 -5 24 -12 37 -12c47 0 75 29 98 85zM200 473l-45 98c-9 15 15 29 23 16l38 -83l119 85c20 13 31 -13 15 -23l-130 -92c-7 -5 -17 -8 -20 -1z" />
    <glyph glyph-name="dcaron" unicode="&#x10f;" horiz-adv-x="457" 
d="M214 0c-38 0 -63 15 -70 46c-19 -24 -46 -46 -81 -46c-45 0 -76 21 -76 64c0 16 4 32 13 51l74 158c13 29 51 102 119 102c30 0 55 -13 65 -36l113 245c8 19 37 9 28 -12l-215 -469c-7 -16 -11 -31 -11 -40c0 -24 15 -35 41 -35c56 0 85 70 93 87c8 15 32 7 25 -11
c-14 -37 -58 -104 -118 -104zM156 115l72 157c7 16 11 29 11 39c0 24 -19 36 -46 36c-52 0 -82 -65 -93 -90l-72 -154c-7 -15 -11 -30 -11 -39c0 -24 19 -36 46 -36c45 0 75 50 88 77zM548 595c28 0 38 -29 23 -57c-20 -36 -46 -64 -86 -88c-21 -11 -27 13 -12 18
c22 9 48 33 63 55c-16 4 -31 18 -28 36c2 20 22 36 40 36z" />
    <glyph glyph-name="dcroat" unicode="&#x111;" 
d="M276 454c-20 0 -12 28 8 28h40l47 102c8 19 37 9 28 -12l-42 -90h35c22 0 14 -28 -8 -28h-40l-160 -351c-7 -16 -11 -31 -11 -40c0 -24 15 -35 41 -35c56 0 85 70 93 87c8 15 32 7 25 -11c-14 -37 -58 -104 -118 -104c-38 0 -63 15 -70 46c-19 -24 -46 -46 -81 -46
c-45 0 -76 21 -76 64c0 16 4 32 13 51l74 158c13 29 51 102 119 102c30 0 55 -13 65 -36l53 115h-35zM156 115l72 157c7 16 11 29 11 39c0 24 -19 36 -46 36c-52 0 -82 -65 -93 -90l-72 -154c-7 -15 -11 -30 -11 -39c0 -24 19 -36 46 -36c45 0 75 50 88 77z" />
    <glyph glyph-name="nacute" unicode="&#x144;" horiz-adv-x="306" 
d="M155 115l73 157c7 15 11 30 11 39c0 24 -19 38 -46 36c-44 -4 -74 -50 -88 -76l-76 -167c-15 -32 -58 -104 -122 -104c-21 0 -20 28 0 28c50 0 78 55 93 87l113 246c7 17 33 10 29 -8c15 12 32 20 51 22c46 3 76 -21 76 -64c0 -16 -4 -32 -13 -51l-73 -157
c-7 -16 -11 -31 -11 -40c0 -24 15 -35 41 -35c56 0 85 70 93 87c8 15 32 7 25 -11c-14 -37 -58 -104 -118 -104c-44 0 -71 20 -71 63c0 16 4 33 13 52zM231 474c-17 -11 -33 11 -15 23l139 98c20 13 31 -13 15 -23z" />
    <glyph glyph-name="ncaron" unicode="&#x148;" horiz-adv-x="306" 
d="M155 115l73 157c7 15 11 30 11 39c0 24 -19 38 -46 36c-44 -4 -74 -50 -88 -76l-76 -167c-15 -32 -58 -104 -122 -104c-21 0 -20 28 0 28c50 0 78 55 93 87l113 246c7 17 33 10 29 -8c15 12 32 20 51 22c46 3 76 -21 76 -64c0 -16 -4 -32 -13 -51l-73 -157
c-7 -16 -11 -31 -11 -40c0 -24 15 -35 41 -35c56 0 85 70 93 87c8 15 32 7 25 -11c-14 -37 -58 -104 -118 -104c-44 0 -71 20 -71 63c0 16 4 33 13 52zM231 473l-45 98c-9 15 15 29 23 16l38 -83l119 85c20 13 31 -13 15 -23l-130 -92c-7 -5 -17 -8 -20 -1z" />
    <glyph glyph-name="ohungarumlaut" unicode="&#x151;" horiz-adv-x="269" 
d="M63 0c-45 0 -76 21 -76 64c0 16 4 32 13 51l74 158c13 29 51 102 119 102c45 0 76 -21 76 -64c0 -16 -4 -32 -13 -51l-74 -158c-13 -29 -51 -102 -119 -102zM17 64c0 -24 19 -36 46 -36c52 0 82 65 93 90l72 154c7 15 11 30 11 39c0 24 -19 36 -46 36
c-52 0 -82 -65 -93 -90l-72 -154c-7 -15 -11 -30 -11 -39zM174 474c-17 -11 -33 11 -15 23l139 98c20 13 31 -13 15 -23zM273 474c-17 -11 -33 11 -15 23l139 98c20 13 31 -13 15 -23z" />
    <glyph glyph-name="rcaron" unicode="&#x159;" horiz-adv-x="283" 
d="M132 115l75 161c7 15 11 30 11 39c0 24 -13 38 -34 36c-16 0 -28 5 -36 15l-123 -262c-9 -19 -36 -13 -25 11l143 310l3 8c9 17 38 7 28 -13c-14 -31 -6 -41 10 -41c40 3 64 -21 64 -64c0 -16 -4 -32 -13 -51l-75 -161c-7 -16 -11 -31 -11 -40c0 -24 15 -35 41 -35
c56 0 85 70 93 87c8 15 32 7 25 -11c-14 -37 -58 -104 -118 -104c-44 0 -71 20 -71 63c0 16 4 33 13 52zM231 473l-45 98c-9 15 15 29 23 16l38 -83l119 85c20 13 31 -13 15 -23l-130 -92c-7 -5 -17 -8 -20 -1z" />
    <glyph glyph-name="uring" unicode="&#x16f;" 
d="M141 348l-113 -245c-7 -15 -11 -30 -11 -39c0 -24 19 -36 46 -36c45 0 75 50 88 77l5 10l112 245c8 19 37 9 28 -12l-112 -245c-7 -16 -11 -31 -11 -40c0 -24 15 -35 41 -35c56 0 85 70 93 87c8 15 32 7 25 -11c-14 -37 -58 -104 -118 -104c-38 0 -63 15 -70 46
c-19 -24 -46 -46 -81 -46c-45 0 -76 21 -76 64c0 16 4 32 13 51l113 245c8 19 37 9 28 -12zM173 501c0 48 46 94 98 94c36 0 61 -27 61 -62c0 -50 -50 -94 -96 -94c-37 0 -63 28 -63 62zM265 565c-29 0 -60 -26 -60 -60c0 -21 14 -36 37 -36c29 0 59 26 59 57
c0 22 -15 39 -36 39z" />
    <glyph glyph-name="uhungarumlaut" unicode="&#x171;" 
d="M141 348l-113 -245c-7 -15 -11 -30 -11 -39c0 -24 19 -36 46 -36c45 0 75 50 88 77l5 10l112 245c8 19 37 9 28 -12l-112 -245c-7 -16 -11 -31 -11 -40c0 -24 15 -35 41 -35c56 0 85 70 93 87c8 15 32 7 25 -11c-14 -37 -58 -104 -118 -104c-38 0 -63 15 -70 46
c-19 -24 -46 -46 -81 -46c-45 0 -76 21 -76 64c0 16 4 32 13 51l113 245c8 19 37 9 28 -12zM186 474c-17 -11 -33 11 -15 23l139 98c20 13 31 -13 15 -23zM285 474c-17 -11 -33 11 -15 23l139 98c20 13 31 -13 15 -23z" />
    <glyph glyph-name="tcommaaccent" unicode="&#x163;" horiz-adv-x="159" 
d="M8 -58c28 0 38 -29 23 -57c-20 -36 -46 -64 -86 -88c-21 -11 -27 13 -12 18c22 9 48 33 63 55c-16 4 -31 18 -28 36c2 20 22 36 40 36zM192 342h-55l-109 -239c-7 -16 -11 -31 -11 -40c0 -24 19 -35 49 -35c56 0 85 70 93 87c8 15 32 7 25 -11
c-14 -37 -58 -104 -118 -104c-48 0 -79 20 -79 63c0 16 4 33 13 52l104 227h-29c-20 0 -12 28 9 28h32l49 106c8 19 37 9 28 -12l-43 -94h51c19 0 10 -28 -9 -28z" />
    <glyph glyph-name="Gbreve" unicode="&#x11e;" horiz-adv-x="649" 
d="M489 532c17 18 37 -2 22 -15c-9 -10 -14 -24 -15 -38c1 -30 23 -59 76 -60c59 0 101 52 101 107c0 57 -60 114 -171 113c-228 0 -388 -232 -388 -394c0 -110 72 -214 207 -214c154 0 240 124 273 197l20 42c11 24 36 16 28 -5l-139 -307c-52 -115 -126 -198 -229 -198
c-84 0 -119 47 -119 97c0 41 36 96 97 98c21 0 21 -29 -1 -27c-43 -5 -65 -43 -65 -71c-1 -34 23 -69 88 -69c74 0 148 62 196 170l60 131c-49 -50 -118 -87 -209 -87c-152 0 -237 120 -236 243c0 174 170 423 416 422c128 0 200 -69 201 -140c0 -67 -54 -136 -130 -136
c-70 0 -103 45 -103 88c0 19 7 39 20 53zM488 822c-6 20 16 32 24 16c9 -23 34 -41 66 -41c24 0 52 11 80 34c15 14 30 -7 13 -22c-34 -30 -69 -42 -99 -42c-40 0 -72 23 -84 55z" />
    <glyph glyph-name="Idotaccent" unicode="&#x130;" horiz-adv-x="580" 
d="M578 670c36 0 81 -5 124 -20c21 -7 27 -16 27 -25c0 -7 -4 -15 -8 -19c-82 -80 -130 -155 -199 -302c-76 -160 -173 -364 -370 -364c-66 0 -125 28 -139 71c-7 22 20 35 28 12c10 -30 54 -53 111 -53c165 0 257 164 321 301v-1l40 87c46 100 129 220 183 264
c-1 -1 -7 2 -13 4c-33 10 -68 14 -105 14c-136 0 -237 -106 -237 -244c0 -21 3 -44 9 -64c5 -16 0 -28 -12 -28c-7 0 -13 7 -17 16c-8 25 -12 52 -12 77c0 151 117 274 269 274zM713 752c-3 -15 -17 -27 -32 -27c-16 0 -25 12 -22 27c2 15 17 28 31 28c15 0 26 -13 23 -28z
" />
    <glyph glyph-name="Scedilla" unicode="&#x15e;" horiz-adv-x="761" 
d="M374 -96c-9 0 -18 1 -27 1c0 0 -1 -1 -1 -2c-23 -38 14 -60 14 -101c0 -37 -31 -68 -68 -68c-11 0 -23 2 -36 10c-18 9 -4 39 16 26c8 -5 14 -6 20 -6c21 0 38 17 38 38c0 43 -38 55 -13 107c-136 22 -239 124 -239 265c0 144 108 276 272 276c136 0 203 -78 203 -170
c0 -34 -16 -71 -44 -98c-19 -15 -41 2 -21 21c23 21 35 50 35 77c0 77 -57 140 -175 140c-146 0 -240 -116 -240 -246c0 -143 128 -240 266 -240c142 0 301 106 301 293c0 96 -62 190 -62 293c0 108 93 167 164 167c58 0 123 -36 123 -109c0 -41 -35 -96 -96 -98
c-22 0 -22 28 0 28c44 3 66 42 66 70c0 46 -40 81 -92 81c-59 0 -135 -50 -135 -139c0 -101 62 -183 62 -293c0 -207 -175 -323 -331 -323z" />
    <glyph glyph-name="gbreve" unicode="&#x11f;" horiz-adv-x="291" 
d="M-128 -31c21 0 21 -28 0 -28c-44 -3 -66 -42 -66 -70c0 -35 24 -69 89 -69c73 0 147 62 196 170l20 45c-13 -11 -29 -17 -48 -17c-45 0 -76 21 -76 64c0 16 4 32 13 51l74 158c13 29 51 102 119 102c30 0 55 -13 65 -36l10 21c8 19 37 9 28 -12l-172 -376
c-52 -115 -127 -198 -229 -198c-85 0 -119 47 -119 97c0 41 35 96 96 98zM63 28c45 0 75 50 88 77l77 167c7 16 11 29 11 39c0 24 -19 36 -46 36c-52 0 -82 -65 -93 -90l-72 -154c-7 -15 -11 -30 -11 -39c0 -24 19 -36 46 -36zM198 0c-15 0 -15 28 0 28c56 0 85 70 93 87
c8 15 32 7 25 -11c-14 -37 -58 -104 -118 -104zM178 529c-6 20 16 32 24 16c9 -23 34 -41 66 -41c24 0 52 11 80 34c15 14 30 -7 13 -22c-34 -30 -69 -42 -99 -42c-40 0 -72 23 -84 55z" />
    <glyph glyph-name="scedilla" unicode="&#x15f;" horiz-adv-x="254" 
d="M-17 6c-14 6 -26 15 -35 25c-11 12 7 34 23 20c7 -8 17 -15 30 -19c9 -3 19 -4 29 -4c66 0 119 56 124 126c4 51 -26 96 -35 149l-94 -199c-10 -22 -34 -8 -25 11l136 295c8 19 38 9 28 -12l-5 -11c-6 -14 -10 -28 -11 -41c-5 -66 40 -127 36 -191
c-7 -76 -66 -149 -144 -156c-15 -34 18 -56 18 -95c0 -37 -31 -68 -68 -68c-11 0 -23 2 -36 10c-18 9 -4 39 16 26c8 -5 14 -6 20 -6c21 0 38 17 38 38c0 39 -32 53 -18 95c-10 1 -18 4 -27 7zM161 0c-15 0 -15 28 0 28c56 0 85 70 93 87c8 15 32 7 25 -11
c-14 -37 -58 -104 -118 -104z" />
    <glyph glyph-name="Rcommaaccent" unicode="&#x156;" horiz-adv-x="932" 
d="M552 -58c28 0 38 -29 23 -57c-20 -36 -46 -64 -86 -88c-21 -11 -27 13 -12 18c22 9 48 33 63 55c-16 4 -31 18 -28 36c2 20 22 36 40 36zM255 -50c170 0 249 149 322 312c21 48 46 101 67 149c4 8 8 20 12 28c30 67 65 140 102 177c-57 32 -126 52 -199 52
c-289 0 -392 -192 -392 -330c0 -90 56 -179 144 -219c22 -10 11 -38 -12 -28c-104 45 -162 143 -162 247c0 153 118 360 421 360c204 0 374 -136 374 -310c1 -155 -129 -271 -255 -287c17 -31 35 -70 52 -108c5 -12 10 -24 16 -36c69 -154 135 -308 312 -308
c104 0 159 64 167 124c-1 35 -18 67 -39 86c-12 14 4 30 18 22c37 -24 52 -71 50 -112c-9 -69 -75 -150 -197 -150c-196 0 -269 165 -338 325l-8 18h1c-20 46 -40 93 -66 135c-3 5 -11 25 10 32c118 3 246 112 247 260c0 84 -44 158 -117 209c-40 -36 -75 -110 -102 -173
c-3 -6 -10 -19 -12 -25l-64 -144c-78 -175 -160 -332 -352 -336c-69 1 -123 34 -137 79c-7 23 22 29 30 7c11 -31 54 -56 107 -56z" />
    <glyph glyph-name="rcommaaccent" unicode="&#x157;" horiz-adv-x="283" 
d="M8 -58c28 0 38 -29 23 -57c-20 -36 -46 -64 -86 -88c-21 -11 -27 13 -12 18c22 9 48 33 63 55c-16 4 -31 18 -28 36c2 20 22 36 40 36zM132 115l75 161c7 15 11 30 11 39c0 24 -13 38 -34 36c-16 0 -28 5 -36 15l-123 -262c-9 -19 -36 -13 -25 11l143 310l3 8
c9 17 38 7 28 -13c-14 -31 -6 -41 10 -41c40 3 64 -21 64 -64c0 -16 -4 -32 -13 -51l-75 -161c-7 -16 -11 -31 -11 -40c0 -24 15 -35 41 -35c56 0 85 70 93 87c8 15 32 7 25 -11c-14 -37 -58 -104 -118 -104c-44 0 -71 20 -71 63c0 16 4 33 13 52z" />
    <glyph glyph-name="Iogonek" unicode="&#x12e;" horiz-adv-x="580" 
d="M578 670c36 0 81 -5 124 -20c21 -7 27 -16 27 -25c0 -7 -4 -15 -8 -19c-82 -80 -130 -155 -199 -302c-65 -137 -146 -305 -291 -351l-3 -3c-33 -17 -49 -41 -49 -59c0 -20 13 -35 39 -35c13 0 30 4 47 20c16 15 32 -8 16 -23c-17 -16 -45 -27 -63 -27
c-45 0 -69 29 -69 65c0 17 7 34 22 50c-6 0 -13 -1 -19 -1c-66 0 -125 28 -139 71c-7 22 20 35 28 12c10 -30 54 -53 111 -53c165 0 257 164 321 301v-1l40 87c46 100 129 220 183 264c-1 -1 -7 2 -13 4c-33 10 -68 14 -105 14c-136 0 -237 -106 -237 -244
c0 -21 3 -44 9 -64c5 -16 0 -28 -12 -28c-7 0 -13 7 -17 16c-8 25 -12 52 -12 77c0 151 117 274 269 274z" />
    <glyph glyph-name="Edotaccent" unicode="&#x116;" horiz-adv-x="700" 
d="M310 -136c-190 0 -260 119 -260 223c0 108 99 232 276 265c7 0 14 -1 19 -1c-54 27 -69 88 -69 130c0 119 126 219 266 219c136 0 219 -80 219 -159c0 -77 -66 -153 -152 -153c-78 0 -114 49 -114 96c0 19 6 44 17 58c14 18 39 0 25 -17c-7 -9 -13 -25 -13 -41
c0 -35 25 -67 85 -67c69 0 122 57 122 119c0 67 -71 136 -191 136c-123 0 -235 -85 -235 -187c0 -68 30 -122 110 -122h18c13 0 19 -9 19 -17s-6 -16 -18 -16h-36c-173 0 -319 -117 -319 -242c0 -88 60 -194 232 -194c120 0 226 100 226 198c0 60 -43 116 -110 116
c-65 0 -107 -38 -108 -76c-2 -14 -7 -18 -15 -18c-7 0 -14 3 -14 18c1 51 53 107 137 107c85 0 140 -70 140 -147c0 -122 -131 -228 -257 -228zM586 752c-3 -15 -17 -27 -32 -27c-16 0 -25 12 -22 27c2 15 17 28 31 28c15 0 26 -13 23 -28z" />
    </font>
</defs>
</svg>
